<svg xmlns="http://www.w3.org/2000/svg" width="22" height="20" viewBox="0 0 22 20" fill="none">
<path d="M16.5 11.1111C17.667 11.1111 18.7861 11.5794 19.6113 12.4129C20.4364 13.2464 20.9 14.3768 20.9 15.5556C20.9 16.7343 20.4364 17.8648 19.6113 18.6983C18.7861 19.5317 17.667 20 16.5 20C14.1438 20 12.1 18.0111 12.1 15.5556H9.9C9.89958 16.6338 9.51111 17.6752 8.80694 18.4856C8.10278 19.296 7.13096 19.8202 6.07255 19.9605C5.01414 20.1008 3.94132 19.8477 3.05399 19.2482C2.16665 18.6488 1.5253 17.744 1.24945 16.7023C0.973596 15.6607 1.08204 14.5533 1.55459 13.5864C2.02714 12.6195 2.83155 11.8592 3.81796 11.447C4.80437 11.0348 5.90549 10.9988 6.91617 11.3459C7.92686 11.6929 8.77817 12.3993 9.3115 13.3333H12.6885C13.0746 12.6574 13.6302 12.0961 14.2993 11.706C14.9684 11.3159 15.7274 11.1107 16.5 11.1111ZM0 10V7.77778H2.2V4.44444C2.2 3.2657 2.66357 2.13524 3.48873 1.30175C4.31389 0.468252 5.43305 0 6.6 0H15.4C16.567 0 17.6861 0.468252 18.5113 1.30175C19.3364 2.13524 19.8 3.2657 19.8 4.44444V7.77778H22V10H0Z" fill="#0056FF"/>
</svg>