<svg xmlns="http://www.w3.org/2000/svg" width="18" height="20" viewBox="0 0 18 20" fill="none">
<path d="M2.07 13.855C2.023 13.5159 1.99961 13.1739 2 12.8314V11.8077H0V9.76044H2V8.7368C2 8.38876 2.024 8.04789 2.07 7.71316H0V5.66587H2.674C3.28697 4.34692 4.27751 3.25013 5.514 2.52123L4.464 1.44641L5.88 0L7.563 1.72382C8.51142 1.52094 9.49058 1.52094 10.439 1.72382L12.122 0L13.537 1.44846L12.487 2.52328C13.7228 3.2518 14.713 4.34782 15.326 5.66587H18V7.71316H15.93C15.976 8.04789 16 8.38876 16 8.7368V9.76044H18V11.8077H16V12.8314C16 13.1794 15.976 13.5203 15.93 13.855H18V15.9023H15.326C14.7586 17.1282 13.8629 18.1641 12.7431 18.8895C11.6232 19.6149 10.3252 20 9 20C7.67477 20 6.37677 19.6149 5.25692 18.8895C4.13707 18.1641 3.24138 17.1282 2.674 15.9023H0V13.855H2.07ZM6 7.71316V9.76044H12V7.71316H6ZM6 11.8077V13.855H12V11.8077H6Z" fill="#0056FF"/>
</svg>