<svg xmlns="http://www.w3.org/2000/svg" version="1.1" xmlns:xlink="http://www.w3.org/1999/xlink" width="512" height="512" x="0" y="0" viewBox="0 0 24 24" style="enable-background:new 0 0 512 512" xml:space="preserve" class=""><g><path d="M23.5 11.5c.28 0 .5.22.5.5s-.22.5-.5.5H23v-1zM12.5 11.5H23v1H12.5z" fill="#000000" opacity="1" data-original="#000000" class=""></path><path d="M21.5 24H12c.28 0 .5-.22.5-.5V23h9c.83 0 1.5-.67 1.5-1.5v-9h.5c.28 0 .5-.22.5-.5v9.5a2.5 2.5 0 0 1-2.5 2.5zM24 2.5V12c0-.28-.22-.5-.5-.5H23v-9c0-.83-.67-1.5-1.5-1.5h-9V.5c0-.28-.22-.5-.5-.5h9.5A2.5 2.5 0 0 1 24 2.5z" fill="#000000" opacity="1" data-original="#000000" class=""></path><path d="M20 6c.28 0 .5.22.5.5s-.22.5-.5.5h-4c-.28 0-.5-.22-.5-.5s.22-.5.5-.5zM20 16c.28 0 .5.22.5.5s-.22.5-.5.5h-4c-.28 0-.5-.22-.5-.5s.22-.5.5-.5zM20 19c.28 0 .5.22.5.5s-.22.5-.5.5h-4c-.28 0-.5-.22-.5-.5s.22-.5.5-.5zM12.5 23v.5c0 .28-.22.5-.5.5s-.5-.22-.5-.5V23zM11.5 12.5h1V23h-1zM11.5 11.5h1v1h-1zM11.5 1h1v10.5h-1zM12.5.5V1h-1V.5c0-.28.22-.5.5-.5s.5.22.5.5zM1 11.5h10.5v1H1zM8 6c.28 0 .5.22.5.5S8.28 7 8 7H6.5V6zM7.85 19.15c.2.19.2.51 0 .7-.09.1-.22.15-.35.15s-.26-.05-.35-.15L6 18.7l.7-.7zM7.15 16.15c.19-.2.51-.2.7 0 .2.19.2.51 0 .7L6.7 18l-.7-.7zM5.297 17.999l.7-.7.7.7-.7.7zM6.5 7v1.5c0 .28-.22.5-.5.5s-.5-.22-.5-.5V7zM5.5 6h1v1h-1zM6.5 4.5V6h-1V4.5c0-.28.22-.5.5-.5s.5.22.5.5z" fill="#000000" opacity="1" data-original="#000000" class=""></path><path d="m6 17.3-.7.7-1.15-1.15c-.2-.19-.2-.51 0-.7.19-.2.51-.2.7 0zM5.5 6v1H4c-.28 0-.5-.22-.5-.5S3.72 6 4 6zM4.85 19.85c-.09.1-.22.15-.35.15s-.26-.05-.35-.15c-.2-.19-.2-.51 0-.7L5.3 18l.7.7zM1 11.5v1H.5c-.28 0-.5-.22-.5-.5s.22-.5.5-.5z" fill="#000000" opacity="1" data-original="#000000" class=""></path><path d="M0 2.5A2.5 2.5 0 0 1 2.5 0H12c-.28 0-.5.22-.5.5V1h-9C1.67 1 1 1.67 1 2.5v9H.5c-.28 0-.5.22-.5.5zM1 21.5c0 .83.67 1.5 1.5 1.5h9v.5c0 .28.22.5.5.5H2.5A2.5 2.5 0 0 1 0 21.5V12c0 .28.22.5.5.5H1z" fill="#000000" opacity="1" data-original="#000000" class=""></path></g></svg>