<svg xmlns="http://www.w3.org/2000/svg" version="1.1" xmlns:xlink="http://www.w3.org/1999/xlink" width="512" height="512" x="0" y="0" viewBox="0 0 512 512" style="enable-background:new 0 0 512 512" xml:space="preserve" class=""><g><path d="M471 511H41c-22.056 0-40-17.944-40-40V81c0-22.056 17.944-40 40-40h30c5.522 0 10 4.478 10 10v19.523c0 5.587 4.32 10.284 9.632 10.47C96.178 81.233 101 76.77 101 71V51c0-5.522 4.477-10 10-10h70c5.522 0 10 4.478 10 10v19.523c0 5.587 4.32 10.284 9.632 10.47C206.216 81.233 211 76.73 211 71V51c0-5.522 4.477-10 10-10h70c5.522 0 10 4.478 10 10v19.523c0 5.587 4.32 10.284 9.632 10.47C316.162 81.232 321 76.782 321 71V51c0-5.522 4.478-10 10-10h70c5.522 0 10 4.478 10 10v19.523c0 5.587 4.32 10.284 9.632 10.47C426.197 81.233 431 76.752 431 71V51c0-5.522 4.478-10 10-10h30c22.056 0 40 17.944 40 40v390c0 22.056-17.944 40-40 40zM41 61c-11.028 0-20 8.972-20 20v390c0 11.028 8.972 20 20 20h430c11.028 0 20-8.972 20-20V81c0-11.028-8.972-20-20-20h-20v10c0 16.964-14.004 30.569-31.068 29.981C403.708 100.413 391 87.034 391 70.523V61h-50v10c0 16.973-14.014 30.569-31.068 29.981C293.708 100.413 281 87.034 281 70.523V61h-50v10c0 16.951-13.993 30.57-31.068 29.981C183.708 100.413 171 87.034 171 70.523V61h-50v10c0 16.92-13.959 30.57-31.068 29.981C73.708 100.413 61 87.034 61 70.523V61z" fill="#000000" opacity="1" data-original="#000000" class=""></path><path d="M501 161H11c-5.523 0-10-4.477-10-10s4.477-10 10-10h490c5.522 0 10 4.477 10 10s-4.478 10-10 10zM421 101c-16.542 0-30-13.458-30-30V31c0-16.542 13.458-30 30-30 16.576 0 30 13.425 30 30v40c0 16.542-13.458 30-30 30zm0-80c-5.514 0-10 4.486-10 10v40c0 5.514 4.486 10 10 10s10-4.486 10-10V31c0-5.519-4.479-10-10-10zM311 101c-16.542 0-30-13.458-30-30V31c0-16.542 13.458-30 30-30 16.576 0 30 13.425 30 30v40c0 16.542-13.458 30-30 30zm0-80c-5.514 0-10 4.486-10 10v40c0 5.514 4.486 10 10 10s10-4.486 10-10V31c0-5.519-4.479-10-10-10zM201 101c-16.542 0-30-13.458-30-30V31c0-16.542 13.458-30 30-30 16.576 0 30 13.425 30 30v40c0 16.542-13.458 30-30 30zm0-80c-5.514 0-10 4.486-10 10v40c0 5.514 4.486 10 10 10s10-4.486 10-10V31c0-5.519-4.479-10-10-10zM91 101c-16.542 0-30-13.458-30-30V31C61 14.458 74.458 1 91 1c16.575 0 30 13.425 30 30v40c0 16.542-13.458 30-30 30zm0-80c-5.514 0-10 4.486-10 10v40c0 5.514 4.486 10 10 10s10-4.486 10-10V31c0-5.519-4.479-10-10-10zM131 261H81c-5.523 0-10-4.478-10-10v-50c0-5.523 4.477-10 10-10h50c5.522 0 10 4.477 10 10v50c0 5.522-4.478 10-10 10zm-40-20h30v-30H91zM231 261h-50c-5.523 0-10-4.478-10-10v-50c0-5.523 4.477-10 10-10h50c5.523 0 10 4.477 10 10v50c0 5.522-4.477 10-10 10zm-40-20h30v-30h-30zM331 261h-50c-5.522 0-10-4.478-10-10v-50c0-5.523 4.478-10 10-10h50c5.522 0 10 4.477 10 10v50c0 5.522-4.478 10-10 10zm-40-20h30v-30h-30zM431 261h-50c-5.522 0-10-4.478-10-10v-50c0-5.523 4.478-10 10-10h50c5.522 0 10 4.477 10 10v50c0 5.522-4.478 10-10 10zm-40-20h30v-30h-30zM331 361h-50c-5.522 0-10-4.478-10-10v-50c0-5.522 4.478-10 10-10h50c5.522 0 10 4.478 10 10v50c0 5.522-4.478 10-10 10zm-40-20h30v-30h-30zM431 361h-50c-5.522 0-10-4.478-10-10v-50c0-5.522 4.478-10 10-10h50c5.522 0 10 4.478 10 10v50c0 5.522-4.478 10-10 10zm-40-20h30v-30h-30zM331 461h-50c-5.522 0-10-4.478-10-10v-50c0-5.522 4.478-10 10-10h50c5.522 0 10 4.478 10 10v50c0 5.522-4.478 10-10 10zm-40-20h30v-30h-30zM431 461h-50c-5.522 0-10-4.478-10-10v-50c0-5.522 4.478-10 10-10h50c5.522 0 10 4.478 10 10v50c0 5.522-4.478 10-10 10zm-40-20h30v-30h-30zM131 361H81c-5.523 0-10-4.478-10-10v-50c0-5.522 4.477-10 10-10h50c5.522 0 10 4.478 10 10v50c0 5.522-4.478 10-10 10zm-40-20h30v-30H91zM231 361h-50c-5.523 0-10-4.478-10-10v-50c0-5.522 4.477-10 10-10h50c5.523 0 10 4.478 10 10v50c0 5.522-4.477 10-10 10zm-40-20h30v-30h-30zM131 461H81c-5.523 0-10-4.478-10-10v-50c0-5.522 4.477-10 10-10h50c5.522 0 10 4.478 10 10v50c0 5.522-4.478 10-10 10zm-40-20h30v-30H91zM231 461h-50c-5.523 0-10-4.478-10-10v-50c0-5.522 4.477-10 10-10h50c5.523 0 10 4.478 10 10v50c0 5.522-4.477 10-10 10zm-40-20h30v-30h-30z" fill="#000000" opacity="1" data-original="#000000" class=""></path></g></svg>