<svg xmlns="http://www.w3.org/2000/svg" version="1.1" xmlns:xlink="http://www.w3.org/1999/xlink" width="512" height="512" x="0" y="0" viewBox="0 0 64 64" style="enable-background:new 0 0 512 512" xml:space="preserve" class=""><g><path d="M55 55H15V8a1 1 0 1 0-2 0v3H9a1 1 0 1 0 0 2h4v4H9a1 1 0 1 0 0 2h4v4H9a1 1 0 1 0 0 2h4v4H9a1 1 0 1 0 0 2h4v4H9a1 1 0 1 0 0 2h4v4H9a1 1 0 1 0 0 2h4v4H9a1 1 0 1 0 0 2h4v7a1 1 0 0 0 1 1h41a1 1 0 1 0 0-2z" fill="#000000" opacity="1" data-original="#000000" class=""></path><path d="M18 50h1v2a1 1 0 1 0 2 0v-2h1a1 1 0 0 0 1-1V35a1 1 0 0 0-1-1h-1v-2a1 1 0 1 0-2 0v2h-1a1 1 0 0 0-1 1v14a1 1 0 0 0 1 1zm1-14h2v12h-2zM26 44h1v2a1 1 0 1 0 2 0v-2h1a1 1 0 0 0 1-1V29a1 1 0 0 0-1-1h-1v-2a1 1 0 1 0-2 0v2h-1a1 1 0 0 0-1 1v14a1 1 0 0 0 1 1zm1-14h2v12h-2zM34 50h1v2a1 1 0 1 0 2 0v-2h1a1 1 0 0 0 1-1V35a1 1 0 0 0-1-1h-1v-2a1 1 0 1 0-2 0v2h-1a1 1 0 0 0-1 1v14a1 1 0 0 0 1 1zm1-14h2v12h-2zM42 44h1v2a1 1 0 1 0 2 0v-2h1a1 1 0 0 0 1-1V29a1 1 0 0 0-1-1h-1v-2a1 1 0 1 0-2 0v2h-1a1 1 0 0 0-1 1v14a1 1 0 0 0 1 1zm1-14h2v12h-2zM50 38h1v2a1 1 0 1 0 2 0v-2h1a1 1 0 0 0 1-1V23a1 1 0 0 0-1-1h-1v-2a1 1 0 1 0-2 0v2h-1a1 1 0 0 0-1 1v14a1 1 0 0 0 1 1zm1-14h2v12h-2zM19.293 28.707c.009.009.021.012.03.02.086.08.182.15.294.197h.003a1 1 0 0 0 1.087-.217l2-2a1 1 0 1 0-1.414-1.414l-.293.293V23a1 1 0 1 0-2 0v2.586l-.293-.293a1 1 0 1 0-1.414 1.414zM35.293 28.707c.009.009.021.012.03.02.086.08.182.15.294.197h.003a1 1 0 0 0 1.087-.217l2-2a1 1 0 1 0-1.414-1.414l-.293.293V23a1 1 0 1 0-2 0v2.586l-.293-.293a1 1 0 1 0-1.414 1.414zM26.707 19.707l.293-.293V22a1 1 0 1 0 2 0v-2.586l.293.293a.997.997 0 0 0 1.414 0 1 1 0 0 0 0-1.414l-2-2c-.009-.009-.021-.012-.03-.02a.986.986 0 0 0-.294-.197h-.004c-.008-.004-.018-.004-.027-.007a.988.988 0 0 0-.313-.061c-.036-.002-.07.003-.105.005a.985.985 0 0 0-.243.047c-.035.012-.068.021-.102.037a.99.99 0 0 0-.296.196l-2 2a1 1 0 1 0 1.414 1.414zM42.707 19.707l.293-.293V22a1 1 0 1 0 2 0v-2.586l.293.293a.997.997 0 0 0 1.414 0 1 1 0 0 0 0-1.414l-2-2c-.009-.009-.021-.012-.03-.02a.986.986 0 0 0-.294-.197h-.004c-.009-.004-.018-.004-.027-.008a.994.994 0 0 0-.313-.06c-.036-.002-.07.002-.105.005a.983.983 0 0 0-.245.048.986.986 0 0 0-.396.232l-2 2a1 1 0 1 0 1.414 1.414zM50.707 13.707l.293-.293V16a1 1 0 1 0 2 0v-2.586l.293.293a.997.997 0 0 0 1.414 0 1 1 0 0 0 0-1.414l-2-2c-.009-.009-.021-.012-.03-.02a.986.986 0 0 0-.294-.197h-.004c-.008-.004-.017-.004-.026-.007a.989.989 0 0 0-.316-.062c-.034-.001-.066.003-.1.005a.979.979 0 0 0-.25.049.986.986 0 0 0-.394.232l-2 2a1 1 0 1 0 1.414 1.414z" fill="#000000" opacity="1" data-original="#000000" class=""></path></g></svg>