<svg xmlns="http://www.w3.org/2000/svg" width="148" height="148" viewBox="0 0 148 148" fill="none">
<path fill-rule="evenodd" clip-rule="evenodd" d="M54.6676 6.21803C54.5883 6.19353 54.5091 6.16819 54.4301 6.142C54.352 6.11611 54.2739 6.09107 54.1956 6.06686L50.9453 16.5757L50.9688 16.5832C51.1195 16.6332 51.2707 16.6816 51.4221 16.7283L54.6676 6.21803ZM52.2799 5.64068L50.7728 16.5369C50.759 16.535 50.7454 16.5334 50.7318 16.5321L51.7919 5.58333C51.9545 5.59907 52.1173 5.61818 52.2799 5.64068ZM49.829 5.55462L50.568 16.5298C50.5541 16.5307 50.5402 16.5319 50.5262 16.5334L49.3396 5.59762C49.5022 5.57998 49.6654 5.56563 49.829 5.55462ZM47.4119 5.96754L50.356 16.5662C50.3417 16.5702 50.3274 16.5745 50.3132 16.579L46.9413 6.10861C47.0971 6.05843 47.254 6.01139 47.4119 5.96754ZM45.1277 6.85983L50.1471 16.6479C50.1338 16.6547 50.1207 16.6617 50.1078 16.669L44.6952 7.09282C44.8378 7.01221 44.982 6.93453 45.1277 6.85983ZM43.0705 8.19439L49.9642 16.7662C49.9588 16.7706 49.9534 16.775 49.9481 16.7794C49.9427 16.784 49.9374 16.7885 49.9321 16.7931L42.694 8.51001C42.8175 8.4021 42.943 8.29688 43.0705 8.19439ZM41.3263 9.91831L49.8179 16.9107C49.8092 16.9212 49.8007 16.932 49.7924 16.943L41.0218 10.304C41.1209 10.173 41.2225 10.0444 41.3263 9.91831ZM39.9686 11.9599L49.6978 17.0925L49.6865 17.1144C49.6152 17.2563 49.5426 17.3974 49.4686 17.5375L39.7417 12.4005C39.7805 12.3271 39.8185 12.2532 39.8559 12.1788C39.8928 12.1053 39.9304 12.0323 39.9686 11.9599ZM38.6699 14.0784L47.419 20.7457C47.2261 20.9988 47.0282 21.2476 46.8257 21.4918L38.3598 14.4683C38.4657 14.3407 38.5691 14.2107 38.6699 14.0784ZM36.9662 15.8904L44.1605 24.2116C43.9201 24.4194 43.6757 24.6221 43.4272 24.8196L36.5826 16.2085C36.7126 16.1051 36.8405 15.9991 36.9662 15.8904ZM34.9272 17.3146L40.2635 26.9335C39.986 27.0875 39.7052 27.2358 39.4212 27.3783L34.4865 17.5473C34.6351 17.4727 34.782 17.3951 34.9272 17.3146ZM32.6394 18.2905L35.8885 28.7997C35.5854 28.8935 35.2799 28.9811 34.9721 29.0624L32.1605 18.4278C32.3213 18.3853 32.481 18.3395 32.6394 18.2905ZM30.2002 18.776L31.2238 29.7282C31.066 29.743 30.9079 29.7561 30.7495 29.7676L30.725 29.7697L29.7063 18.817C29.7878 18.8094 29.8696 18.8026 29.9517 18.7966C30.0347 18.7906 30.1175 18.7837 30.2002 18.776ZM27.7733 19.1563L30.5507 29.7999C30.5409 29.8025 30.5313 29.8051 30.5217 29.8079C30.5181 29.809 30.5146 29.81 30.511 29.8111L27.3005 19.2901C27.4568 19.2424 27.6144 19.1978 27.7733 19.1563ZM25.476 20.0147L30.3587 29.8717C30.3463 29.8778 30.3339 29.8843 30.3216 29.891L25.0404 20.2417C25.1838 20.1632 25.3291 20.0875 25.476 20.0147ZM23.4009 21.3212L30.1768 29.9865C30.1652 29.9956 30.1536 30.005 30.1423 30.0147L23.0201 21.6316C23.1449 21.5256 23.2718 21.4221 23.4009 21.3212ZM21.632 23.0197L30.0151 30.1418C30.0054 30.1532 29.996 30.1647 29.9869 30.1764L21.3216 23.4005C21.4226 23.2714 21.5261 23.1445 21.632 23.0197ZM20.2422 25.0399L29.8915 30.3211C29.8847 30.3335 29.8782 30.3458 29.8721 30.3583L20.0152 25.4756C20.0879 25.3286 20.1636 25.1834 20.2422 25.0399ZM19.2905 27.3001L29.8115 30.5106C29.809 30.5188 29.8066 30.5271 29.8043 30.5355C29.8029 30.5404 29.8016 30.5453 29.8003 30.5503L19.1567 27.7729C19.1982 27.614 19.2428 27.4563 19.2905 27.3001ZM18.8174 29.7058L29.7701 30.7245L29.7681 30.7491C29.7566 30.9075 29.7434 31.0656 29.7287 31.2234L18.7764 30.1998C18.7841 30.1171 18.791 30.0343 18.797 29.9513C18.803 29.8692 18.8098 29.7874 18.8174 29.7058ZM18.4282 32.1601L29.0628 34.9717C28.9815 35.2794 28.8939 35.5849 28.8002 35.8881L18.291 32.639C18.3399 32.4805 18.3857 32.3209 18.4282 32.1601ZM17.5477 34.4861L27.3787 39.4208C27.2362 39.7048 27.0879 39.9856 26.9339 40.2631L17.315 34.9267C17.3956 34.7816 17.4732 34.6346 17.5477 34.4861ZM16.2089 36.5822L24.82 43.4268C24.6225 43.6752 24.4199 43.9197 24.2121 44.1601L15.8908 36.9658C15.9995 36.8401 16.1056 36.7122 16.2089 36.5822ZM14.4687 38.3594L21.4922 46.8252C21.248 47.0278 20.9993 47.2256 20.7461 47.4186L14.0788 38.6695C14.2111 38.5686 14.3411 38.4652 14.4687 38.3594ZM12.401 39.7413L17.5379 49.4681C17.3978 49.5421 17.2567 49.6148 17.1148 49.6861L17.0929 49.6973L11.9603 39.9682C12.0328 39.9299 12.1058 39.8924 12.1793 39.8555C12.2537 39.8181 12.3276 39.78 12.401 39.7413ZM10.3044 41.0214L16.9435 49.7919C16.9324 49.8003 16.9216 49.8088 16.9111 49.8175L9.91873 41.3259C10.0449 41.222 10.1734 41.1205 10.3044 41.0214ZM8.51043 42.6936L16.7936 49.9317C16.7844 49.9422 16.7754 49.9529 16.7666 49.9638L8.19481 43.0701C8.29731 42.9426 8.40253 42.8171 8.51043 42.6936ZM7.09325 44.6948L16.6695 50.1074C16.6622 50.1203 16.6551 50.1334 16.6483 50.1467L6.86026 45.1272C6.93496 44.9816 7.01264 44.8374 7.09325 44.6948ZM6.10904 46.9409L16.5795 50.3128C16.5749 50.327 16.5706 50.3413 16.5667 50.3556L5.96797 47.4114C6.01182 47.2536 6.05886 47.0967 6.10904 46.9409ZM5.59805 49.3392L16.5339 50.5258C16.5324 50.5397 16.5311 50.5537 16.5302 50.5675L5.55504 49.8286C5.56606 49.6649 5.58041 49.5018 5.59805 49.3392ZM5.58375 51.7915L16.5326 50.7314C16.5332 50.7379 16.5339 50.7444 16.5346 50.7509C16.5355 50.758 16.5364 50.7652 16.5374 50.7724L5.64111 52.2795C5.61861 52.1168 5.5995 51.9541 5.58375 51.7915ZM6.06729 54.1952L16.5761 50.9449L16.5836 50.9683C16.6336 51.1191 16.682 51.2702 16.7288 51.4217L6.21845 54.6672C6.19396 54.5879 6.16862 54.5087 6.14243 54.4297C6.11654 54.3516 6.0915 54.2734 6.06729 54.1952ZM6.64696 56.6115L17.548 55.1394C17.5906 55.4549 17.6266 55.7706 17.656 56.0865L6.70341 57.1065C6.68803 56.9414 6.66922 56.7763 6.64696 56.6115ZM6.72361 59.0974L17.6947 59.8944C17.6717 60.2112 17.6421 60.5274 17.6061 60.8427L6.67726 59.5936C6.69611 59.4286 6.71157 59.2632 6.72361 59.0974ZM6.28883 61.5463L16.8638 64.5746C16.7764 64.8797 16.6827 65.1831 16.5827 65.4847L6.14179 62.0225C6.1941 61.8647 6.24312 61.706 6.28883 61.5463ZM5.36122 63.8541L15.0898 68.9878C14.9417 69.2684 14.7876 69.5464 14.6276 69.8215L5.11965 64.2898C5.2033 64.1461 5.28383 64.0008 5.36122 63.8541ZM3.9797 65.9222L12.4479 72.9428C12.3468 73.0648 12.2443 73.1859 12.1404 73.306L12.1245 73.3248L3.65941 66.3004C3.71172 66.2374 3.76478 66.1747 3.81858 66.1125C3.87301 66.0495 3.92672 65.9861 3.9797 65.9222ZM2.53258 67.9072L12.0226 73.4694C12.0188 73.476 12.0151 73.4825 12.0114 73.4891C12.0084 73.4945 12.0054 73.5 12.0025 73.5054L2.29283 68.3361C2.36961 68.1919 2.44953 68.0489 2.53258 67.9072ZM1.51513 70.1386L11.9376 73.6559C11.9332 73.6691 11.929 73.6824 11.925 73.6959L1.36759 70.6072C1.41351 70.4502 1.46269 70.294 1.51513 70.1386ZM0.971624 72.5298L11.8902 73.8657C11.8884 73.8804 11.8869 73.8952 11.8857 73.9101L0.921875 73.0185C0.935144 72.8553 0.951727 72.6924 0.971624 72.5298ZM0.921875 74.9815L11.8857 74.0899C11.8869 74.1048 11.8884 74.1196 11.8902 74.1343L0.971624 75.4703C0.951727 75.3076 0.935144 75.1447 0.921875 74.9815ZM1.36759 77.3928L11.925 74.3042C11.929 74.3176 11.9332 74.331 11.9376 74.3441L1.51513 77.8614C1.46269 77.706 1.41351 77.5498 1.36759 77.3928ZM2.29283 79.6639L12.0025 74.4946C12.0089 74.5066 12.0156 74.5186 12.0226 74.5306L2.53258 80.0929C2.44953 79.9512 2.36961 79.8082 2.29283 79.6639ZM3.65941 81.6996L12.1245 74.6752L12.1404 74.694C12.2443 74.8141 12.3468 74.9352 12.4479 75.0573L3.9797 82.0779C3.92672 82.014 3.87301 81.9505 3.81858 81.8875C3.76478 81.8253 3.71172 81.7627 3.65941 81.6996ZM5.11964 83.7102L14.6276 78.1785C14.7876 78.4536 14.9417 78.7316 15.0898 79.0122L5.36122 84.1459C5.28383 83.9992 5.20329 83.854 5.11964 83.7102ZM6.14179 85.9776L16.5827 82.5154C16.6827 82.8169 16.7764 83.1203 16.8638 83.4254L6.28883 86.4537C6.24312 86.2941 6.1941 86.1353 6.14179 85.9776ZM6.67726 88.4064L17.6061 87.1573C17.6421 87.4726 17.6717 87.7888 17.6947 88.1057L6.72361 88.9026C6.71157 88.7368 6.69611 88.5714 6.67726 88.4064ZM6.70341 90.8935L17.656 91.9135C17.6266 92.2294 17.5906 92.5452 17.548 92.8606L6.64696 91.3885C6.66922 91.2237 6.68803 91.0587 6.70341 90.8935ZM6.21845 93.3328L16.7288 96.5784C16.682 96.7298 16.6336 96.8809 16.5836 97.0317L16.5761 97.0551L6.06729 93.8049C6.0915 93.7266 6.11654 93.6484 6.14243 93.5703C6.16862 93.4913 6.19396 93.4122 6.21845 93.3328ZM5.64111 95.7205L16.5374 97.2277C16.5355 97.2414 16.5339 97.2551 16.5326 97.2686L5.58375 96.2085C5.5995 96.0459 5.61861 95.8832 5.64111 95.7205ZM5.55504 98.1715L16.5302 97.4325C16.5311 97.4464 16.5324 97.4603 16.5339 97.4743L5.59805 98.6608C5.58041 98.4982 5.56606 98.3351 5.55504 98.1715ZM5.96797 100.589L16.5667 97.6445C16.5706 97.6588 16.5749 97.673 16.5795 97.6872L6.10903 101.059C6.05885 100.903 6.01182 100.746 5.96797 100.589ZM6.86026 102.873L16.6483 97.8534C16.6551 97.8667 16.6622 97.8798 16.6695 97.8927L7.09325 103.305C7.01264 103.163 6.93496 103.018 6.86026 102.873ZM8.19481 104.93L16.7666 98.0362C16.7709 98.0415 16.7752 98.0467 16.7795 98.0519C16.7841 98.0574 16.7888 98.0629 16.7936 98.0683L8.51043 105.306C8.40253 105.183 8.29731 105.057 8.19481 104.93ZM9.91873 106.674L16.9111 98.1825C16.9216 98.1912 16.9324 98.1997 16.9435 98.2081L10.3044 106.979C10.1734 106.88 10.0449 106.778 9.91873 106.674ZM11.9603 108.032L17.0929 98.3027L17.1148 98.314C17.2567 98.3852 17.3978 98.4579 17.5379 98.5319L12.401 108.259C12.3276 108.22 12.2537 108.182 12.1793 108.145C12.1058 108.108 12.0328 108.07 11.9603 108.032ZM14.0788 109.331L20.7461 100.581C20.9993 100.774 21.248 100.972 21.4922 101.175L14.4687 109.641C14.3411 109.535 14.2111 109.431 14.0788 109.331ZM15.8908 111.034L24.2121 103.84C24.4199 104.08 24.6225 104.325 24.82 104.573L16.2089 111.418C16.1056 111.288 15.9995 111.16 15.8908 111.034ZM17.315 113.073L26.9339 107.737C27.0879 108.014 27.2362 108.295 27.3787 108.579L17.5477 113.514C17.4732 113.365 17.3956 113.218 17.315 113.073ZM18.291 115.361L28.8002 112.112C28.8939 112.415 28.9815 112.721 29.0628 113.028L18.4282 115.84C18.3857 115.679 18.3399 115.519 18.291 115.361ZM18.7764 117.8L29.7287 116.777C29.7434 116.934 29.7566 117.093 29.7681 117.251L29.7701 117.275L18.8174 118.294C18.8098 118.213 18.803 118.131 18.797 118.049C18.791 117.966 18.7841 117.883 18.7764 117.8ZM19.1567 120.227L29.8003 117.45C29.8038 117.463 29.8076 117.476 29.8115 117.489L19.2905 120.7C19.2428 120.544 19.1982 120.386 19.1567 120.227ZM20.0152 122.524L29.8721 117.642C29.8782 117.654 29.8847 117.667 29.8914 117.679L20.2422 122.96C20.1636 122.817 20.0879 122.671 20.0152 122.524ZM21.3216 124.6L29.9869 117.824C29.996 117.835 30.0054 117.847 30.0151 117.858L21.632 124.98C21.5261 124.856 21.4226 124.729 21.3216 124.6ZM23.0201 126.368L30.1423 117.985C30.1479 117.99 30.1535 117.995 30.1592 117.999C30.165 118.004 30.1709 118.009 30.1768 118.014L23.4009 126.679C23.2718 126.578 23.1449 126.474 23.0201 126.368ZM25.0403 127.758L30.3216 118.109C30.3339 118.116 30.3463 118.122 30.3587 118.128L25.476 127.985C25.3291 127.912 25.1838 127.837 25.0403 127.758ZM27.3005 128.71L30.511 118.189C30.5241 118.193 30.5373 118.197 30.5507 118.2L27.7733 128.844C27.6144 128.802 27.4568 128.758 27.3005 128.71ZM29.7063 129.183L30.725 118.23L30.7495 118.232C30.9079 118.244 31.066 118.257 31.2238 118.272L30.2002 129.224C30.1175 129.216 30.0347 129.209 29.9517 129.203C29.8696 129.197 29.7878 129.191 29.7063 129.183ZM32.1605 129.572L34.9721 118.938C35.2799 119.019 35.5854 119.107 35.8885 119.2L32.6394 129.709C32.481 129.661 32.3213 129.615 32.1605 129.572ZM34.4865 130.453L39.4212 120.622C39.7052 120.764 39.986 120.913 40.2635 121.067L34.9272 130.685C34.782 130.605 34.6351 130.527 34.4865 130.453ZM36.5826 131.792L43.4272 123.18C43.6757 123.378 43.9201 123.581 44.1605 123.788L36.9662 132.11C36.8405 132.001 36.7126 131.895 36.5826 131.792ZM38.3598 133.532L46.8257 126.508C47.0282 126.752 47.2261 127.001 47.419 127.254L38.6699 133.922C38.5691 133.789 38.4657 133.659 38.3598 133.532ZM39.7417 135.599L49.4685 130.463C49.5426 130.603 49.6152 130.744 49.6865 130.886L49.6978 130.908L39.9686 136.04C39.9304 135.968 39.8928 135.895 39.8559 135.821C39.8185 135.747 39.7805 135.673 39.7417 135.599ZM41.0218 137.696L49.7924 131.057C49.8007 131.068 49.8092 131.079 49.8179 131.089L41.3263 138.082C41.2225 137.956 41.1209 137.827 41.0218 137.696ZM42.694 139.49L49.9321 131.207C49.9426 131.216 49.9533 131.225 49.9642 131.234L43.0705 139.806C42.943 139.703 42.8175 139.598 42.694 139.49ZM44.6952 140.907L50.1078 131.331C50.1142 131.335 50.1207 131.338 50.1273 131.342C50.1338 131.345 50.1404 131.349 50.1471 131.352L45.1277 141.14C44.982 141.066 44.8378 140.988 44.6952 140.907ZM46.9413 141.891L50.3132 131.421C50.3211 131.424 50.3289 131.426 50.3368 131.428C50.3432 131.43 50.3496 131.432 50.356 131.434L47.4119 142.032C47.254 141.989 47.0971 141.942 46.9413 141.891ZM49.3396 142.402L50.5262 131.467C50.5402 131.468 50.5541 131.469 50.568 131.47L49.829 142.445C49.6654 142.434 49.5022 142.42 49.3396 142.402ZM51.7919 142.417L50.7318 131.468C50.7454 131.467 50.759 131.465 50.7728 131.463L52.28 142.359C52.1173 142.382 51.9545 142.401 51.7919 142.417ZM54.1956 141.933L50.9453 131.424L50.9688 131.417C51.1195 131.367 51.2707 131.318 51.4221 131.272L54.6676 141.782C54.5883 141.807 54.5091 141.832 54.4301 141.858C54.352 141.884 54.2739 141.909 54.1956 141.933ZM56.6119 141.353L55.1399 130.452C55.4553 130.41 55.7711 130.374 56.087 130.344L57.1069 141.297C56.9418 141.312 56.7768 141.331 56.6119 141.353ZM59.0979 141.277L59.8948 130.306C60.2117 130.329 60.5278 130.358 60.8431 130.394L59.594 141.323C59.4291 141.304 59.2636 141.289 59.0979 141.277ZM61.5468 141.712L64.575 131.137C64.8801 131.224 65.1835 131.318 65.4851 131.418L62.0229 141.859C61.8651 141.806 61.7064 141.757 61.5468 141.712ZM63.8546 142.639L68.9883 132.911C69.2689 133.059 69.5468 133.213 69.8219 133.373L64.2903 142.881C64.1465 142.797 64.0012 142.717 63.8546 142.639ZM65.9226 144.021L72.9432 135.553C73.0652 135.654 73.1863 135.756 73.3065 135.86L73.3253 135.876L66.3008 144.341C66.2378 144.289 66.1752 144.236 66.1129 144.182C66.0499 144.127 65.9865 144.074 65.9226 144.021ZM67.9076 145.468L73.4698 135.978C73.4775 135.982 73.4853 135.987 73.493 135.991C73.4973 135.993 73.5015 135.996 73.5058 135.998L68.3365 145.708C68.1923 145.631 68.0493 145.551 67.9076 145.468ZM70.139 146.485L73.6563 136.063C73.6695 136.067 73.6828 136.071 73.6963 136.075L70.6076 146.633C70.4506 146.587 70.2944 146.538 70.139 146.485ZM72.5302 147.029L73.8661 136.11C73.8808 136.112 73.8956 136.114 73.9105 136.115L73.0189 147.079C72.8558 147.065 72.6928 147.049 72.5302 147.029ZM74.982 147.079L74.0904 136.115C74.1052 136.114 74.12 136.112 74.1348 136.11L75.4707 147.029C75.3081 147.049 75.1451 147.065 74.982 147.079ZM77.3933 146.633L74.3046 136.075C74.3181 136.071 74.3314 136.067 74.3446 136.063L77.8618 146.485C77.7065 146.538 77.5502 146.587 77.3933 146.633ZM79.6644 145.708L74.495 135.998C74.5071 135.992 74.5191 135.985 74.531 135.978L80.0933 145.468C79.9516 145.551 79.8086 145.631 79.6644 145.708ZM81.7 144.341L74.6756 135.876L74.6944 135.86C74.8146 135.756 74.9357 135.654 75.0577 135.553L82.0783 144.021C82.0144 144.074 81.9509 144.127 81.888 144.182C81.8257 144.236 81.7631 144.289 81.7 144.341ZM83.7106 142.881L78.1789 133.373C78.4541 133.213 78.732 133.059 79.0126 132.911L84.1463 142.639C83.9997 142.717 83.8544 142.797 83.7106 142.881ZM85.978 141.859L82.5158 131.418C82.8173 131.318 83.1208 131.224 83.4259 131.137L86.4541 141.712C86.2945 141.757 86.1357 141.806 85.978 141.859ZM88.4069 141.323L87.1577 130.394C87.473 130.358 87.7892 130.329 88.1061 130.306L88.903 141.277C88.7372 141.289 88.5718 141.304 88.4069 141.323ZM90.894 141.297L91.9139 130.344C92.2298 130.374 92.5456 130.41 92.861 130.452L91.389 141.353C91.2241 141.331 91.0591 141.312 90.894 141.297ZM93.3333 141.782L96.5788 131.272C96.7302 131.318 96.8813 131.367 97.0321 131.417L97.0556 131.424L93.8053 141.933C93.727 141.909 93.6488 141.884 93.5708 141.858C93.4917 141.832 93.4126 141.807 93.3333 141.782ZM95.7209 142.359L97.2281 131.463C97.2419 131.465 97.2555 131.467 97.2691 131.468L96.209 142.417C96.0463 142.401 95.8836 142.382 95.7209 142.359ZM98.1719 142.445L97.4329 131.47C97.4468 131.469 97.4607 131.468 97.4747 131.467L98.6613 142.402C98.4987 142.42 98.3355 142.434 98.1719 142.445ZM100.589 142.032L97.6449 131.434C97.6592 131.43 97.6734 131.426 97.6877 131.421L101.06 141.891C100.904 141.942 100.747 141.989 100.589 142.032ZM102.873 141.14L97.8538 131.352C97.8671 131.345 97.8802 131.338 97.8931 131.331L103.306 140.907C103.163 140.988 103.019 141.066 102.873 141.14ZM104.93 139.806L98.0367 131.234C98.0476 131.225 98.0583 131.216 98.0688 131.207L105.307 139.49C105.183 139.598 105.058 139.703 104.93 139.806ZM106.675 138.082L98.183 131.089C98.1916 131.079 98.2002 131.068 98.2085 131.057L106.979 137.696C106.88 137.827 106.778 137.956 106.675 138.082ZM108.032 136.04L98.3031 130.908L98.3144 130.886C98.3857 130.744 98.4583 130.603 98.5323 130.463L108.259 135.599C108.22 135.673 108.182 135.747 108.145 135.821C108.108 135.895 108.071 135.968 108.032 136.04ZM109.331 133.922L100.582 127.254C100.775 127.001 100.973 126.752 101.175 126.508L109.641 133.532C109.535 133.659 109.432 133.789 109.331 133.922ZM111.035 132.11L103.84 123.788C104.081 123.581 104.325 123.378 104.574 123.18L111.418 131.792C111.288 131.895 111.16 132.001 111.035 132.11ZM113.074 130.685L107.737 121.067C108.015 120.913 108.296 120.764 108.58 120.622L113.514 130.453C113.366 130.527 113.219 130.605 113.074 130.685ZM115.361 129.709L112.112 119.2C112.416 119.107 112.721 119.019 113.029 118.938L115.84 129.572C115.68 129.615 115.52 129.661 115.361 129.709ZM117.801 129.224L116.777 118.272C116.935 118.257 117.093 118.244 117.251 118.232L117.276 118.23L118.295 129.183C118.213 129.191 118.131 129.197 118.049 129.203C117.966 129.209 117.883 129.216 117.801 129.224ZM120.228 128.844L117.45 118.2C117.464 118.197 117.477 118.193 117.49 118.189L120.7 128.71C120.544 128.758 120.386 128.802 120.228 128.844ZM122.525 127.985L117.642 118.128C117.655 118.122 117.667 118.116 117.679 118.109L122.961 127.758C122.817 127.837 122.672 127.913 122.525 127.985ZM124.6 126.679L117.824 118.014C117.836 118.004 117.847 117.995 117.859 117.985L124.981 126.368C124.856 126.474 124.729 126.578 124.6 126.679ZM126.369 124.98L117.986 117.858C117.995 117.847 118.005 117.835 118.014 117.824L126.679 124.6C126.578 124.729 126.475 124.856 126.369 124.98ZM127.759 122.96L118.109 117.679C118.116 117.667 118.123 117.654 118.129 117.642L127.986 122.524C127.913 122.671 127.837 122.817 127.759 122.96ZM128.71 120.7L118.189 117.489C118.193 117.476 118.197 117.463 118.201 117.45L128.844 120.227C128.803 120.386 128.758 120.544 128.71 120.7ZM129.184 118.294C129.191 118.213 129.198 118.131 129.204 118.049C129.21 117.966 129.217 117.883 129.224 117.8L118.272 116.777C118.257 116.934 118.244 117.093 118.233 117.251L118.231 117.275L129.184 118.294ZM129.573 115.84L118.938 113.028C119.019 112.721 119.107 112.415 119.201 112.112L129.71 115.361C129.661 115.519 129.615 115.679 129.573 115.84ZM130.453 113.514L120.622 108.579C120.765 108.295 120.913 108.014 121.067 107.737L130.686 113.073C130.605 113.218 130.528 113.365 130.453 113.514ZM131.792 111.418L123.181 104.573C123.378 104.325 123.581 104.08 123.789 103.84L132.11 111.034C132.001 111.16 131.895 111.288 131.792 111.418ZM133.532 109.641L126.509 101.175C126.753 100.972 127.002 100.774 127.255 100.581L133.922 109.331C133.79 109.431 133.66 109.535 133.532 109.641ZM135.6 108.259L130.463 98.5319C130.603 98.4579 130.744 98.3852 130.886 98.314L130.908 98.3027L136.041 108.032C135.968 108.07 135.895 108.108 135.822 108.145C135.747 108.182 135.673 108.22 135.6 108.259ZM137.697 106.979L131.057 98.2081C131.068 98.1997 131.079 98.1912 131.09 98.1825L138.082 106.674C137.956 106.778 137.827 106.88 137.697 106.979ZM139.49 105.306L131.207 98.0683C131.216 98.0579 131.225 98.0472 131.234 98.0362L139.806 104.93C139.704 105.057 139.598 105.183 139.49 105.306ZM140.908 103.305L131.331 97.8927C131.339 97.8798 131.346 97.8667 131.353 97.8534L141.141 102.873C141.066 103.018 140.988 103.163 140.908 103.305ZM141.892 101.059L131.421 97.6872C131.426 97.673 131.43 97.6588 131.434 97.6445L142.033 100.589C141.989 100.746 141.942 100.903 141.892 101.059ZM142.403 98.6608L131.467 97.4743C131.468 97.4668 131.469 97.4593 131.469 97.4519C131.47 97.4454 131.47 97.4389 131.471 97.4325L142.446 98.1715C142.435 98.3351 142.42 98.4982 142.403 98.6608ZM142.417 96.2085L131.468 97.2686C131.467 97.2551 131.465 97.2414 131.464 97.2277L142.36 95.7205C142.382 95.8832 142.401 96.0459 142.417 96.2085ZM141.934 93.8049L131.425 97.0551L131.417 97.0317C131.367 96.8809 131.319 96.7298 131.272 96.5784L141.782 93.3328C141.807 93.4121 141.832 93.4913 141.858 93.5703C141.884 93.6484 141.909 93.7266 141.934 93.8049ZM141.354 91.3885L130.453 92.8606C130.41 92.5452 130.374 92.2294 130.345 91.9135L141.297 90.8935C141.313 91.0587 141.332 91.2237 141.354 91.3885ZM141.277 88.9026L130.306 88.1057C130.329 87.7888 130.359 87.4726 130.395 87.1573L141.324 88.4064C141.305 88.5714 141.289 88.7368 141.277 88.9026ZM141.712 86.4537L131.137 83.4254C131.224 83.1204 131.318 82.8169 131.418 82.5154L141.859 85.9776C141.807 86.1353 141.758 86.2941 141.712 86.4537ZM142.64 84.1459L132.911 79.0122C133.059 78.7316 133.213 78.4536 133.373 78.1785L142.881 83.7102C142.798 83.854 142.717 83.9992 142.64 84.1459ZM144.021 82.0779L135.553 75.0573C135.654 74.9352 135.757 74.8141 135.86 74.694L135.876 74.6752L144.341 81.6996C144.289 81.7627 144.236 81.8253 144.182 81.8875C144.128 81.9505 144.074 82.014 144.021 82.0779ZM145.468 80.0929L135.978 74.5306C135.985 74.5186 135.992 74.5066 135.998 74.4946L145.708 79.6639C145.631 79.8082 145.551 79.9512 145.468 80.0929ZM146.486 77.8614L136.063 74.3441C136.068 74.331 136.072 74.3176 136.076 74.3042L146.633 77.3929C146.587 77.5498 146.538 77.706 146.486 77.8614ZM147.029 75.4703L136.111 74.1343C136.112 74.1196 136.114 74.1048 136.115 74.0899L147.079 74.9815C147.066 75.1447 147.049 75.3076 147.029 75.4703ZM147.079 73.0185C147.066 72.8553 147.049 72.6924 147.029 72.5298L136.111 73.8657C136.112 73.8804 136.114 73.8952 136.115 73.9101L147.079 73.0185ZM146.633 70.6072L136.076 73.6959C136.072 73.6824 136.068 73.6691 136.063 73.6559L146.486 70.1386C146.538 70.294 146.587 70.4502 146.633 70.6072ZM145.708 68.3361L135.998 73.5054C135.992 73.4934 135.985 73.4814 135.978 73.4694L145.468 67.9072C145.551 68.0489 145.631 68.1919 145.708 68.3361ZM144.341 66.3004L135.876 73.3248L135.86 73.3061C135.757 73.1859 135.654 73.0648 135.553 72.9428L144.021 65.9222C144.074 65.9861 144.128 66.0495 144.182 66.1125C144.236 66.1747 144.289 66.2374 144.341 66.3004ZM142.881 64.2898L133.373 69.8215C133.213 69.5464 133.059 69.2684 132.911 68.9878L142.64 63.8541C142.717 64.0008 142.798 64.1461 142.881 64.2898ZM141.859 62.0225L131.418 65.4847C131.318 65.1831 131.224 64.8797 131.137 64.5746L141.712 61.5463C141.758 61.706 141.807 61.8647 141.859 62.0225ZM141.324 59.5936L130.395 60.8427C130.359 60.5274 130.329 60.2112 130.306 59.8944L141.277 59.0975C141.289 59.2632 141.305 59.4286 141.324 59.5936ZM141.297 57.1065L130.345 56.0865C130.374 55.7706 130.41 55.4549 130.453 55.1394L141.354 56.6115C141.332 56.7763 141.313 56.9414 141.297 57.1065ZM141.782 54.6672L131.272 51.4217C131.319 51.2702 131.367 51.1191 131.417 50.9683L131.425 50.9449L141.934 54.1952C141.909 54.2734 141.884 54.3516 141.858 54.4297C141.832 54.5087 141.807 54.5879 141.782 54.6672ZM142.36 52.2795L131.464 50.7723C131.465 50.7586 131.467 50.7449 131.468 50.7314L142.417 51.7915C142.401 51.9541 142.382 52.1168 142.36 52.2795ZM142.446 49.8286L131.471 50.5675C131.47 50.5608 131.47 50.5541 131.469 50.5474C131.469 50.5402 131.468 50.533 131.467 50.5258L142.403 49.3392C142.42 49.5018 142.435 49.6649 142.446 49.8286ZM142.033 47.4114L131.434 50.3556C131.43 50.3413 131.426 50.327 131.421 50.3128L141.892 46.9409C141.942 47.0967 141.989 47.2536 142.033 47.4114ZM141.141 45.1272L131.353 50.1467C131.346 50.1334 131.339 50.1203 131.331 50.1074L140.908 44.6948C140.988 44.8374 141.066 44.9816 141.141 45.1272ZM139.806 43.0701L131.234 49.9638C131.225 49.9529 131.216 49.9422 131.207 49.9317L139.49 42.6936C139.598 42.8171 139.704 42.9426 139.806 43.0701ZM138.082 41.3259C137.956 41.222 137.827 41.1205 137.697 41.0214L131.057 49.7919C131.068 49.8003 131.079 49.8088 131.09 49.8175L138.082 41.3259ZM136.041 39.9682L130.908 49.6973L130.886 49.6861C130.744 49.6148 130.603 49.5421 130.463 49.4681L135.6 39.7413C135.673 39.78 135.747 39.8181 135.822 39.8555C135.895 39.8924 135.968 39.9299 136.041 39.9682ZM133.922 38.6694L127.255 47.4186C127.002 47.2256 126.753 47.0278 126.509 46.8252L133.532 38.3594C133.66 38.4652 133.79 38.5686 133.922 38.6694ZM132.11 36.9658L123.789 44.1601C123.581 43.9197 123.378 43.6752 123.181 43.4268L131.792 36.5822C131.895 36.7122 132.001 36.8401 132.11 36.9658ZM130.686 34.9268L121.067 40.2631C120.913 39.9856 120.765 39.7048 120.622 39.4208L130.453 34.4861C130.528 34.6346 130.605 34.7816 130.686 34.9268ZM129.71 32.639L119.201 35.8881C119.107 35.5849 119.019 35.2794 118.938 34.9717L129.573 32.1601C129.615 32.3209 129.661 32.4805 129.71 32.639ZM129.224 30.1998L118.272 31.2234C118.257 31.0656 118.244 30.9075 118.233 30.7491L118.231 30.7245L129.184 29.7058C129.191 29.7874 129.198 29.8692 129.204 29.9513C129.21 30.0343 129.217 30.1171 129.224 30.1998ZM128.844 27.7729L118.201 30.5503C118.197 30.5369 118.193 30.5236 118.189 30.5106L128.71 27.3001C128.758 27.4563 128.803 27.614 128.844 27.7729ZM127.986 25.4756L118.129 30.3583C118.123 30.3458 118.116 30.3335 118.109 30.3211L127.759 25.0399C127.837 25.1834 127.913 25.3286 127.986 25.4756ZM126.679 23.4005L118.014 30.1764C118.005 30.1647 117.995 30.1532 117.986 30.1418L126.369 23.0197C126.475 23.1445 126.578 23.2714 126.679 23.4005ZM124.981 21.6316L117.859 30.0147C117.852 30.0092 117.846 30.0039 117.839 29.9986C117.834 29.9945 117.829 29.9905 117.824 29.9865L124.6 21.3212C124.729 21.4221 124.856 21.5256 124.981 21.6316ZM122.961 20.2417L117.679 29.891C117.673 29.8873 117.666 29.8837 117.659 29.8801C117.653 29.8772 117.648 29.8744 117.642 29.8717L122.525 20.0147C122.672 20.0875 122.817 20.1632 122.961 20.2417ZM120.7 19.2901L117.49 29.8111C117.477 29.8071 117.464 29.8034 117.45 29.7999L120.228 19.1563C120.386 19.1978 120.544 19.2424 120.7 19.2901ZM118.295 18.817L117.276 29.7697L117.251 29.7676C117.093 29.7561 116.935 29.743 116.777 29.7282L117.801 18.776C117.883 18.7837 117.966 18.7906 118.049 18.7966C118.131 18.8026 118.213 18.8094 118.295 18.817ZM115.84 18.4278L113.029 29.0624C112.721 28.9811 112.416 28.8935 112.112 28.7997L115.361 18.2905C115.52 18.3395 115.68 18.3853 115.84 18.4278ZM113.514 17.5473L108.58 27.3783C108.296 27.2358 108.015 27.0875 107.737 26.9335L113.074 17.3146C113.219 17.3951 113.366 17.4727 113.514 17.5473ZM111.418 16.2085L104.574 24.8196C104.325 24.6221 104.081 24.4194 103.84 24.2116L111.035 15.8904C111.16 15.9991 111.288 16.1051 111.418 16.2085ZM109.641 14.4683L101.175 21.4918C100.973 21.2476 100.775 20.9988 100.582 20.7457L109.331 14.0784C109.432 14.2107 109.535 14.3407 109.641 14.4683ZM108.259 12.4005L98.5323 17.5375C98.4583 17.3974 98.3857 17.2563 98.3144 17.1144L98.3031 17.0925L108.032 11.9599C108.071 12.0323 108.108 12.1053 108.145 12.1788C108.182 12.2532 108.22 12.3271 108.259 12.4005ZM106.979 10.304L98.2085 16.943C98.2002 16.932 98.1916 16.9212 98.183 16.9107L106.675 9.91831C106.778 10.0444 106.88 10.173 106.979 10.304ZM105.307 8.51001L98.0688 16.7931C98.0583 16.784 98.0476 16.775 98.0367 16.7662L104.93 8.19439C105.058 8.29688 105.183 8.4021 105.307 8.51001ZM103.306 7.09282L97.8931 16.669C97.8865 16.6653 97.8798 16.6616 97.8731 16.658C97.8667 16.6546 97.8603 16.6512 97.8538 16.6479L102.873 6.85983C103.019 6.93453 103.163 7.01221 103.306 7.09282ZM101.06 6.10861L97.6877 16.579C97.6734 16.5745 97.6592 16.5702 97.6449 16.5662L100.589 5.96754C100.747 6.01139 100.904 6.05843 101.06 6.10861ZM98.6613 5.59762L97.4747 16.5334C97.4607 16.5319 97.4468 16.5307 97.4329 16.5298L98.1719 5.55462C98.3355 5.56563 98.4987 5.57998 98.6613 5.59762ZM96.209 5.58333L97.2691 16.5321C97.2555 16.5334 97.2419 16.535 97.2281 16.5369L95.7209 5.64068C95.8836 5.61818 96.0463 5.59907 96.209 5.58333ZM93.8053 6.06686L97.0556 16.5757L97.0321 16.5832C96.8813 16.6332 96.7302 16.6816 96.5788 16.7283L93.3333 6.21803C93.4126 6.19353 93.4918 6.16819 93.5708 6.142C93.6488 6.11611 93.727 6.09107 93.8053 6.06686ZM91.389 6.64654L92.861 17.5476C92.5456 17.5902 92.2298 17.6262 91.9139 17.6556L90.894 6.70298C91.0591 6.6876 91.2241 6.6688 91.389 6.64654ZM88.903 6.72318L88.1061 17.6943C87.7892 17.6713 87.473 17.6417 87.1577 17.6057L88.4069 6.67683C88.5718 6.69568 88.7372 6.71114 88.903 6.72318ZM86.4541 6.2884L83.4259 16.8634C83.1208 16.776 82.8174 16.6823 82.5158 16.5823L85.978 6.14136C86.1357 6.19367 86.2945 6.24269 86.4541 6.2884ZM84.1463 5.36079L79.0126 15.0894C78.732 14.9413 78.4541 14.7872 78.179 14.6272L83.7106 5.11922C83.8544 5.20287 83.9997 5.2834 84.1463 5.36079ZM82.0783 3.97927L75.0577 12.4475C74.9357 12.3464 74.8146 12.2438 74.6944 12.14L74.6756 12.1241L81.7 3.65898C81.7631 3.7113 81.8257 3.76435 81.888 3.81815C81.9509 3.87259 82.0144 3.92629 82.0783 3.97927ZM80.0933 2.53215L74.531 12.0222C74.5191 12.0152 74.5071 12.0085 74.495 12.0021L79.6644 2.2924C79.8086 2.36918 79.9516 2.4491 80.0933 2.53215ZM77.8618 1.5147L74.3446 11.9372C74.3314 11.9328 74.3181 11.9286 74.3046 11.9246L77.3933 1.36716C77.5502 1.41308 77.7065 1.46226 77.8618 1.5147ZM75.4707 0.971197L74.1348 11.8898C74.12 11.888 74.1052 11.8865 74.0904 11.8853L74.982 0.921448C75.1451 0.934717 75.3081 0.9513 75.4707 0.971197ZM73.0189 0.921448L73.9105 11.8853C73.8956 11.8865 73.8808 11.888 73.8661 11.8898L72.5302 0.971197C72.6928 0.951299 72.8558 0.934716 73.0189 0.921448ZM70.6076 1.36716L73.6963 11.9246C73.6828 11.9286 73.6695 11.9328 73.6563 11.9372L70.139 1.5147C70.2944 1.46226 70.4506 1.41308 70.6076 1.36716ZM68.3365 2.2924L73.5058 12.0021C73.4938 12.0085 73.4818 12.0152 73.4698 12.0222L67.9076 2.53215C68.0493 2.4491 68.1923 2.36918 68.3365 2.2924ZM66.3008 3.65898L73.3253 12.1241L73.3065 12.14C73.1863 12.2438 73.0652 12.3464 72.9432 12.4475L65.9226 3.97927C65.9865 3.92629 66.0499 3.87258 66.1129 3.81815C66.1752 3.76435 66.2378 3.7113 66.3008 3.65898ZM64.2903 5.11922L69.8219 14.6271C69.5468 14.7872 69.2689 14.9413 68.9883 15.0894L63.8546 5.36079C64.0012 5.2834 64.1465 5.20287 64.2903 5.11922ZM62.0229 6.14136L65.4851 16.5823C65.1835 16.6823 64.8801 16.776 64.575 16.8634L61.5468 6.2884C61.7064 6.24269 61.8651 6.19367 62.0229 6.14136ZM59.594 6.67683L60.8431 17.6057C60.5279 17.6417 60.2117 17.6713 59.8948 17.6943L59.0979 6.72318C59.2636 6.71114 59.4291 6.69568 59.594 6.67683ZM57.1069 6.70298L56.087 17.6556C55.7711 17.6262 55.4553 17.5902 55.1399 17.5476L56.6119 6.64654C56.7768 6.6688 56.9418 6.6876 57.1069 6.70298Z" fill="#89B1FF"/>
</svg>