<svg xmlns="http://www.w3.org/2000/svg" width="94" height="42" viewBox="0 0 94 42" fill="none">
  <path d="M27.9182 25.9926H21.384V25.0049C22.9036 24.7769 23.5494 24.2071 24.8031 22.6115L28.45 18.0528L24.1192 11.2528C23.5114 10.3031 22.9796 9.42933 21.6879 9.12541V8.1377H30.5014V9.12541C29.5137 9.12541 28.8299 9.42933 28.8299 9.99916C28.8299 10.607 29.2478 11.0249 29.6277 11.6327L31.3752 14.3679L32.8188 12.5444C33.3886 11.8226 34.1484 10.9109 34.1484 10.2271C34.1484 9.42933 33.6165 9.12541 32.4009 9.12541V8.1377H39.011V9.12541C37.4914 9.27737 36.5037 10.3411 34.8322 12.5444L32.2869 15.9255L37.0355 23.2574C38.0233 24.7769 38.6311 25.0049 39.4668 25.0049V25.9926H30.3495V25.0049C31.4891 24.9669 32.1729 24.7009 32.1729 24.2831C32.1729 23.9412 31.831 23.4473 31.1852 22.4216L29.3238 19.5344L27.8042 21.5099C26.7405 22.9155 26.0947 23.6752 26.0947 24.2451C26.0947 24.7769 26.9304 25.0049 27.9182 25.0049V25.9926Z" fill="white"/>
  <path d="M93.4499 17.0019C93.4499 22.3537 89.9961 26.246 84.9657 26.246C79.9352 26.246 76.4814 22.3537 76.4814 17.0019C76.4814 11.6501 79.9352 7.75793 84.9657 7.75793C89.9961 7.75793 93.4499 11.6501 93.4499 17.0019ZM88.7198 17.0019C88.7198 11.5753 87.6311 9.25494 84.9657 9.25494C82.3003 9.25494 81.2116 11.5753 81.2116 17.0019C81.2116 22.4286 82.3003 24.7489 84.9657 24.7489C87.6311 24.7489 88.7198 22.4286 88.7198 17.0019Z" fill="white"/>
  <path d="M8.53402 13.4562V21.8898C8.53402 24.587 9.25496 24.8909 12.3285 25.0049V25.9926H0.110352V25.0049C2.65263 24.8909 3.37357 24.587 3.37357 21.8898V4.26286C3.37357 1.56563 2.65263 1.26172 0.18624 1.14775V0.160034H21.2325L21.3842 5.8584H20.3218C19.4111 2.97123 18.4246 2.05949 13.378 2.05949H9.97591C8.79963 2.05949 8.53402 2.32541 8.53402 3.38911V11.5568H12.4293C16.4515 11.5568 17.3242 10.835 17.8175 8.13774H18.804V17.2551H17.8175C17.2862 14.216 15.7685 13.4562 12.4293 13.4562H8.53402Z" fill="white"/>
  <path fill-rule="evenodd" clip-rule="evenodd" d="M51.047 0.160034H40.885V1.22902C43.254 1.42161 44.0583 2.53962 44.0583 4.74324V20.9928C44.0583 23.265 43.3421 24.8589 40.885 25.0484V25.9926H52.2181V25.0387C49.958 24.9268 48.6671 23.6305 48.6671 21.3715V14.9987C52.398 15.2633 56.2995 15.3127 59.2316 12.6772C62.0037 10.1982 62.469 5.15156 59.4884 2.63571C57.6994 1.12099 54.8822 0.160034 51.047 0.160034ZM48.6671 3.30388C48.6671 2.54879 48.8419 2.31906 49.6115 2.31906C52.1614 2.31906 53.908 2.69892 55.0151 3.52282C57.3145 5.23394 57.1758 9.56585 55.1124 11.4009C53.2481 13.0589 51.0347 13.2948 48.6671 13.1066V3.30388Z" fill="white"/>
  <path fill-rule="evenodd" clip-rule="evenodd" d="M69.1803 10.5312V7.50452C67.191 8.28902 65.2051 9.08621 63.1685 9.74207L62.7354 10.9108C64.5365 10.5249 65.2295 10.963 65.2295 12.9242V22.1936C65.2295 24.04 64.3212 25.0301 62.2922 25.0301V25.9925H72.4094V25.0301C70.4845 24.9452 69.1803 24.16 69.1803 22.1936C69.1803 22.1936 69.1803 16.0521 69.1803 14.2792C69.1803 12.5064 70.3251 10.9108 71.4597 10.9108C72.3572 10.9108 72.9174 12.2404 73.967 12.2404C75.1514 12.2404 75.8284 11.2635 75.8284 10.151C75.8284 8.71419 74.7718 7.75771 73.3591 7.75771C71.4813 7.75771 70.2294 9.13735 69.1803 10.5312Z" fill="white"/>
  <path d="M0.081543 33.7373V32.5064H6.86195V33.7373H4.19012V41.11H2.74917V33.7373H0.081543Z" fill="white"/>
  <path d="M7.66745 41.11V34.6573H9.03697V35.7117H9.10419C9.22181 35.3504 9.42626 35.069 9.71753 34.8673C10.0088 34.6629 10.3407 34.5607 10.7132 34.5607C10.7944 34.5607 10.8882 34.5649 10.9946 34.5733C11.1011 34.5789 11.1879 34.5887 11.2551 34.6027V35.9176C11.1963 35.9008 11.0997 35.8826 10.9652 35.863C10.8308 35.8434 10.6992 35.8336 10.5703 35.8336C10.2847 35.8336 10.0298 35.8952 9.80575 36.0184C9.5817 36.1388 9.40386 36.3069 9.27223 36.5225C9.1434 36.7354 9.07898 36.9804 9.07898 37.2577V41.11H7.66745Z" fill="white"/>
  <path d="M14.2504 41.2444C13.8415 41.2444 13.4732 41.1702 13.1455 41.0218C12.8178 40.8733 12.5588 40.6549 12.3683 40.3664C12.1779 40.0752 12.0826 39.7181 12.0826 39.2952C12.0826 38.9311 12.1513 38.63 12.2885 38.392C12.4257 38.1539 12.612 37.9649 12.8472 37.8248C13.0825 37.6848 13.3457 37.5798 13.637 37.5097C13.9311 37.4369 14.2336 37.3823 14.5444 37.3459C14.9253 37.3039 15.2334 37.2675 15.4687 37.2367C15.7067 37.2059 15.8803 37.1569 15.9896 37.0896C16.0988 37.0224 16.1534 36.9146 16.1534 36.7662V36.7368C16.1534 36.4007 16.0554 36.1402 15.8593 35.9554C15.6661 35.7705 15.3818 35.6781 15.0065 35.6781C14.6116 35.6781 14.3008 35.7649 14.0739 35.9386C13.8471 36.1094 13.6916 36.3055 13.6076 36.5267L12.2885 36.2999C12.4117 35.9078 12.605 35.5843 12.8682 35.3294C13.1315 35.0718 13.4452 34.8813 13.8093 34.7581C14.1733 34.6349 14.5682 34.5733 14.9939 34.5733C15.2824 34.5733 15.5765 34.6069 15.8761 34.6741C16.1786 34.7413 16.4573 34.8575 16.7121 35.0228C16.967 35.188 17.1729 35.4149 17.3297 35.7033C17.4865 35.9918 17.5649 36.3587 17.5649 36.804V41.11H16.1996V40.2236H16.1492C16.0624 40.3972 15.9364 40.5625 15.7711 40.7193C15.6059 40.8733 15.3972 40.9994 15.1452 41.0974C14.8931 41.1954 14.5948 41.2444 14.2504 41.2444ZM14.5948 40.1732C14.9197 40.1732 15.1984 40.1088 15.4308 39.9799C15.6633 39.8511 15.8425 39.6831 15.9686 39.4758C16.0946 39.2658 16.1576 39.0375 16.1576 38.7911V38.0013C16.11 38.0433 16.0274 38.0825 15.9098 38.1189C15.7921 38.1525 15.6577 38.1833 15.5065 38.2113C15.358 38.2365 15.211 38.2589 15.0654 38.2785C14.9197 38.2981 14.7965 38.3149 14.6957 38.3289C14.4632 38.3598 14.2532 38.4102 14.0655 38.4802C13.8779 38.5502 13.728 38.651 13.616 38.7826C13.5068 38.9115 13.4522 39.0795 13.4522 39.2868C13.4522 39.578 13.56 39.7993 13.7757 39.9505C13.9913 40.099 14.2644 40.1732 14.5948 40.1732Z" fill="white"/>
  <path d="M21.7354 41.2276C21.2229 41.2276 20.765 41.096 20.3617 40.8327C19.9584 40.5695 19.6405 40.19 19.4081 39.6943C19.1756 39.1985 19.0594 38.5992 19.0594 37.8962C19.0594 37.1849 19.177 36.5827 19.4123 36.0898C19.6503 35.5941 19.971 35.2174 20.3743 34.9597C20.7804 34.7021 21.2369 34.5733 21.7438 34.5733C22.1303 34.5733 22.4454 34.6391 22.6891 34.7707C22.9327 34.8995 23.1246 35.0536 23.2646 35.2328C23.4074 35.4093 23.5167 35.5703 23.5923 35.7159H23.6595V32.5064H25.0752V41.11H23.6889V40.0976H23.5923C23.5139 40.246 23.4018 40.4084 23.2562 40.5849C23.1134 40.7613 22.9187 40.9126 22.6723 41.0386C22.4258 41.1646 22.1135 41.2276 21.7354 41.2276ZM22.1009 40.0556C22.4398 40.0556 22.7269 39.9645 22.9621 39.7825C23.1974 39.6004 23.3766 39.347 23.4999 39.0221C23.6259 38.6944 23.6889 38.3149 23.6889 37.8836C23.6889 37.4523 23.6273 37.077 23.5041 36.7578C23.3836 36.4385 23.2044 36.1906 22.9663 36.0142C22.7311 35.835 22.4426 35.7453 22.1009 35.7453C21.7452 35.7453 21.4484 35.8378 21.2103 36.0226C20.9751 36.2074 20.7972 36.4609 20.6768 36.783C20.5564 37.1051 20.4961 37.4719 20.4961 37.8836C20.4961 38.2981 20.5564 38.6692 20.6768 38.9969C20.8 39.3246 20.9807 39.5836 21.2187 39.7741C21.4568 39.9617 21.7508 40.0556 22.1009 40.0556Z" fill="white"/>
  <path d="M29.7772 41.2402C29.133 41.2402 28.5785 41.1044 28.1136 40.8327C27.6515 40.5583 27.2944 40.1732 27.0423 39.6775C26.793 39.1789 26.6684 38.5936 26.6684 37.9214C26.6684 37.2605 26.793 36.678 27.0423 36.1738C27.2944 35.6697 27.6458 35.2776 28.0968 34.9976C28.5505 34.7147 29.0826 34.5733 29.6931 34.5733C30.0768 34.5733 30.4423 34.6363 30.7896 34.7623C31.1397 34.8855 31.4506 35.0788 31.7222 35.342C31.9967 35.6025 32.2123 35.9386 32.3692 36.3503C32.526 36.762 32.6044 37.2535 32.6044 37.8248V38.2827H27.3784V37.2913H31.2391C31.2363 36.986 31.1719 36.7144 31.0459 36.4763C30.9198 36.2354 30.742 36.0464 30.5123 35.9092C30.2827 35.7691 30.0152 35.6991 29.7099 35.6991C29.3795 35.6991 29.091 35.7789 28.8445 35.9386C28.6009 36.0954 28.4104 36.3027 28.2732 36.5603C28.1388 36.8152 28.0716 37.0939 28.0716 37.3963V38.2239C28.0716 38.6216 28.143 38.9619 28.2858 39.2448C28.4286 39.5276 28.6289 39.7433 28.8865 39.8917C29.1442 40.0401 29.4467 40.1144 29.794 40.1144C30.0208 40.1144 30.2281 40.0822 30.4157 40.0177C30.6033 39.9505 30.7644 39.8525 30.8988 39.7237C31.0332 39.5948 31.1369 39.4352 31.2097 39.2448L32.5372 39.4254C32.4448 39.7895 32.2739 40.1088 32.0247 40.3832C31.7754 40.6549 31.4604 40.8663 31.0795 41.0176C30.6986 41.166 30.2645 41.2402 29.7772 41.2402Z" fill="white"/>
  <path d="M37.3893 41.11V32.5064H38.8428V39.8791H42.6783V41.11H37.3893Z" fill="white"/>
  <path d="M44.1759 41.11V34.6573H45.5875V41.11H44.1759ZM44.8901 33.712C44.6576 33.712 44.4574 33.6336 44.2894 33.4768C44.1241 33.32 44.0415 33.1323 44.0415 32.9139C44.0415 32.6954 44.1241 32.5092 44.2894 32.3551C44.4574 32.1983 44.6562 32.1199 44.8859 32.1199C45.1184 32.1199 45.3172 32.1983 45.4824 32.3551C45.6505 32.5092 45.7345 32.6954 45.7345 32.9139C45.7345 33.1323 45.6505 33.32 45.4824 33.4768C45.3172 33.6336 45.1198 33.712 44.8901 33.712Z" fill="white"/>
  <path d="M48.6741 39.0179L48.6657 37.3081H48.901L51.3207 34.6573H52.9885L50.1024 37.8038H49.8378L48.6741 39.0179ZM47.3802 41.11V32.5064H48.7917V41.11H47.3802ZM51.4426 41.11L49.2538 38.1189L50.2159 37.1275L53.1482 41.11H51.4426Z" fill="white"/>
  <path d="M56.7851 41.2402C56.141 41.2402 55.5865 41.1044 55.1215 40.8327C54.6594 40.5583 54.3023 40.1732 54.0503 39.6775C53.801 39.1789 53.6764 38.5936 53.6764 37.9214C53.6764 37.2605 53.801 36.678 54.0503 36.1738C54.3023 35.6697 54.6538 35.2776 55.1047 34.9976C55.5584 34.7147 56.0906 34.5733 56.7011 34.5733C57.0848 34.5733 57.4503 34.6363 57.7976 34.7623C58.1477 34.8855 58.4585 35.0788 58.7302 35.342C59.0047 35.6025 59.2203 35.9386 59.3771 36.3503C59.534 36.762 59.6124 37.2535 59.6124 37.8248V38.2827H54.3864V37.2913H58.2471C58.2443 36.986 58.1799 36.7144 58.0538 36.4763C57.9278 36.2354 57.75 36.0464 57.5203 35.9092C57.2907 35.7691 57.0232 35.6991 56.7179 35.6991C56.3874 35.6991 56.099 35.7789 55.8525 35.9386C55.6089 36.0954 55.4184 36.3027 55.2812 36.5603C55.1467 36.8152 55.0795 37.0939 55.0795 37.3963V38.2239C55.0795 38.6216 55.151 38.9619 55.2938 39.2448C55.4366 39.5276 55.6369 39.7433 55.8945 39.8917C56.1522 40.0401 56.4547 40.1144 56.8019 40.1144C57.0288 40.1144 57.236 40.0822 57.4237 40.0177C57.6113 39.9505 57.7724 39.8525 57.9068 39.7237C58.0412 39.5948 58.1449 39.4352 58.2177 39.2448L59.5452 39.4254C59.4528 39.7895 59.2819 40.1088 59.0327 40.3832C58.7834 40.6549 58.4683 40.8663 58.0874 41.0176C57.7066 41.166 57.2724 41.2402 56.7851 41.2402Z" fill="white"/>
  <path d="M66.1827 41.2444C65.7738 41.2444 65.4055 41.1702 65.0778 41.0218C64.7501 40.8733 64.4911 40.6549 64.3006 40.3664C64.1102 40.0752 64.015 39.7181 64.015 39.2952C64.015 38.9311 64.0836 38.63 64.2208 38.392C64.358 38.1539 64.5443 37.9649 64.7795 37.8248C65.0148 37.6848 65.2781 37.5798 65.5693 37.5097C65.8634 37.4369 66.1659 37.3823 66.4767 37.3459C66.8576 37.3039 67.1657 37.2675 67.401 37.2367C67.639 37.2059 67.8127 37.1569 67.9219 37.0896C68.0311 37.0224 68.0857 36.9146 68.0857 36.7662V36.7368C68.0857 36.4007 67.9877 36.1402 67.7917 35.9554C67.5984 35.7705 67.3141 35.6781 66.9389 35.6781C66.544 35.6781 66.2331 35.7649 66.0062 35.9386C65.7794 36.1094 65.6239 36.3055 65.5399 36.5267L64.2208 36.2999C64.344 35.9078 64.5373 35.5843 64.8006 35.3294C65.0638 35.0718 65.3775 34.8813 65.7416 34.7581C66.1057 34.6349 66.5006 34.5733 66.9263 34.5733C67.2147 34.5733 67.5088 34.6069 67.8085 34.6741C68.1109 34.7413 68.3896 34.8575 68.6445 35.0228C68.8993 35.188 69.1052 35.4149 69.262 35.7033C69.4188 35.9918 69.4973 36.3587 69.4973 36.804V41.11H68.1319V40.2236H68.0815C67.9947 40.3972 67.8687 40.5625 67.7034 40.7193C67.5382 40.8733 67.3296 40.9994 67.0775 41.0974C66.8254 41.1954 66.5272 41.2444 66.1827 41.2444ZM66.5272 40.1732C66.852 40.1732 67.1307 40.1088 67.3632 39.9799C67.5956 39.8511 67.7749 39.6831 67.9009 39.4758C68.0269 39.2658 68.0899 39.0375 68.0899 38.7911V38.0013C68.0423 38.0433 67.9597 38.0825 67.8421 38.1189C67.7244 38.1525 67.59 38.1833 67.4388 38.2113C67.2903 38.2365 67.1433 38.2589 66.9977 38.2785C66.852 38.2981 66.7288 38.3149 66.628 38.3289C66.3955 38.3598 66.1855 38.4102 65.9978 38.4802C65.8102 38.5502 65.6604 38.651 65.5483 38.7826C65.4391 38.9115 65.3845 39.0795 65.3845 39.2868C65.3845 39.578 65.4923 39.7993 65.708 39.9505C65.9236 40.099 66.1967 40.1732 66.5272 40.1732Z" fill="white"/>
  <path d="M74.5373 41.11V32.5064H77.7007C78.3644 32.5064 78.919 32.6296 79.3643 32.8761C79.8096 33.1197 80.1456 33.4544 80.3725 33.8801C80.5993 34.3058 80.7128 34.7889 80.7128 35.3294C80.7128 35.8728 80.598 36.3573 80.3683 36.783C80.1414 37.2087 79.804 37.5448 79.3559 37.7912C78.9078 38.0349 78.3518 38.1567 77.6881 38.1567H75.5582V36.9468H77.5116C77.9149 36.9468 78.2426 36.8768 78.4947 36.7368C78.7495 36.5967 78.9372 36.4063 79.0576 36.1654C79.178 35.9218 79.2382 35.6431 79.2382 35.3294C79.2382 35.0158 79.178 34.7385 79.0576 34.4976C78.9372 34.2568 78.7495 34.0691 78.4947 33.9347C78.2398 33.7975 77.9093 33.7289 77.5032 33.7289H75.9909V41.11H74.5373Z" fill="white"/>
  <path d="M82.2251 41.11V34.6573H83.5946V35.7117H83.6618C83.7795 35.3504 83.9839 35.069 84.2752 34.8673C84.5664 34.6629 84.8983 34.5607 85.2708 34.5607C85.352 34.5607 85.4459 34.5649 85.5523 34.5733C85.6587 34.5789 85.7455 34.5887 85.8127 34.6027V35.9176C85.7539 35.9008 85.6573 35.8826 85.5229 35.863C85.3884 35.8434 85.2568 35.8336 85.128 35.8336C84.8423 35.8336 84.5875 35.8952 84.3634 36.0184C84.1394 36.1388 83.9615 36.3069 83.8299 36.5225C83.701 36.7354 83.6366 36.9804 83.6366 37.2577V41.11H82.2251Z" fill="white"/>
  <path d="M89.5579 41.2402C88.9361 41.2402 88.397 41.1016 87.9405 40.8243C87.484 40.5443 87.1297 40.155 86.8777 39.6565C86.6256 39.1579 86.4996 38.5768 86.4996 37.913C86.4996 37.2437 86.6256 36.6583 86.8777 36.157C87.1297 35.6557 87.484 35.2664 87.9405 34.9892C88.397 34.7119 88.9361 34.5733 89.5579 34.5733C90.1768 34.5733 90.7146 34.7119 91.1711 34.9892C91.6304 35.2664 91.9861 35.6557 92.2381 36.157C92.4902 36.6583 92.6162 37.2437 92.6162 37.913C92.6162 38.5768 92.4902 39.1579 92.2381 39.6565C91.9861 40.155 91.6304 40.5443 91.1711 40.8243C90.7146 41.1016 90.1768 41.2402 89.5579 41.2402ZM89.5621 40.085C89.9262 40.085 90.2286 39.9869 90.4695 39.7909C90.7104 39.5948 90.8896 39.333 91.0072 39.0053C91.1249 38.6748 91.1837 38.3079 91.1837 37.9046C91.1837 37.5041 91.1249 37.1387 91.0072 36.8082C90.8896 36.4777 90.7104 36.213 90.4695 36.0142C90.2286 35.8153 89.9262 35.7159 89.5621 35.7159C89.1952 35.7159 88.8899 35.8153 88.6463 36.0142C88.4054 36.213 88.2248 36.4777 88.1043 36.8082C87.9867 37.1387 87.9279 37.5041 87.9279 37.9046C87.9279 38.3079 87.9867 38.6748 88.1043 39.0053C88.2248 39.333 88.4054 39.5948 88.6463 39.7909C88.8899 39.9869 89.1952 40.085 89.5621 40.085Z" fill="white"/>
</svg>