<svg xmlns="http://www.w3.org/2000/svg" width="62" height="55" viewBox="0 0 62 55" fill="none">
<path d="M45.8328 18.8556C45.8328 26.706 39.4688 33.0699 31.6185 33.0699C23.7681 33.0699 17.4042 26.706 17.4042 18.8556C17.4042 11.0053 20.015 4.64123 31.6185 4.6413C43.222 4.64137 45.8328 11.0053 45.8328 18.8556Z" fill="#00C11F" fill-opacity="0.8"/>
<ellipse cx="31.6193" cy="7.54229" rx="6.67202" ry="7.54229" fill="#00C11F"/>
<path d="M31.4562 45.071C24.6576 41.1458 22.3282 32.4525 26.2534 25.6539C30.1786 18.8553 38.8719 16.5259 45.6705 20.4511C52.4691 24.3762 56.6751 29.8193 50.8733 39.8682C45.0715 49.9171 38.2548 48.9962 31.4562 45.071Z" fill="#0056FF" fill-opacity="0.8"/>
<ellipse cx="48.3609" cy="38.4179" rx="6.67202" ry="7.54229" transform="rotate(120 48.3609 38.4179)" fill="#0056FF"/>
<path d="M16.3303 20.7412C23.1289 16.816 31.8222 19.1454 35.7474 25.944C39.6725 32.7426 37.3432 41.4359 30.5446 45.3611C23.746 49.2863 16.9292 50.2073 11.1275 40.1583C5.32577 30.1093 9.53167 24.6664 16.3303 20.7412Z" fill="#F4E951" fill-opacity="0.8"/>
<ellipse cx="13.6392" cy="38.7079" rx="6.67202" ry="7.54229" transform="rotate(-120 13.6392 38.7079)" fill="#F4E951"/>
<circle cx="31.475" cy="27.7034" r="11.1684" fill="white"/>
<path d="M30.1122 22.917L27.8477 28.7188H34.2296" stroke="#FF7F24" stroke-width="2" stroke-miterlimit="10" stroke-linecap="round" stroke-linejoin="round"/>
<path d="M32.4902 25.5276V32.1996" stroke="#FF7F24" stroke-width="2" stroke-miterlimit="10" stroke-linecap="round" stroke-linejoin="round"/>
</svg>