<svg xmlns="http://www.w3.org/2000/svg" width="50" height="50" viewBox="0 0 50 50" fill="none">
  <path d="M0 10.8333C0 4.85025 4.85025 0 10.8333 0H39.1667C45.1497 0 50 4.85025 50 10.8333V39.1667C50 45.1497 45.1497 50 39.1667 50H10.8333C4.85025 50 0 45.1497 0 39.1667V10.8333Z" fill="#F41112"/>
  <path d="M23.946 26.1275H27.3142C29.8693 26.1275 31.0308 26.7157 31.4373 29.0687H32.1922V22.0098H31.4373C31.0598 24.0981 30.392 24.6569 27.3142 24.6569H23.946V18.3334C23.946 17.5098 24.1492 17.304 25.0494 17.304H28.0401C31.9019 17.304 32.6568 18.0098 33.3537 20.2451H34.1667L34.0505 15.8334H17.5581V16.5981C19.4454 16.6863 19.9971 16.9216 19.9971 19.0098V32.6569C19.9971 34.7451 19.4454 34.9804 17.5 35.0687V35.8334H26.8496V35.0687C24.4977 34.9804 23.946 34.7451 23.946 32.6569V26.1275Z" fill="url(#paint0_linear_2587_9368)"/>
  <defs>
    <linearGradient id="paint0_linear_2587_9368" x1="25.8333" y1="15.8334" x2="25.8333" y2="35.8334" gradientUnits="userSpaceOnUse">
      <stop stop-color="white"/>
      <stop offset="1" stop-color="white"/>
    </linearGradient>
  </defs>
</svg>