<svg xmlns="http://www.w3.org/2000/svg" width="50" height="50" viewBox="0 0 50 50" fill="none">
<circle cx="25" cy="25" r="25" fill="#F4F7FA"/>
<mask id="mask0_2587_9411" style="mask-type:alpha" maskUnits="userSpaceOnUse" x="5" y="5" width="40" height="40">
<circle cx="25" cy="25" r="20" fill="#D9D9D9"/>
</mask>
<g mask="url(#mask0_2587_9411)">
<path d="M15.148 15.7896C7.80784 20.4082 5.90406 28.7793 5.86969 32.3876C4.73557 29.7072 2.18099 26.5951 5.14804 16.6144C6.282 12.8 10.7151 4.24326 21.6429 3.41852C32.5707 2.59378 40.612 9.3979 43.2924 16.6144C45.9728 23.8309 42.88 30.0165 38.1377 34.1402C33.3955 38.2639 24.8388 39.0886 20.612 35.2742C16.3852 31.4598 18.3439 24.0371 24.3233 20.5319C28.0727 18.334 33.258 18.5044 35.4573 18.9855L36.5913 13.5216C32.502 12.3532 22.4883 11.1711 15.148 15.7896Z" fill="#F41112"/>
</g>
</svg>