<svg xmlns="http://www.w3.org/2000/svg" width="90" height="26" viewBox="0 0 90 26" fill="none">
  <path fill-rule="evenodd" clip-rule="evenodd" d="M20 0.637329H0V1.58258C2.30367 1.68761 3.03665 2.00269 3.03665 4.41833V20.6976C3.03665 23.2183 2.30367 23.4283 0 23.5334V24.3736H11.2042V23.5334C8.37696 23.4283 7.74869 23.1133 7.74869 20.6976V12.9256H11.8325C14.8691 12.9256 16.3351 13.6608 16.8586 16.3915H17.801V7.98927H16.8586C16.4398 10.5099 15.6021 11.1401 11.8325 11.1401H7.74869V3.57811C7.74869 2.63286 7.95812 2.4228 9.10995 2.4228H12.6702C17.3822 2.4228 18.2199 3.26302 19.0576 5.88871H20V0.637329ZM35.6429 21.9105L30.9286 14.9496L33.5 11.7369C35.2143 9.70221 36.1786 8.63131 37.6786 8.52422V7.56041H31.0357V8.52422C32.2143 8.52422 32.75 8.84549 32.75 9.59512C32.75 10.2377 32 11.0944 31.3571 11.7369L29.8571 13.4504L28.1429 10.8802C27.7143 10.3448 27.3929 9.9164 27.3929 9.38094C27.3929 8.84549 28.0357 8.52422 29.1071 8.52422V7.56041H20.2143V8.52422C21.5 8.84549 22.0357 9.59512 22.6786 10.5589L27.0714 16.9844L23.4286 21.268C22.1429 22.7672 21.5 23.3027 20 23.5169V24.3736H26.5357V23.5169C25.6786 23.5169 24.7143 23.3027 24.7143 22.7672C24.7143 22.2519 25.3097 21.5382 26.3095 20.3398L26.4286 20.1971L27.9286 18.3765L29.75 21.0538C29.8361 21.1829 29.9165 21.3024 29.9911 21.4134C30.4732 22.1305 30.7143 22.489 30.7143 22.7672C30.7143 23.1956 30.0714 23.4098 28.8929 23.4098V24.2665H38V23.4098C37.25 23.624 36.6071 23.4098 35.6429 21.9105ZM39 0.637329H50.5825C57.2938 0.637329 59.8918 3.68313 60 7.56916C60 12.0854 56.6443 14.501 50.366 14.501H47.1186V20.6976C47.1186 23.1133 47.768 23.4283 50.366 23.5334V24.3736H39V23.5334C41.4897 23.4283 42.1392 23.2183 42.1392 20.6976V4.41833C42.1392 2.00269 41.4897 1.68761 39 1.58258V0.637329ZM47.0103 3.36805V13.1356C52.7474 13.1356 54.8041 10.825 54.8041 7.04402C54.8041 3.78816 52.3144 2.00269 49.067 2.00269C47.3351 2.00269 47.0103 2.52783 47.0103 3.36805ZM71.5883 7.56041C69.5143 7.56041 68.2044 9.13664 67.5495 10.6078H67.4403V8.08582C67.4403 7.77057 67.4403 7.56041 67.222 7.56041C67.0771 7.56041 66.2058 7.76608 65.1186 8.02273L65.1184 8.02276C63.7481 8.34624 62.0347 8.7507 61 8.92648V9.87222C62.6374 9.87222 63.074 10.1875 63.074 11.9739V21.5364C63.074 23.0075 62.4191 23.3228 61 23.5329V24.3736H70.0601V23.5329C68.4227 23.5329 67.4403 23.1126 67.4403 21.3262V12.0789C67.9861 11.2383 68.6411 10.7129 69.296 10.7129C69.6651 10.7129 69.9562 10.8631 70.1693 10.973C70.2083 10.9931 70.2446 11.0119 70.2784 11.0281C70.3423 11.0691 70.4102 11.122 70.4856 11.1807L70.4857 11.1808C70.7969 11.4232 71.2341 11.7637 72.0249 11.7637C73.1165 11.7637 73.9898 10.923 73.9898 9.87222C74.099 8.8214 73.3348 7.56041 71.5883 7.56041ZM74 16.4615C74 11.3139 77.2632 7.56041 82 7.56041C86.7368 7.56041 90 11.3139 90 16.4615C90 21.6091 86.7368 25.3626 82 25.3626C77.2632 25.3626 74 21.6091 74 16.4615ZM78.5263 16.4615C78.5263 21.6091 79.4737 23.8612 82 23.8612C84.5263 23.8612 85.5789 21.6091 85.4737 16.4615C85.4737 11.3139 84.5263 9.06179 82 9.06179C79.5789 9.06179 78.5263 11.3139 78.5263 16.4615Z" fill="#F41112"/>
</svg>