<svg xmlns="http://www.w3.org/2000/svg" width="63" height="55" viewBox="0 0 63 55" fill="none">
  <path d="M45.8347 18.8558C45.8347 26.7062 39.4708 33.0702 31.6204 33.0702C23.77 33.0702 17.406 26.7062 17.406 18.8558C17.406 11.0054 20.0168 4.64135 31.6204 4.64142C43.2239 4.64149 45.8347 11.0054 45.8347 18.8558Z" fill="#00C11F" fill-opacity="0.8"/>
  <ellipse cx="31.6213" cy="7.54232" rx="6.67205" ry="7.54232" fill="#00C11F"/>
  <path d="M31.4576 45.0699C24.6589 41.1447 22.3295 32.4513 26.2547 25.6527C30.1799 18.8541 38.8733 16.5247 45.6719 20.4499C52.4706 24.3751 56.6766 29.8181 50.8747 39.8671C45.0729 49.916 38.2562 48.9951 31.4576 45.0699Z" fill="#0056FF" fill-opacity="0.8"/>
  <ellipse cx="48.3621" cy="38.4168" rx="6.67205" ry="7.54232" transform="rotate(120 48.3621 38.4168)" fill="#0056FF"/>
  <path d="M16.33 20.7414C23.1286 16.8162 31.822 19.1456 35.7472 25.9442C39.6724 32.7428 37.343 41.4362 30.5444 45.3614C23.7458 49.2866 16.9289 50.2076 11.1272 40.1586C5.32547 30.1095 9.53138 24.6666 16.33 20.7414Z" fill="#F4E951" fill-opacity="0.8"/>
  <ellipse cx="13.6392" cy="38.7082" rx="6.67205" ry="7.54232" transform="rotate(-120 13.6392 38.7082)" fill="#F4E951"/>
  <circle cx="31.4751" cy="27.7035" r="11.1684" fill="white"/>
  <path d="M28.0801 30.1341C28.4798 30.5432 29.4498 31.5039 30.9611 31.5039C32.4724 31.5039 33.559 30.2766 33.559 28.8448C33.559 27.4129 32.36 26.1857 30.9611 26.1857C29.5622 26.1857 28.7649 26.8106 28.7649 26.8106L30.3074 22.6006H33.559" stroke="#FF7F24" stroke-width="2" stroke-miterlimit="10" stroke-linecap="round" stroke-linejoin="round"/>
</svg>