<svg xmlns="http://www.w3.org/2000/svg" version="1.1" xmlns:xlink="http://www.w3.org/1999/xlink" width="512" height="512" x="0" y="0" viewBox="0 0 171.991 171.991" style="enable-background:new 0 0 512 512" xml:space="preserve" class=""><g><path d="M85.996 171.989c-.497.006-.996-.004-1.495-.013-.148.007-.304.003-.444.01-.296 0-.59-.015-.882-.043-28.567-.926-53.651-15.85-68.608-38.112a2.508 2.508 0 0 1-.416-.624A85.504 85.504 0 0 1 .002 85.872c.033-22.97 9.009-44.552 25.274-60.77C40.902 9.521 61.462.682 83.42.04c.293-.026.628-.008.884-.04.151 0 .302.004.452.012.455-.007.907-.008 1.362-.009 22.97.032 44.552 9.008 60.771 25.273s25.133 37.873 25.1 60.843a85.516 85.516 0 0 1-14.261 47.256c-.115.257-.273.49-.464.692-15.472 22.868-41.651 37.92-71.268 37.922zm-2.917-5.117c.483.04.968.069 1.455.089 4.753-.512 9.843-8.871 13.709-22.584a141.167 141.167 0 0 0 2.328-9.605l-32.919-.047c.69 3.38 1.458 6.593 2.3 9.612 3.688 13.226 8.528 21.484 13.127 22.535zm22.592-32.093a148.157 148.157 0 0 1-2.615 10.954c-2.558 9.073-5.596 15.887-9.011 20.295 13.778-3.291 25.815-14.827 33.902-31.217l-22.276-.032zm-61.766-.089c7.113 14.521 17.33 25.252 29.125 29.84-2.972-4.405-5.629-10.724-7.895-18.851a147.863 147.863 0 0 1-2.583-10.962l-18.647-.027zm89.489.129c-5.463 11.753-12.836 21.39-21.441 27.904 15.499-5.258 28.908-15.089 38.609-27.88l-17.168-.024zm-112.104-.161c9.665 12.818 23.043 22.688 38.526 27.99-8.586-6.539-15.93-16.196-21.36-27.966l-17.166-.024zm114.261-4.836 18.513.026a80.49 80.49 0 0 0 12.883-41.237l-23.325-.033c-.311 15.027-3.217 29.097-8.071 41.244zm-28.949-.042 23.624.034c5.033-11.964 8.074-26.084 8.396-41.243l-28.545-.041c-.142 14.756-1.344 28.878-3.475 41.25zm-39.895-.056 34.822.05c2.176-12.285 3.404-26.427 3.547-41.251l-41.798-.06c.101 14.824 1.289 28.969 3.429 41.261zm-25.066-.036 19.994.028c-2.096-12.38-3.257-26.503-3.356-41.26l-24.917-.036c.279 15.16 3.28 29.289 8.279 41.268zm-23.838-.035 18.512.026c-4.819-12.161-7.685-26.238-7.953-41.267L5.037 88.38a80.471 80.471 0 0 0 12.766 41.273zM143.63 83.578l23.325.033c-.411-14.333-4.53-28.034-11.902-39.996l-18.809-.026c4.585 12.1 7.136 25.758 7.386 39.989zm-33.546-.048 28.545.041c-.261-14.336-2.944-28.028-7.752-39.99l-23.938-.034c1.963 12.069 3.049 25.732 3.145 39.983zm-46.798-.067 41.798.06c-.097-14.313-1.208-27.993-3.211-39.983l-35.261-.051c-2.038 11.984-3.188 25.661-3.326 39.974zM33.37 83.42l24.916.036c.136-14.251 1.262-27.911 3.259-39.975l-20.309-.029C36.393 55.4 33.671 69.085 33.37 83.42zm-28.327-.04 23.325.033c.29-14.23 2.881-27.881 7.501-39.969l-18.809-.026C9.654 55.358 5.496 69.047 5.043 83.38zm129.149-44.794 17.512.024a82.181 82.181 0 0 0-8.355-9.804c-8.871-8.896-19.445-15.478-30.991-19.438 5.423 4.141 10.419 9.602 14.811 16.269 2.641 4.012 4.988 8.349 7.023 12.949zm-28.134-.041 22.635.033a82.997 82.997 0 0 0-5.701-10.19c-7.945-12.065-17.931-19.795-28.718-22.402 3.402 4.419 6.421 11.241 8.953 20.321 1.06 3.802 2.006 7.898 2.831 12.238zm-38.525-.055 33.433.048a143.657 143.657 0 0 0-2.555-10.889C94.585 13.931 89.52 5.559 84.77 5.027c-.488.018-.976.046-1.462.085-4.602 1.041-9.463 9.284-13.188 22.497a143.435 143.435 0 0 0-2.587 10.881zm-24.099-.035 19.006.027c.838-4.338 1.795-8.431 2.866-12.229 2.29-8.123 4.965-14.435 7.951-18.831-8.994 3.466-17.282 10.582-24.093 20.86a83.051 83.051 0 0 0-5.73 10.173zm-23.01-.032 17.512.024c2.048-4.594 4.407-8.923 7.061-12.927 4.411-6.656 9.422-12.102 14.857-16.228-11.556 3.928-22.15 10.479-31.046 19.35a81.978 81.978 0 0 0-8.384 9.781z" fill="#000000" opacity="1" data-original="#000000" class=""></path></g></svg>