<svg xmlns="http://www.w3.org/2000/svg" width="20" height="20" viewBox="0 0 20 20" fill="none">
<path fill-rule="evenodd" clip-rule="evenodd" d="M18.0754 5.29971C19.0666 4.88173 19.7624 3.90094 19.7624 2.75763C19.7624 1.23463 18.5278 0 17.0048 0C15.4818 0 14.2471 1.23463 14.2471 2.75763C14.2471 4.01419 15.0876 5.07445 16.237 5.40697V12.6461C16.237 14.1088 15.6559 15.5116 14.6216 16.546C13.5873 17.5803 12.1845 18.1613 10.7217 18.1613C9.25898 18.1613 7.85616 17.5803 6.82185 16.546C5.93928 15.6634 5.77888 14.9479 5.60804 14.1859C5.57866 14.0548 5.54898 13.9224 5.51526 13.7876C5.17745 12.4363 5.83281 10.0919 6.35769 8.21427C6.54692 7.53733 6.71919 6.92106 6.82185 6.43389L0 14.0099L3.36804 12.4088L3.36804 12.6461C3.36804 14.5964 4.1428 16.4668 5.52189 17.8459C6.90097 19.225 8.77141 19.9998 10.7217 19.9998C12.672 19.9998 14.5425 19.225 15.9216 17.8459C17.3006 16.4668 18.0754 14.5964 18.0754 12.6461V5.29971Z" fill="#0056FF"/>
</svg>