<svg xmlns="http://www.w3.org/2000/svg" width="22" height="12" viewBox="0 0 22 12" fill="none">
<path d="M15.9979 8.00001H11.6569C11.1851 9.33444 10.2567 10.4591 9.03589 11.1753C7.81507 11.8914 6.38038 12.1529 4.98539 11.9136C3.5904 11.6743 2.32493 10.9495 1.41264 9.86733C0.50036 8.78519 0 7.41539 0 6.00001C0 4.58464 0.50036 3.21483 1.41264 2.13269C2.32493 1.05055 3.5904 0.325764 4.98539 0.086421C6.38038 -0.152922 7.81507 0.108595 9.03589 0.824749C10.2567 1.5409 11.1851 2.66558 11.6569 4.00001H21.9979V8.00001H19.9979V12H15.9979V8.00001ZM5.99785 8.00001C6.52829 8.00001 7.03699 7.7893 7.41207 7.41423C7.78714 7.03915 7.99785 6.53045 7.99785 6.00001C7.99785 5.46958 7.78714 4.96087 7.41207 4.5858C7.03699 4.21073 6.52829 4.00001 5.99785 4.00001C5.46742 4.00001 4.95871 4.21073 4.58364 4.5858C4.20857 4.96087 3.99785 5.46958 3.99785 6.00001C3.99785 6.53045 4.20857 7.03915 4.58364 7.41423C4.95871 7.7893 5.46742 8.00001 5.99785 8.00001Z" fill="#0056FF"/>
</svg>