<svg xmlns="http://www.w3.org/2000/svg" width="31" height="31" viewBox="0 0 31 31" fill="none">
<mask id="path-1-outside-1_8601_14569" maskUnits="userSpaceOnUse" x="0" y="0" width="31" height="31" fill="black">
<rect fill="white" width="31" height="31"/>
<path d="M8.5 22.75C8.5 21.6822 9.33947 20.8167 10.375 20.8167H11.3125C12.348 20.8167 13.1875 21.6822 13.1875 22.75C13.1875 23.8177 12.348 24.6833 11.3125 24.6833H10.375C9.33947 24.6833 8.5 23.8177 8.5 22.75Z"/>
</mask>
<path d="M1 20.3333H2H1ZM1 10.6667H0H1ZM10.375 1V5.96046e-08V1ZM11.3125 1V2V1ZM11.3125 30V31V30ZM10.375 30V29V30ZM20.6875 15.0167L19.9696 14.3205L19.2945 15.0167L19.9696 15.7129L20.6875 15.0167ZM2 20.3333L2 10.6667H0L4.17233e-07 20.3333H2ZM10.375 2H11.3125V0L10.375 5.96046e-08V2ZM11.3125 29H10.375V31H11.3125V29ZM20.6875 16.0167L31 16.0167V14.0167L20.6875 14.0167V16.0167ZM21.4054 15.7129L26.0929 10.8795L24.6571 9.48714L19.9696 14.3205L21.4054 15.7129ZM19.9696 15.7129L24.6571 20.5462L26.0929 19.1538L21.4054 14.3205L19.9696 15.7129ZM11.3125 31C13.4931 31 15.2322 31.0023 16.5933 30.8136C17.9863 30.6205 19.1305 30.2105 20.0324 29.2805L18.5967 27.8882C18.1257 28.3739 17.4785 28.6717 16.3186 28.8325C15.1268 28.9977 13.5513 29 11.3125 29V31ZM19.6875 19.85C19.6875 22.1518 19.6859 23.9123 19.5229 25.2766C19.3593 26.6467 19.0511 27.4196 18.5967 27.8882L20.0324 29.2805C20.951 28.3334 21.3292 27.0176 21.5088 25.5137C21.6891 24.004 21.6875 22.1051 21.6875 19.85H19.6875ZM11.3125 2C13.5513 2 15.1268 2.00226 16.3186 2.16748C17.4785 2.32828 18.1257 2.62613 18.5967 3.11184L20.0324 1.71946C19.1305 0.789519 17.9863 0.379548 16.5933 0.186429C15.2322 -0.00225544 13.4931 -1.19209e-07 11.3125 0V2ZM21.6875 10.1833C21.6875 7.93749 21.69 6.26283 21.5057 4.97941C21.313 3.63678 20.9037 2.61788 20.0324 1.71946L18.5967 3.11184C19.0983 3.62907 19.3756 4.21556 19.526 5.26363C19.685 6.37091 19.6875 7.87227 19.6875 10.1833H21.6875ZM2 10.6667C2 8.36077 2.002 6.72895 2.16322 5.49248C2.32109 4.28171 2.61558 3.60184 3.09079 3.11185L1.65508 1.71946C0.757358 2.64511 0.365373 3.81229 0.180011 5.23389C-0.00199986 6.62979 -1.19209e-07 8.41565 0 10.6667H2ZM10.375 5.96046e-08C8.19442 1.19209e-07 6.45529 -0.00225508 5.09422 0.186429C3.70116 0.379548 2.55696 0.78952 1.65508 1.71946L3.09079 3.11185C3.56185 2.62613 4.20897 2.32828 5.36885 2.16748C6.56073 2.00226 8.13617 2 10.375 2V5.96046e-08ZM4.17233e-07 20.3333C4.76837e-07 22.5843 -0.00199914 24.3702 0.180012 25.7661C0.365374 27.1877 0.757359 28.3549 1.65508 29.2805L3.09079 27.8882C2.61558 27.3982 2.3211 26.7183 2.16322 25.5075C2.002 24.271 2 22.6392 2 20.3333H4.17233e-07ZM10.375 29C8.13617 29 6.56073 28.9977 5.36885 28.8325C4.20897 28.6717 3.56185 28.3739 3.09079 27.8882L1.65508 29.2805C2.55696 30.2105 3.70116 30.6205 5.09422 30.8136C6.45529 31.0023 8.19442 31 10.375 31V29ZM10.375 22.8167H11.3125V18.8167H10.375V22.8167ZM11.3125 22.6833H10.375V26.6833H11.3125V22.6833ZM10.375 22.6833C10.3975 22.6833 10.4226 22.6885 10.4447 22.6982C10.4652 22.7071 10.4779 22.7175 10.4849 22.7247C10.499 22.7392 10.5 22.7519 10.5 22.75H6.5C6.5 24.8641 8.17758 26.6833 10.375 26.6833V22.6833ZM11.1875 22.75C11.1875 22.7519 11.1885 22.7392 11.2026 22.7247C11.2096 22.7175 11.2223 22.7071 11.2428 22.6982C11.2649 22.6885 11.29 22.6833 11.3125 22.6833V26.6833C13.5099 26.6833 15.1875 24.8641 15.1875 22.75H11.1875ZM11.3125 22.8167C11.29 22.8167 11.2649 22.8115 11.2428 22.8018C11.2223 22.7929 11.2096 22.7825 11.2026 22.7753C11.1885 22.7608 11.1875 22.7481 11.1875 22.75H15.1875C15.1875 20.6359 13.5099 18.8167 11.3125 18.8167V22.8167ZM10.375 18.8167C8.17758 18.8167 6.5 20.6359 6.5 22.75H10.5C10.5 22.7481 10.499 22.7608 10.4849 22.7753C10.4779 22.7825 10.4652 22.7929 10.4447 22.8018C10.4226 22.8115 10.3975 22.8167 10.375 22.8167V18.8167Z" fill="#0056FF" mask="url(#path-1-outside-1_8601_14569)"/>
</svg>