<svg width="343" height="343" viewBox="0 0 343 343" fill="none" xmlns="http://www.w3.org/2000/svg">
<mask id="path-1-outside-1_20_283" maskUnits="userSpaceOnUse" x="99.7524" y="109.383" width="234" height="110" fill="black">
<rect fill="white" x="99.7524" y="109.383" width="234" height="110"/>
<path d="M168.479 111.354V177.564H181.077V194.85H168.479V216.383H147.385V194.85H101.609V176.759C105.662 172.218 109.861 167.262 114.207 161.891C118.552 156.471 122.751 150.904 126.804 145.191C130.857 139.479 134.617 133.741 138.083 127.979C141.599 122.169 144.578 116.627 147.019 111.354H168.479ZM122.336 177.564H147.385V140.87C145.676 144.044 143.821 147.267 141.819 150.538C139.817 153.761 137.717 156.959 135.52 160.133C133.323 163.258 131.101 166.31 128.855 169.288C126.609 172.218 124.436 174.977 122.336 177.564ZM267.209 141.383L242.454 177.711L267.063 216.383H240.403L229.563 196.168C228.684 194.557 227.634 192.286 226.414 189.356H226.121C225.388 191.407 224.387 193.604 223.118 195.948L212.205 216.383H185.618L210.959 179.029L187.156 141.383H213.962L224.656 162.403C226.072 165.187 227.073 167.53 227.659 169.435H227.952C228.733 167.14 229.783 164.747 231.101 162.257L242.014 141.383H267.209ZM331.882 213.673C326.658 216.7 319.114 218.214 309.25 218.214C297.727 218.214 288.401 214.723 281.272 207.74C274.143 200.758 270.579 191.749 270.579 180.714C270.579 167.97 274.387 157.936 282.004 150.611C289.67 143.238 299.9 139.552 312.693 139.552C321.531 139.552 327.927 140.724 331.882 143.067V162.696C327.048 159.083 321.653 157.276 315.696 157.276C309.055 157.276 303.782 159.229 299.875 163.136C296.018 166.993 294.089 172.34 294.089 179.176C294.089 185.816 295.945 191.041 299.656 194.85C303.367 198.609 308.469 200.489 314.963 200.489C320.725 200.489 326.365 198.683 331.882 195.069V213.673Z"/>
</mask>
<path d="M168.479 111.354V177.564H181.077V194.85H168.479V216.383H147.385V194.85H101.609V176.759C105.662 172.218 109.861 167.262 114.207 161.891C118.552 156.471 122.751 150.904 126.804 145.191C130.857 139.479 134.617 133.741 138.083 127.979C141.599 122.169 144.578 116.627 147.019 111.354H168.479ZM122.336 177.564H147.385V140.87C145.676 144.044 143.821 147.267 141.819 150.538C139.817 153.761 137.717 156.959 135.52 160.133C133.323 163.258 131.101 166.31 128.855 169.288C126.609 172.218 124.436 174.977 122.336 177.564ZM267.209 141.383L242.454 177.711L267.063 216.383H240.403L229.563 196.168C228.684 194.557 227.634 192.286 226.414 189.356H226.121C225.388 191.407 224.387 193.604 223.118 195.948L212.205 216.383H185.618L210.959 179.029L187.156 141.383H213.962L224.656 162.403C226.072 165.187 227.073 167.53 227.659 169.435H227.952C228.733 167.14 229.783 164.747 231.101 162.257L242.014 141.383H267.209ZM331.882 213.673C326.658 216.7 319.114 218.214 309.25 218.214C297.727 218.214 288.401 214.723 281.272 207.74C274.143 200.758 270.579 191.749 270.579 180.714C270.579 167.97 274.387 157.936 282.004 150.611C289.67 143.238 299.9 139.552 312.693 139.552C321.531 139.552 327.927 140.724 331.882 143.067V162.696C327.048 159.083 321.653 157.276 315.696 157.276C309.055 157.276 303.782 159.229 299.875 163.136C296.018 166.993 294.089 172.34 294.089 179.176C294.089 185.816 295.945 191.041 299.656 194.85C303.367 198.609 308.469 200.489 314.963 200.489C320.725 200.489 326.365 198.683 331.882 195.069V213.673Z" fill="black"/>
<path d="M168.479 111.354H169.479V110.354H168.479V111.354ZM168.479 177.564H167.479V178.564H168.479V177.564ZM181.077 177.564H182.077V176.564H181.077V177.564ZM181.077 194.85V195.85H182.077V194.85H181.077ZM168.479 194.85V193.85H167.479V194.85H168.479ZM168.479 216.383V217.383H169.479V216.383H168.479ZM147.385 216.383H146.385V217.383H147.385V216.383ZM147.385 194.85H148.385V193.85H147.385V194.85ZM101.609 194.85H100.609V195.85H101.609V194.85ZM101.609 176.759L100.863 176.093L100.609 176.377V176.759H101.609ZM114.207 161.891L114.984 162.52L114.987 162.516L114.207 161.891ZM138.083 127.979L137.228 127.462L137.227 127.464L138.083 127.979ZM147.019 111.354V110.354H146.38L146.112 110.933L147.019 111.354ZM122.336 177.564L121.56 176.934L120.237 178.564H122.336V177.564ZM147.385 177.564V178.564H148.385V177.564H147.385ZM147.385 140.87H148.385L146.505 140.396L147.385 140.87ZM141.819 150.538L142.668 151.066L142.672 151.06L141.819 150.538ZM135.52 160.133L136.338 160.708L136.342 160.702L135.52 160.133ZM128.855 169.288L129.649 169.897L129.653 169.89L128.855 169.288ZM167.479 111.354V177.564H169.479V111.354H167.479ZM168.479 178.564H181.077V176.564H168.479V178.564ZM180.077 177.564V194.85H182.077V177.564H180.077ZM181.077 193.85H168.479V195.85H181.077V193.85ZM167.479 194.85V216.383H169.479V194.85H167.479ZM168.479 215.383H147.385V217.383H168.479V215.383ZM148.385 216.383V194.85H146.385V216.383H148.385ZM147.385 193.85H101.609V195.85H147.385V193.85ZM102.609 194.85V176.759H100.609V194.85H102.609ZM102.355 177.425C106.42 172.87 110.629 167.902 114.984 162.52L113.429 161.262C109.092 166.622 104.903 171.565 100.863 176.093L102.355 177.425ZM114.987 162.516C119.345 157.081 123.556 151.499 127.62 145.77L125.989 144.613C121.947 150.31 117.76 155.861 113.426 161.265L114.987 162.516ZM127.62 145.77C131.686 140.037 135.46 134.279 138.94 128.495L137.227 127.464C133.773 133.203 130.027 138.92 125.989 144.613L127.62 145.77ZM138.939 128.497C142.471 122.66 145.467 117.086 147.927 111.774L146.112 110.933C143.688 116.168 140.728 121.678 137.228 127.462L138.939 128.497ZM147.019 112.354H168.479V110.354H147.019V112.354ZM122.336 178.564H147.385V176.564H122.336V178.564ZM148.385 177.564V140.87H146.385V177.564H148.385ZM146.505 140.396C144.805 143.553 142.959 146.759 140.966 150.016L142.672 151.06C144.683 147.774 146.547 144.535 148.266 141.344L146.505 140.396ZM140.969 150.01C138.976 153.219 136.886 156.403 134.698 159.564L136.342 160.702C138.549 157.515 140.657 154.303 142.668 151.066L140.969 150.01ZM134.702 159.558C132.511 162.674 130.296 165.717 128.057 168.686L129.653 169.89C131.906 166.903 134.135 163.842 136.338 160.708L134.702 159.558ZM128.061 168.68C125.82 171.603 123.653 174.354 121.56 176.934L123.113 178.194C125.219 175.599 127.397 172.833 129.649 169.897L128.061 168.68ZM267.209 141.383L268.036 141.946L269.101 140.383H267.209V141.383ZM242.454 177.711L241.627 177.148L241.256 177.692L241.61 178.248L242.454 177.711ZM267.063 216.383V217.383H268.885L267.907 215.846L267.063 216.383ZM240.403 216.383L239.522 216.855L239.804 217.383H240.403V216.383ZM229.563 196.168L230.444 195.695L230.441 195.689L229.563 196.168ZM226.414 189.356L227.337 188.972L227.08 188.356H226.414V189.356ZM226.121 189.356V188.356H225.416L225.179 189.02L226.121 189.356ZM223.118 195.948L222.238 195.472L222.236 195.477L223.118 195.948ZM212.205 216.383V217.383H212.804L213.087 216.854L212.205 216.383ZM185.618 216.383L184.79 215.821L183.731 217.383H185.618V216.383ZM210.959 179.029L211.787 179.591L212.155 179.049L211.805 178.495L210.959 179.029ZM187.156 141.383V140.383H185.34L186.311 141.917L187.156 141.383ZM213.962 141.383L214.854 140.929L214.576 140.383H213.962V141.383ZM224.656 162.403L223.764 162.857L223.764 162.857L224.656 162.403ZM227.659 169.435L226.703 169.729L226.92 170.435H227.659V169.435ZM227.952 169.435V170.435H228.668L228.898 169.757L227.952 169.435ZM231.101 162.257L231.985 162.725L231.987 162.72L231.101 162.257ZM242.014 141.383V140.383H241.409L241.128 140.92L242.014 141.383ZM266.383 140.82L241.627 177.148L243.28 178.274L268.036 141.946L266.383 140.82ZM241.61 178.248L266.219 216.92L267.907 215.846L243.297 177.174L241.61 178.248ZM267.063 215.383H240.403V217.383H267.063V215.383ZM241.284 215.91L230.444 195.695L228.682 196.641L239.522 216.855L241.284 215.91ZM230.441 195.689C229.586 194.123 228.552 191.889 227.337 188.972L225.49 189.741C226.716 192.683 227.782 194.991 228.685 196.647L230.441 195.689ZM226.414 188.356H226.121V190.356H226.414V188.356ZM225.179 189.02C224.467 191.013 223.489 193.164 222.238 195.472L223.997 196.425C225.286 194.045 226.309 191.801 227.062 189.693L225.179 189.02ZM222.236 195.477L211.322 215.912L213.087 216.854L224 196.419L222.236 195.477ZM212.205 215.383H185.618V217.383H212.205V215.383ZM186.445 216.944L211.787 179.591L210.132 178.468L184.79 215.821L186.445 216.944ZM211.805 178.495L188.001 140.848L186.311 141.917L210.114 179.564L211.805 178.495ZM187.156 142.383H213.962V140.383H187.156V142.383ZM213.071 141.836L223.764 162.857L225.547 161.95L214.854 140.929L213.071 141.836ZM223.764 162.857C225.167 165.614 226.141 167.901 226.703 169.729L228.614 169.14C228.005 167.16 226.976 164.759 225.547 161.95L223.764 162.857ZM227.659 170.435H227.952V168.435H227.659V170.435ZM228.898 169.757C229.66 167.519 230.687 165.175 231.985 162.725L230.217 161.789C228.878 164.319 227.806 166.76 227.005 169.112L228.898 169.757ZM231.987 162.72L242.9 141.846L241.128 140.92L230.215 161.794L231.987 162.72ZM242.014 142.383H267.209V140.383H242.014V142.383ZM331.882 213.673L332.384 214.538L332.882 214.249V213.673H331.882ZM282.004 150.611L282.698 151.332L282.698 151.332L282.004 150.611ZM331.882 143.067H332.882V142.498L332.392 142.207L331.882 143.067ZM331.882 162.696L331.284 163.497L332.882 164.692V162.696H331.882ZM299.656 194.85L298.94 195.547L298.944 195.552L299.656 194.85ZM331.882 195.069H332.882V193.219L331.334 194.233L331.882 195.069ZM331.381 212.808C326.377 215.707 319.037 217.214 309.25 217.214V219.214C319.19 219.214 326.939 217.693 332.384 214.538L331.381 212.808ZM309.25 217.214C297.945 217.214 288.885 213.797 281.972 207.026L280.572 208.455C287.917 215.649 297.509 219.214 309.25 219.214V217.214ZM281.972 207.026C275.056 200.252 271.579 191.512 271.579 180.714H269.579C269.579 191.987 273.23 201.263 280.572 208.455L281.972 207.026ZM271.579 180.714C271.579 168.181 275.316 158.43 282.698 151.332L281.311 149.89C273.458 157.441 269.579 167.758 269.579 180.714H271.579ZM282.698 151.332C290.141 144.173 300.103 140.552 312.693 140.552V138.552C299.697 138.552 289.2 142.303 281.311 149.891L282.698 151.332ZM312.693 140.552C321.489 140.552 327.658 141.727 331.373 143.928L332.392 142.207C328.196 139.721 321.572 138.552 312.693 138.552V140.552ZM330.882 143.067V162.696H332.882V143.067H330.882ZM332.481 161.895C327.477 158.155 321.872 156.276 315.696 156.276V158.276C321.434 158.276 326.62 160.011 331.284 163.497L332.481 161.895ZM315.696 156.276C308.847 156.276 303.299 158.298 299.168 162.429L300.583 163.843C304.264 160.161 309.263 158.276 315.696 158.276V156.276ZM299.168 162.429C295.079 166.518 293.089 172.145 293.089 179.176H295.089C295.089 172.534 296.957 167.468 300.583 163.843L299.168 162.429ZM293.089 179.176C293.089 186.009 295.004 191.508 298.94 195.547L300.372 194.152C296.886 190.574 295.089 185.624 295.089 179.176H293.089ZM298.944 195.552C302.884 199.544 308.267 201.489 314.963 201.489V199.489C308.671 199.489 303.849 197.675 300.367 194.147L298.944 195.552ZM314.963 201.489C320.947 201.489 326.774 199.61 332.43 195.906L331.334 194.233C325.956 197.755 320.503 199.489 314.963 199.489V201.489ZM330.882 195.069V213.673H332.882V195.069H330.882Z" fill="black" mask="url(#path-1-outside-1_20_283)"/>
<mask id="path-3-inside-2_20_283" fill="white">
<path d="M279.463 234.242C265.553 258.165 244.096 276.796 218.458 287.213C192.82 297.631 164.45 299.246 137.795 291.805C111.14 284.365 87.708 268.289 71.1722 246.099C54.6364 223.909 45.9318 196.858 46.4232 169.189C46.9145 141.52 56.5739 114.795 73.887 93.2062C91.2002 71.617 115.188 56.3835 142.09 49.8938C168.992 43.4041 197.288 46.0253 222.54 57.3464C247.792 68.6674 268.573 88.0483 281.626 112.45L262.888 122.473C252.054 102.219 234.806 86.1334 213.847 76.7369C192.887 67.3404 169.402 65.1648 147.074 70.5512C124.745 75.9377 104.835 88.5815 90.4648 106.501C76.0949 124.42 68.0776 146.601 67.6698 169.566C67.262 192.532 74.4868 214.984 88.2115 233.401C101.936 251.819 121.385 265.162 143.508 271.338C165.632 277.513 189.179 276.173 210.459 267.527C231.738 258.88 249.547 243.416 261.093 223.56L279.463 234.242Z"/>
</mask>
<path d="M279.463 234.242C265.553 258.165 244.096 276.796 218.458 287.213C192.82 297.631 164.45 299.246 137.795 291.805C111.14 284.365 87.708 268.289 71.1722 246.099C54.6364 223.909 45.9318 196.858 46.4232 169.189C46.9145 141.52 56.5739 114.795 73.887 93.2062C91.2002 71.617 115.188 56.3835 142.09 49.8938C168.992 43.4041 197.288 46.0253 222.54 57.3464C247.792 68.6674 268.573 88.0483 281.626 112.45L262.888 122.473C252.054 102.219 234.806 86.1334 213.847 76.7369C192.887 67.3404 169.402 65.1648 147.074 70.5512C124.745 75.9377 104.835 88.5815 90.4648 106.501C76.0949 124.42 68.0776 146.601 67.6698 169.566C67.262 192.532 74.4868 214.984 88.2115 233.401C101.936 251.819 121.385 265.162 143.508 271.338C165.632 277.513 189.179 276.173 210.459 267.527C231.738 258.88 249.547 243.416 261.093 223.56L279.463 234.242Z" stroke="black" stroke-width="40" mask="url(#path-3-inside-2_20_283)"/>
</svg>
