<svg width="343" height="343" viewBox="0 0 343 343" fill="none" xmlns="http://www.w3.org/2000/svg">
<mask id="path-1-outside-1_31_195" maskUnits="userSpaceOnUse" x="99.7524" y="109.56" width="234" height="110" fill="black">
<rect fill="white" x="99.7524" y="109.56" width="234" height="110"/>
<path d="M168.479 111.53V177.741H181.077V195.026H168.479V216.56H147.385V195.026H101.609V176.936C105.662 172.395 109.861 167.438 114.207 162.067C118.552 156.647 122.751 151.081 126.804 145.368C130.857 139.655 134.617 133.918 138.083 128.156C141.599 122.346 144.578 116.804 147.019 111.53H168.479ZM122.336 177.741H147.385V141.047C145.676 144.221 143.821 147.443 141.819 150.715C139.817 153.938 137.717 157.136 135.52 160.31C133.323 163.435 131.101 166.486 128.855 169.465C126.609 172.395 124.436 175.153 122.336 177.741ZM267.209 141.56L242.454 177.888L267.063 216.56H240.403L229.563 196.345C228.684 194.733 227.634 192.463 226.414 189.533H226.121C225.388 191.584 224.387 193.781 223.118 196.125L212.205 216.56H185.618L210.959 179.206L187.156 141.56H213.962L224.656 162.58C226.072 165.363 227.073 167.707 227.659 169.611H227.952C228.733 167.316 229.783 164.924 231.101 162.434L242.014 141.56H267.209ZM331.882 213.85C326.658 216.877 319.114 218.391 309.25 218.391C297.727 218.391 288.401 214.899 281.272 207.917C274.143 200.935 270.579 191.926 270.579 180.891C270.579 168.146 274.387 158.112 282.004 150.788C289.67 143.415 299.9 139.729 312.693 139.729C321.531 139.729 327.927 140.9 331.882 143.244V162.873C327.048 159.26 321.653 157.453 315.696 157.453C309.055 157.453 303.782 159.406 299.875 163.312C296.018 167.17 294.089 172.517 294.089 179.353C294.089 185.993 295.945 191.218 299.656 195.026C303.367 198.786 308.469 200.666 314.963 200.666C320.725 200.666 326.365 198.859 331.882 195.246V213.85Z"/>
</mask>
<path d="M168.479 111.53V177.741H181.077V195.026H168.479V216.56H147.385V195.026H101.609V176.936C105.662 172.395 109.861 167.438 114.207 162.067C118.552 156.647 122.751 151.081 126.804 145.368C130.857 139.655 134.617 133.918 138.083 128.156C141.599 122.346 144.578 116.804 147.019 111.53H168.479ZM122.336 177.741H147.385V141.047C145.676 144.221 143.821 147.443 141.819 150.715C139.817 153.938 137.717 157.136 135.52 160.31C133.323 163.435 131.101 166.486 128.855 169.465C126.609 172.395 124.436 175.153 122.336 177.741ZM267.209 141.56L242.454 177.888L267.063 216.56H240.403L229.563 196.345C228.684 194.733 227.634 192.463 226.414 189.533H226.121C225.388 191.584 224.387 193.781 223.118 196.125L212.205 216.56H185.618L210.959 179.206L187.156 141.56H213.962L224.656 162.58C226.072 165.363 227.073 167.707 227.659 169.611H227.952C228.733 167.316 229.783 164.924 231.101 162.434L242.014 141.56H267.209ZM331.882 213.85C326.658 216.877 319.114 218.391 309.25 218.391C297.727 218.391 288.401 214.899 281.272 207.917C274.143 200.935 270.579 191.926 270.579 180.891C270.579 168.146 274.387 158.112 282.004 150.788C289.67 143.415 299.9 139.729 312.693 139.729C321.531 139.729 327.927 140.9 331.882 143.244V162.873C327.048 159.26 321.653 157.453 315.696 157.453C309.055 157.453 303.782 159.406 299.875 163.312C296.018 167.17 294.089 172.517 294.089 179.353C294.089 185.993 295.945 191.218 299.656 195.026C303.367 198.786 308.469 200.666 314.963 200.666C320.725 200.666 326.365 198.859 331.882 195.246V213.85Z" fill="#F41112"/>
<path d="M168.479 111.53H169.479V110.53H168.479V111.53ZM168.479 177.741H167.479V178.741H168.479V177.741ZM181.077 177.741H182.077V176.741H181.077V177.741ZM181.077 195.026V196.026H182.077V195.026H181.077ZM168.479 195.026V194.026H167.479V195.026H168.479ZM168.479 216.56V217.56H169.479V216.56H168.479ZM147.385 216.56H146.385V217.56H147.385V216.56ZM147.385 195.026H148.385V194.026H147.385V195.026ZM101.609 195.026H100.609V196.026H101.609V195.026ZM101.609 176.936L100.863 176.27L100.609 176.554V176.936H101.609ZM114.207 162.067L114.984 162.696L114.987 162.693L114.207 162.067ZM138.083 128.156L137.228 127.639L137.227 127.641L138.083 128.156ZM147.019 111.53V110.53H146.38L146.112 111.11L147.019 111.53ZM122.336 177.741L121.56 177.111L120.237 178.741H122.336V177.741ZM147.385 177.741V178.741H148.385V177.741H147.385ZM147.385 141.047H148.385L146.505 140.573L147.385 141.047ZM141.819 150.715L142.668 151.243L142.672 151.237L141.819 150.715ZM135.52 160.31L136.338 160.885L136.342 160.879L135.52 160.31ZM128.855 169.465L129.649 170.073L129.653 170.067L128.855 169.465ZM167.479 111.53V177.741H169.479V111.53H167.479ZM168.479 178.741H181.077V176.741H168.479V178.741ZM180.077 177.741V195.026H182.077V177.741H180.077ZM181.077 194.026H168.479V196.026H181.077V194.026ZM167.479 195.026V216.56H169.479V195.026H167.479ZM168.479 215.56H147.385V217.56H168.479V215.56ZM148.385 216.56V195.026H146.385V216.56H148.385ZM147.385 194.026H101.609V196.026H147.385V194.026ZM102.609 195.026V176.936H100.609V195.026H102.609ZM102.355 177.601C106.42 173.047 110.629 168.078 114.984 162.696L113.429 161.438C109.092 166.799 104.903 171.742 100.863 176.27L102.355 177.601ZM114.987 162.693C119.345 157.258 123.556 151.676 127.62 145.947L125.989 144.79C121.947 150.487 117.76 156.037 113.426 161.442L114.987 162.693ZM127.62 145.947C131.686 140.214 135.46 134.456 138.94 128.672L137.227 127.641C133.773 133.38 130.027 139.096 125.989 144.79L127.62 145.947ZM138.939 128.674C142.471 122.837 145.467 117.262 147.927 111.95L146.112 111.11C143.688 116.345 140.728 121.854 137.228 127.639L138.939 128.674ZM147.019 112.53H168.479V110.53H147.019V112.53ZM122.336 178.741H147.385V176.741H122.336V178.741ZM148.385 177.741V141.047H146.385V177.741H148.385ZM146.505 140.573C144.805 143.729 142.959 146.936 140.966 150.193L142.672 151.237C144.683 147.951 146.547 144.712 148.266 141.521L146.505 140.573ZM140.969 150.187C138.976 153.396 136.886 156.58 134.698 159.74L136.342 160.879C138.549 157.692 140.657 154.479 142.668 151.243L140.969 150.187ZM134.702 159.734C132.511 162.851 130.296 165.893 128.057 168.863L129.653 170.067C131.906 167.079 134.135 164.019 136.338 160.885L134.702 159.734ZM128.061 168.856C125.82 171.78 123.653 174.531 121.56 177.111L123.113 178.371C125.219 175.776 127.397 173.009 129.649 170.073L128.061 168.856ZM267.209 141.56L268.036 142.123L269.101 140.56H267.209V141.56ZM242.454 177.888L241.627 177.325L241.256 177.869L241.61 178.425L242.454 177.888ZM267.063 216.56V217.56H268.885L267.907 216.023L267.063 216.56ZM240.403 216.56L239.522 217.032L239.804 217.56H240.403V216.56ZM229.563 196.345L230.444 195.872L230.441 195.866L229.563 196.345ZM226.414 189.533L227.337 189.149L227.08 188.533H226.414V189.533ZM226.121 189.533V188.533H225.416L225.179 189.197L226.121 189.533ZM223.118 196.125L222.238 195.649L222.236 195.654L223.118 196.125ZM212.205 216.56V217.56H212.804L213.087 217.031L212.205 216.56ZM185.618 216.56L184.79 215.998L183.731 217.56H185.618V216.56ZM210.959 179.206L211.787 179.767L212.155 179.225L211.805 178.672L210.959 179.206ZM187.156 141.56V140.56H185.34L186.311 142.094L187.156 141.56ZM213.962 141.56L214.854 141.106L214.576 140.56H213.962V141.56ZM224.656 162.58L223.764 163.033L223.764 163.034L224.656 162.58ZM227.659 169.611L226.703 169.905L226.92 170.611H227.659V169.611ZM227.952 169.611V170.611H228.668L228.898 169.934L227.952 169.611ZM231.101 162.434L231.985 162.901L231.987 162.897L231.101 162.434ZM242.014 141.56V140.56H241.409L241.128 141.096L242.014 141.56ZM266.383 140.996L241.627 177.325L243.28 178.451L268.036 142.123L266.383 140.996ZM241.61 178.425L266.219 217.096L267.907 216.023L243.297 177.351L241.61 178.425ZM267.063 215.56H240.403V217.56H267.063V215.56ZM241.284 216.087L230.444 195.872L228.682 196.817L239.522 217.032L241.284 216.087ZM230.441 195.866C229.586 194.299 228.552 192.066 227.337 189.149L225.49 189.918C226.716 192.86 227.782 195.167 228.685 196.824L230.441 195.866ZM226.414 188.533H226.121V190.533H226.414V188.533ZM225.179 189.197C224.467 191.19 223.489 193.34 222.238 195.649L223.997 196.601C225.286 194.222 226.309 191.978 227.062 189.87L225.179 189.197ZM222.236 195.654L211.322 216.088L213.087 217.031L224 196.596L222.236 195.654ZM212.205 215.56H185.618V217.56H212.205V215.56ZM186.445 217.121L211.787 179.767L210.132 178.645L184.79 215.998L186.445 217.121ZM211.805 178.672L188.001 141.025L186.311 142.094L210.114 179.74L211.805 178.672ZM187.156 142.56H213.962V140.56H187.156V142.56ZM213.071 142.013L223.764 163.033L225.547 162.127L214.854 141.106L213.071 142.013ZM223.764 163.034C225.167 165.791 226.141 168.078 226.703 169.905L228.614 169.317C228.005 167.336 226.976 164.936 225.547 162.127L223.764 163.034ZM227.659 170.611H227.952V168.611H227.659V170.611ZM228.898 169.934C229.66 167.696 230.687 165.352 231.985 162.901L230.217 161.966C228.878 164.495 227.806 166.937 227.005 169.289L228.898 169.934ZM231.987 162.897L242.9 142.023L241.128 141.096L230.215 161.97L231.987 162.897ZM242.014 142.56H267.209V140.56H242.014V142.56ZM331.882 213.85L332.384 214.715L332.882 214.426V213.85H331.882ZM282.004 150.788L282.698 151.509L282.698 151.509L282.004 150.788ZM331.882 143.244H332.882V142.674L332.392 142.384L331.882 143.244ZM331.882 162.873L331.284 163.674L332.882 164.869V162.873H331.882ZM299.656 195.026L298.94 195.724L298.944 195.729L299.656 195.026ZM331.882 195.246H332.882V193.396L331.334 194.41L331.882 195.246ZM331.381 212.984C326.377 215.884 319.037 217.391 309.25 217.391V219.391C319.19 219.391 326.939 217.87 332.384 214.715L331.381 212.984ZM309.25 217.391C297.945 217.391 288.885 213.973 281.972 207.203L280.572 208.631C287.917 215.825 297.509 219.391 309.25 219.391V217.391ZM281.972 207.203C275.056 200.429 271.579 191.688 271.579 180.891H269.579C269.579 192.163 273.23 201.44 280.572 208.631L281.972 207.203ZM271.579 180.891C271.579 168.358 275.316 158.607 282.698 151.509L281.311 150.067C273.458 157.618 269.579 167.935 269.579 180.891H271.579ZM282.698 151.509C290.141 144.35 300.103 140.729 312.693 140.729V138.729C299.697 138.729 289.2 142.48 281.311 150.067L282.698 151.509ZM312.693 140.729C321.489 140.729 327.658 141.903 331.373 144.104L332.392 142.384C328.196 139.897 321.572 138.729 312.693 138.729V140.729ZM330.882 143.244V162.873H332.882V143.244H330.882ZM332.481 162.072C327.477 158.331 321.872 156.453 315.696 156.453V158.453C321.434 158.453 326.62 160.188 331.284 163.674L332.481 162.072ZM315.696 156.453C308.847 156.453 303.299 158.475 299.168 162.605L300.583 164.02C304.264 160.338 309.263 158.453 315.696 158.453V156.453ZM299.168 162.605C295.079 166.695 293.089 172.322 293.089 179.353H295.089C295.089 172.711 296.957 167.645 300.583 164.02L299.168 162.605ZM293.089 179.353C293.089 186.186 295.004 191.685 298.94 195.724L300.372 194.329C296.886 190.75 295.089 185.801 295.089 179.353H293.089ZM298.944 195.729C302.884 199.721 308.267 201.666 314.963 201.666V199.666C308.671 199.666 303.849 197.851 300.367 194.324L298.944 195.729ZM314.963 201.666C320.947 201.666 326.774 199.787 332.43 196.083L331.334 194.41C325.956 197.932 320.503 199.666 314.963 199.666V201.666ZM330.882 195.246V213.85H332.882V195.246H330.882Z" fill="#F41112" mask="url(#path-1-outside-1_31_195)"/>
<mask id="path-3-inside-2_31_195" fill="white">
<path d="M279.463 234.419C265.553 258.342 244.096 276.973 218.458 287.39C192.82 297.808 164.45 299.423 137.795 291.982C111.14 284.541 87.708 268.466 71.1722 246.276C54.6364 224.085 45.9318 197.035 46.4232 169.366C46.9145 141.696 56.5739 114.972 73.887 93.3829C91.2002 71.7938 115.188 56.5602 142.09 50.0706C168.992 43.5809 197.288 46.2021 222.54 57.5231C247.792 68.8442 268.573 88.225 281.626 112.627L262.888 122.65C252.054 102.396 234.806 86.3101 213.847 76.9136C192.887 67.5172 169.402 65.3416 147.074 70.728C124.745 76.1144 104.835 88.7583 90.4648 106.677C76.0949 124.596 68.0776 146.777 67.6698 169.743C67.262 192.709 74.4868 215.16 88.2115 233.578C101.936 251.996 121.385 265.339 143.508 271.514C165.632 277.69 189.179 276.35 210.459 267.703C231.738 259.057 249.547 243.593 261.093 223.737L279.463 234.419Z"/>
</mask>
<path d="M279.463 234.419C265.553 258.342 244.096 276.973 218.458 287.39C192.82 297.808 164.45 299.423 137.795 291.982C111.14 284.541 87.708 268.466 71.1722 246.276C54.6364 224.085 45.9318 197.035 46.4232 169.366C46.9145 141.696 56.5739 114.972 73.887 93.3829C91.2002 71.7938 115.188 56.5602 142.09 50.0706C168.992 43.5809 197.288 46.2021 222.54 57.5231C247.792 68.8442 268.573 88.225 281.626 112.627L262.888 122.65C252.054 102.396 234.806 86.3101 213.847 76.9136C192.887 67.5172 169.402 65.3416 147.074 70.728C124.745 76.1144 104.835 88.7583 90.4648 106.677C76.0949 124.596 68.0776 146.777 67.6698 169.743C67.262 192.709 74.4868 215.16 88.2115 233.578C101.936 251.996 121.385 265.339 143.508 271.514C165.632 277.69 189.179 276.35 210.459 267.703C231.738 259.057 249.547 243.593 261.093 223.737L279.463 234.419Z" stroke="#F41112" stroke-width="40" mask="url(#path-3-inside-2_31_195)"/>
</svg>
