<svg width="343" height="343" viewBox="0 0 343 343" fill="none" xmlns="http://www.w3.org/2000/svg">
<path d="M168.484 111.323V177.534H181.082V194.819H168.484V216.353H147.391V194.819H101.614V176.729C105.667 172.188 109.866 167.231 114.212 161.86C118.558 156.44 122.757 150.874 126.81 145.161C130.862 139.448 134.622 133.711 138.089 127.949C141.604 122.139 144.583 116.597 147.024 111.323H168.484ZM122.342 177.534H147.391V140.84C145.682 144.014 143.826 147.236 141.824 150.508C139.822 153.73 137.723 156.929 135.525 160.103C133.328 163.228 131.106 166.279 128.86 169.258C126.614 172.188 124.441 174.946 122.342 177.534ZM267.215 141.353L242.459 177.681L267.068 216.353H240.408L229.568 196.138C228.689 194.526 227.64 192.256 226.419 189.326H226.126C225.394 191.377 224.393 193.574 223.123 195.918L212.21 216.353H185.623L210.965 178.999L187.161 141.353H213.968L224.661 162.373C226.077 165.156 227.078 167.5 227.664 169.404H227.957C228.738 167.109 229.788 164.717 231.106 162.227L242.02 141.353H267.215ZM331.888 213.643C326.663 216.67 319.119 218.184 309.256 218.184C297.732 218.184 288.406 214.692 281.277 207.71C274.148 200.728 270.584 191.719 270.584 180.684C270.584 167.939 274.393 157.905 282.01 150.581C289.676 143.208 299.905 139.521 312.698 139.521C321.536 139.521 327.933 140.693 331.888 143.037V162.666C327.054 159.053 321.658 157.246 315.701 157.246C309.061 157.246 303.787 159.199 299.881 163.105C296.023 166.963 294.095 172.31 294.095 179.146C294.095 185.786 295.95 191.011 299.661 194.819C303.372 198.579 308.475 200.459 314.969 200.459C320.73 200.459 326.37 198.652 331.888 195.039V213.643Z" fill="white"/>
<mask id="path-2-inside-1_17_91" fill="white">
<path d="M279.469 234.212C265.558 258.135 244.102 276.766 218.463 287.183C192.825 297.601 164.455 299.216 137.8 291.775C111.145 284.334 87.7134 268.259 71.1776 246.069C54.6418 223.878 45.9372 196.828 46.4285 169.159C46.9198 141.489 56.5793 114.765 73.8924 93.1759C91.2056 71.5867 115.194 56.3532 142.096 49.8635C168.998 43.3739 197.293 45.995 222.545 57.3161C247.797 68.6372 268.579 88.018 281.631 112.42L266.983 120.255C255.665 99.096 237.646 82.2908 215.749 72.4742C193.853 62.6577 169.318 60.3848 145.991 66.0121C122.664 71.6393 101.864 84.8484 86.8518 103.568C71.8394 122.289 63.4637 145.461 63.0377 169.454C62.6116 193.446 70.1594 216.901 84.4977 236.143C98.836 255.384 119.154 269.323 142.267 275.775C165.379 282.227 189.979 280.826 212.21 271.793C234.441 262.76 253.046 246.605 265.108 225.861L279.469 234.212Z"/>
</mask>
<path d="M279.469 234.212C265.558 258.135 244.102 276.766 218.463 287.183C192.825 297.601 164.455 299.216 137.8 291.775C111.145 284.334 87.7134 268.259 71.1776 246.069C54.6418 223.878 45.9372 196.828 46.4285 169.159C46.9198 141.489 56.5793 114.765 73.8924 93.1759C91.2056 71.5867 115.194 56.3532 142.096 49.8635C168.998 43.3739 197.293 45.995 222.545 57.3161C247.797 68.6372 268.579 88.018 281.631 112.42L266.983 120.255C255.665 99.096 237.646 82.2908 215.749 72.4742C193.853 62.6577 169.318 60.3848 145.991 66.0121C122.664 71.6393 101.864 84.8484 86.8518 103.568C71.8394 122.289 63.4637 145.461 63.0377 169.454C62.6116 193.446 70.1594 216.901 84.4977 236.143C98.836 255.384 119.154 269.323 142.267 275.775C165.379 282.227 189.979 280.826 212.21 271.793C234.441 262.76 253.046 246.605 265.108 225.861L279.469 234.212Z" stroke="white" stroke-width="40" mask="url(#path-2-inside-1_17_91)"/>
</svg>
