<svg xmlns="http://www.w3.org/2000/svg" width="32" height="29" viewBox="0 0 32 29" fill="none">
<path d="M16 28L20.136 23.864C20.5287 23.4713 20.7251 23.2749 20.9338 23.1067C21.6801 22.5053 22.5835 22.1311 23.5365 22.0287C23.803 22 24.0807 22 24.636 22V22C25.9038 22 26.5377 22 27.0631 21.8857C28.9756 21.4695 30.4695 19.9756 30.8857 18.0631C31 17.5377 31 16.9038 31 15.636V11C31 6.28595 31 3.92893 29.5355 2.46447C28.0711 1 25.714 1 21 1H11C6.28595 1 3.92893 1 2.46447 2.46447C1 3.92893 1 6.28595 1 11V12C1 16.714 1 19.0711 2.46447 20.5355C3.92893 22 6.28595 22 11 22H16" stroke="#0056FF" stroke-width="2"/>
</svg>