<svg xmlns="http://www.w3.org/2000/svg" width="17" height="20" viewBox="0 0 17 20" fill="none">
<path d="M14.1667 6.66667H16.0556C16.306 6.66667 16.5463 6.76701 16.7234 6.94561C16.9005 7.12422 17 7.36646 17 7.61905V19.0476C17 19.3002 16.9005 19.5424 16.7234 19.7211C16.5463 19.8997 16.306 20 16.0556 20H0.944444C0.693962 20 0.453739 19.8997 0.276621 19.7211C0.0995036 19.5424 0 19.3002 0 19.0476V7.61905C0 7.36646 0.0995036 7.12422 0.276621 6.94561C0.453739 6.76701 0.693962 6.66667 0.944444 6.66667H2.83333V5.71429C2.83333 4.19876 3.43036 2.74531 4.49306 1.67368C5.55577 0.602039 6.99711 0 8.5 0C10.0029 0 11.4442 0.602039 12.5069 1.67368C13.5696 2.74531 14.1667 4.19876 14.1667 5.71429V6.66667ZM7.55556 14.0305V16.1905H9.44444V14.0305C9.80455 13.8208 10.086 13.4972 10.2451 13.1098C10.4042 12.7224 10.4321 12.2929 10.3245 11.8879C10.2169 11.4829 9.97977 11.125 9.64988 10.8698C9.32 10.6145 8.91581 10.4761 8.5 10.4761C8.08419 10.4761 7.68 10.6145 7.35012 10.8698C7.02023 11.125 6.78309 11.4829 6.67547 11.8879C6.56785 12.2929 6.59577 12.7224 6.75489 13.1098C6.91402 13.4972 7.19545 13.8208 7.55556 14.0305ZM12.2778 6.66667V5.71429C12.2778 4.70394 11.8798 3.73497 11.1713 3.02055C10.4628 2.30612 9.50193 1.90476 8.5 1.90476C7.49807 1.90476 6.53718 2.30612 5.82871 3.02055C5.12024 3.73497 4.72222 4.70394 4.72222 5.71429V6.66667H12.2778Z" fill="#0056FF"/>
</svg>