<svg xmlns="http://www.w3.org/2000/svg" width="27" height="31" viewBox="0 0 27 31" fill="none">
<path fill-rule="evenodd" clip-rule="evenodd" d="M26 30V7H27V30H26ZM25 6H26V7H25V6ZM24 5H25V6H24V5ZM23 4H24V5H23V4ZM22 3H23V4H22V3ZM21 2H22V3H21V2ZM20 1H21V2H20V1ZM22 15H23V26H5V30H4V26H0V15H4V1H5V15H22ZM1 16V25H22V16H1ZM19 20V21H16V23H15V18H19V19H16V20H19ZM13 19H14V22H13V19ZM10 22H13V23H9V18H13V19H10V22ZM7 19H8V21H7V19ZM5 21H7V22H5V23H4V18H7V19H5V21ZM26 31H5V30H26V31ZM5 0H20V1H5V0Z" fill="#0056FF"/>
<path fill-rule="evenodd" clip-rule="evenodd" d="M19 20V21H16V23H15V18H19V19H16V20H19ZM13 19H14V22H13V19ZM10 22H13V23H9V18H13V19H10V22ZM7 19H8V21H7V19ZM5 21H7V22H5V23H4V18H7V19H5V21Z" fill="#F41112"/>
<path fill-rule="evenodd" clip-rule="evenodd" d="M22 26H0V15H23V26H22ZM22 16H1V25H22V16Z" fill="#F41112"/>
</svg>