<svg xmlns="http://www.w3.org/2000/svg" version="1.1" xmlns:xlink="http://www.w3.org/1999/xlink" width="512" height="512" x="0" y="0" viewBox="0 0 68 68" style="enable-background:new 0 0 512 512" xml:space="preserve" class=""><g><path d="M12.5 38.4H14c.6 0 1-.4 1-1s-.4-1-1-1h-1.5c-4.7 0-8.5-3.8-8.5-8.5 0-3.8 2.5-7.1 6.1-8.2.5-.2.8-.7.7-1.2-2.3-7.7 3.4-15.3 11.3-15.3 4.6 0 8.8 2.7 10.7 6.8.3.6 1 .8 1.5.4C39.4 7 46.5 9 48.9 14.7c.2.4.6.7 1 .6 4.2-.5 7.9 2.9 7.9 7.1v.1c-.1.5.3 1 .8 1.1 3.1.5 5.3 3.2 5.3 6.3 0 3.6-2.9 6.4-6.4 6.4h-3.6c-.6 0-1 .4-1 1s.4 1 1 1h3.6c4.7 0 8.4-3.8 8.4-8.4 0-3.8-2.6-7.1-6.2-8.1-.3-5-4.5-8.7-9.4-8.6-3-6-10.5-8.3-16.4-5.1-2.4-4.3-7-7-12-7-9 0-15.4 8.3-13.5 16.9C4.7 19.7 2 23.6 2 27.9c0 5.8 4.7 10.5 10.5 10.5z" fill="#000000" opacity="1" data-original="#000000" class=""></path><path d="M16.5 15.1c0-3.4 2.8-6.2 6.2-6.2.6 0 1-.4 1-1s-.4-1-1-1c-4.5 0-8.2 3.7-8.2 8.2 0 .6.4 1 1 1 .5 0 1-.4 1-1zM13.3 42.2c-.2.2-.4.5-.4.8v3.6c-1.7.4-3 2-3 3.9 0 2.2 1.8 4 4 4s4-1.8 4-4c0-1.9-1.3-3.4-3-3.9v-3.1l5.8-4.6c.2-.2.4-.5.4-.8v-4.8h5v6.2l-2.8 2.8c-.2.2-.3.4-.3.7v8.8c-1.7.4-3 2-3 3.9 0 2.2 1.8 4 4 4s4-1.8 4-4c0-1.9-1.3-3.4-3-3.9v-8.4l2.8-2.8c.2-.2.3-.4.3-.7v-6.6H33v25.6c-1.7.4-3 2-3 3.9 0 2.2 1.8 4 4 4s4-1.8 4-4c0-1.9-1.3-3.4-3-3.9V33.3h4.9v6.6c0 .3.1.5.3.7l2.8 2.8v8.4c-1.7.4-3 2-3 3.9 0 2.2 1.8 4 4 4s4-1.8 4-4c0-1.9-1.3-3.4-3-3.9V43c0-.3-.1-.5-.3-.7l-2.8-2.8v-6.2h5v4.8c0 .3.1.6.4.8l5.8 4.6v3.1c-1.7.4-3 2-3 3.9 0 2.2 1.8 4 4 4s4-1.8 4-4c0-1.9-1.3-3.4-3-3.9V43c0-.3-.1-.6-.4-.8l-5.8-4.6v-4.3h1.7c1.9 0 3.4-1.5 3.4-3.4v-5.5c0-1.9-1.5-3.4-3.4-3.4H17.4c-1.9 0-3.4 1.5-3.4 3.4V30c0 1.9 1.5 3.4 3.4 3.4h1.7v4.3zm2.6 8.2c0 1.1-.9 2-2 2s-2-.9-2-2 .9-2 2-2 2 .9 2 2zM26 55.6c0 1.1-.9 2-2 2s-2-.9-2-2 .9-2 2-2 2 .9 2 2zm10 7.2c0 1.1-.9 2-2 2s-2-.9-2-2 .9-2 2-2 2 .9 2 2zm10-7.2c0 1.1-.9 2-2 2s-2-.9-2-2 .9-2 2-2 2 .9 2 2zm10.1-5.2c0 1.1-.9 2-2 2s-2-.9-2-2 .9-2 2-2 2 .9 2 2zM16 30v-5.5c0-.8.6-1.4 1.4-1.4h33.2c.8 0 1.4.6 1.4 1.4V30c0 .8-.6 1.4-1.4 1.4H17.4c-.8-.1-1.4-.7-1.4-1.4z" fill="#000000" opacity="1" data-original="#000000" class=""></path><path d="M21.3 28.2c.6 0 1-.4 1-1s-.4-1-1-1h-1.2c-.6 0-1 .4-1 1s.4 1 1 1zM25.5 28.2h1.2c.6 0 1-.4 1-1s-.4-1-1-1h-1.2c-.6 0-1 .4-1 1s.5 1 1 1zM30.9 28.2h1.2c.6 0 1-.4 1-1s-.4-1-1-1h-1.2c-.6 0-1 .4-1 1s.5 1 1 1z" fill="#000000" opacity="1" data-original="#000000" class=""></path></g></svg>