<svg xmlns="http://www.w3.org/2000/svg" width="17" height="26" viewBox="0 0 17 26" fill="none">
  <path fill-rule="evenodd" clip-rule="evenodd" d="M4 8H6V10H4V8ZM6 14V13H7V14H8V15H7H6V16H4V14H6ZM9 15V16H8V15H9ZM10 14H9V15H10V16H12V14H10ZM7 13V12H6V11H7V10H8V11V12V13H7ZM4 11H5V12H4V11ZM7 8H8V9H7V8ZM9 10H10V8H12V10H11V11H12V12H11V13H10H9V12H10V11H9V10Z" fill="#636E72"/>
  <path d="M13 1.625C13.431 1.625 13.8443 1.7962 14.149 2.10095C14.4538 2.4057 14.625 2.81902 14.625 3.25V22.75C14.625 23.181 14.4538 23.5943 14.149 23.899C13.8443 24.2038 13.431 24.375 13 24.375H3.25C2.81902 24.375 2.4057 24.2038 2.10095 23.899C1.79621 23.5943 1.625 23.181 1.625 22.75V3.25C1.625 2.81902 1.79621 2.4057 2.10095 2.10095C2.4057 1.7962 2.81902 1.625 3.25 1.625H13ZM3.25 0C2.38805 0 1.5614 0.34241 0.951903 0.951903C0.34241 1.5614 0 2.38805 0 3.25V22.75C0 23.612 0.34241 24.4386 0.951903 25.0481C1.5614 25.6576 2.38805 26 3.25 26H13C13.862 26 14.6886 25.6576 15.2981 25.0481C15.9076 24.4386 16.25 23.612 16.25 22.75V3.25C16.25 2.38805 15.9076 1.5614 15.2981 0.951903C14.6886 0.34241 13.862 0 13 0L3.25 0Z" fill="#636E72"/>
  <path d="M8.125 22.75C8.55598 22.75 8.9693 22.5788 9.27405 22.274C9.57879 21.9693 9.75 21.556 9.75 21.125C9.75 20.694 9.57879 20.2807 9.27405 19.976C8.9693 19.6712 8.55598 19.5 8.125 19.5C7.69402 19.5 7.2807 19.6712 6.97595 19.976C6.67121 20.2807 6.5 20.694 6.5 21.125C6.5 21.556 6.67121 21.9693 6.97595 22.274C7.2807 22.5788 7.69402 22.75 8.125 22.75Z" fill="#636E72"/>
</svg>