<svg xmlns="http://www.w3.org/2000/svg" width="90" height="15" viewBox="0 0 90 15" fill="none">
<path d="M7.0059 0.430728C7.1925 -0.143575 8.00498 -0.143576 8.19159 0.430727L9.55807 4.63632C9.64152 4.89316 9.88086 5.06705 10.1509 5.06705H14.5729C15.1768 5.06705 15.4279 5.83977 14.9393 6.19471L11.3618 8.79391C11.1434 8.95264 11.0519 9.234 11.1354 9.49084L12.5019 13.6964C12.6885 14.2707 12.0312 14.7483 11.5426 14.3934L7.96514 11.7942C7.74666 11.6354 7.45082 11.6354 7.23234 11.7942L3.65485 14.3934C3.16632 14.7483 2.50901 14.2707 2.69561 13.6964L4.06209 9.49084C4.14554 9.234 4.05412 8.95264 3.83564 8.79391L0.258151 6.19471C-0.230381 5.83977 0.020691 5.06705 0.624549 5.06705H5.04657C5.31662 5.06705 5.55597 4.89316 5.63942 4.63632L7.0059 0.430728Z" fill="#FFA937"/>
<path d="M44.4073 0.430728C44.5939 -0.143575 45.4064 -0.143576 45.593 0.430727L46.9594 4.63632C47.0429 4.89316 47.2822 5.06705 47.5523 5.06705H51.9743C52.5782 5.06705 52.8292 5.83977 52.3407 6.19471L48.7632 8.79391C48.5447 8.95264 48.4533 9.234 48.5368 9.49084L49.9032 13.6964C50.0898 14.2707 49.4325 14.7483 48.944 14.3934L45.3665 11.7942C45.148 11.6354 44.8522 11.6354 44.6337 11.7942L41.0562 14.3934C40.5677 14.7483 39.9104 14.2707 40.097 13.6964L41.4635 9.49084C41.5469 9.234 41.4555 8.95264 41.237 8.79391L37.6595 6.19471C37.171 5.83977 37.4221 5.06705 38.0259 5.06705H42.4479C42.718 5.06705 42.9573 4.89316 43.0408 4.63632L44.4073 0.430728Z" fill="#FFA937"/>
<path d="M25.7066 0.430728C25.8932 -0.143575 26.7057 -0.143576 26.8923 0.430727L28.2588 4.63632C28.3422 4.89316 28.5815 5.06705 28.8516 5.06705H33.2736C33.8775 5.06705 34.1285 5.83977 33.64 6.19471L30.0625 8.79391C29.844 8.95264 29.7526 9.234 29.8361 9.49084L31.2026 13.6964C31.3892 14.2707 30.7318 14.7483 30.2433 14.3934L26.6658 11.7942C26.4473 11.6354 26.1515 11.6354 25.933 11.7942L22.3555 14.3934C21.867 14.7483 21.2097 14.2707 21.3963 13.6964L22.7628 9.49084C22.8462 9.234 22.7548 8.95264 22.5363 8.79391L18.9588 6.19471C18.4703 5.83977 18.7214 5.06705 19.3252 5.06705H23.7473C24.0173 5.06705 24.2566 4.89316 24.3401 4.63632L25.7066 0.430728Z" fill="#FFA937"/>
<path d="M63.1077 0.430728C63.2943 -0.143575 64.1068 -0.143576 64.2934 0.430727L65.6599 4.63632C65.7433 4.89316 65.9827 5.06705 66.2527 5.06705H70.6747C71.2786 5.06705 71.5297 5.83977 71.0411 6.19471L67.4637 8.79391C67.2452 8.95264 67.1538 9.234 67.2372 9.49084L68.6037 13.6964C68.7903 14.2707 68.133 14.7483 67.6444 14.3934L64.0669 11.7942C63.8485 11.6354 63.5526 11.6354 63.3342 11.7942L59.7567 14.3934C59.2681 14.7483 58.6108 14.2707 58.7974 13.6964L60.1639 9.49084C60.2473 9.234 60.1559 8.95264 59.9374 8.79391L56.36 6.19471C55.8714 5.83977 56.1225 5.06705 56.7264 5.06705H61.1484C61.4184 5.06705 61.6578 4.89316 61.7412 4.63632L63.1077 0.430728Z" fill="#FFA937"/>
<path d="M81.8084 0.430728C81.995 -0.143575 82.8075 -0.143576 82.9941 0.430727L84.3606 4.63632C84.444 4.89316 84.6834 5.06705 84.9534 5.06705H89.3754C89.9793 5.06705 90.2304 5.83977 89.7418 6.19471L86.1643 8.79391C85.9459 8.95264 85.8544 9.234 85.9379 9.49084L87.3044 13.6964C87.491 14.2707 86.8337 14.7483 86.3451 14.3934L82.7676 11.7942C82.5492 11.6354 82.2533 11.6354 82.0348 11.7942L78.4573 14.3934C77.9688 14.7483 77.3115 14.2707 77.4981 13.6964L78.8646 9.49084C78.948 9.234 78.8566 8.95264 78.6381 8.79391L75.0606 6.19471C74.5721 5.83977 74.8232 5.06705 75.427 5.06705H79.8491C80.1191 5.06705 80.3585 4.89316 80.4419 4.63632L81.8084 0.430728Z" fill="#D9D9D9"/>
<path d="M78.4573 14.3934L82.0348 11.7942C82.2533 11.6354 82.5492 11.6354 82.7676 11.7942L84.2715 12.8868L84.2837 4.39969L82.9941 0.430727C82.8075 -0.143576 81.995 -0.143575 81.8084 0.430728L80.4419 4.63632C80.3585 4.89316 80.1191 5.06705 79.8491 5.06705H75.427C74.8232 5.06705 74.5721 5.83977 75.0606 6.19471L78.6381 8.79391C78.8566 8.95264 78.948 9.234 78.8646 9.49084L77.4981 13.6964C77.3115 14.2707 77.9688 14.7483 78.4573 14.3934Z" fill="#FFA937"/>
</svg>