<svg xmlns="http://www.w3.org/2000/svg" version="1.1" xmlns:xlink="http://www.w3.org/1999/xlink" width="512" height="512" x="0" y="0" viewBox="0 0 682.667 682.667" style="enable-background:new 0 0 512 512" xml:space="preserve" class="hovered-paths"><g><defs><clipPath id="a" clipPathUnits="userSpaceOnUse"><path d="M0 512h512V0H0Z" fill="#000000" opacity="1" data-original="#000000"></path></clipPath></defs><g clip-path="url(#a)" transform="matrix(1.33333 0 0 -1.33333 0 682.667)"><path d="M0 0h-63.565c-7.311 0-13.238 5.927-13.238 13.237v17.69c0 7.311 5.927 13.238 13.238 13.238h316.23c7.311 0 13.237-5.927 13.237-13.238v-17.69c0-7.31-5.926-13.237-13.237-13.237H35.076" style="stroke-width:15;stroke-linecap:round;stroke-linejoin:round;stroke-miterlimit:10;stroke-dasharray:none;stroke-opacity:1" transform="translate(161.45 460.335)" fill="none" stroke="#000000" stroke-width="15" stroke-linecap="round" stroke-linejoin="round" stroke-miterlimit="10" stroke-dasharray="none" stroke-opacity="" data-original="#000000" class="hovered-path"></path><path d="M0 0h-249.875c-8.965 0-16.232 7.268-16.232 16.232v67.12c0 8.964 7.267 16.232 16.232 16.232H0c8.965 0 16.232-7.268 16.232-16.232v-67.12C16.232 7.268 8.965 0 0 0Z" style="stroke-width:15;stroke-linecap:round;stroke-linejoin:round;stroke-miterlimit:10;stroke-dasharray:none;stroke-opacity:1" transform="translate(380.938 7.5)" fill="none" stroke="#000000" stroke-width="15" stroke-linecap="round" stroke-linejoin="round" stroke-miterlimit="10" stroke-dasharray="none" stroke-opacity="" data-original="#000000" class="hovered-path"></path><path d="M0 0c-23.555 26.152-37.16 60.465-37.16 96.757V110.8" style="stroke-width:15;stroke-linecap:round;stroke-linejoin:round;stroke-miterlimit:10;stroke-dasharray:none;stroke-opacity:1" transform="translate(329.274 107.084)" fill="none" stroke="#000000" stroke-width="15" stroke-linecap="round" stroke-linejoin="round" stroke-miterlimit="10" stroke-dasharray="none" stroke-opacity="" data-original="#000000" class="hovered-path"></path><path d="M0 0v-14.043C0-50.335-13.605-84.647-37.16-110.8" style="stroke-width:15;stroke-linecap:round;stroke-linejoin:round;stroke-miterlimit:10;stroke-dasharray:none;stroke-opacity:1" transform="translate(219.886 217.884)" fill="none" stroke="#000000" stroke-width="15" stroke-linecap="round" stroke-linejoin="round" stroke-miterlimit="10" stroke-dasharray="none" stroke-opacity="" data-original="#000000" class="hovered-path"></path><path d="M0 0h39.782a7.13 7.13 0 0 1 7.131 7.13v20.507a7.13 7.13 0 0 1-7.131 7.131h-187.225a7.13 7.13 0 0 1-7.131-7.131V7.13A7.13 7.13 0 0 1-147.443 0h112.366" style="stroke-width:15;stroke-linecap:round;stroke-linejoin:round;stroke-miterlimit:10;stroke-dasharray:none;stroke-opacity:1" transform="translate(309.652 39.908)" fill="none" stroke="#000000" stroke-width="15" stroke-linecap="round" stroke-linejoin="round" stroke-miterlimit="10" stroke-dasharray="none" stroke-opacity="" data-original="#000000" class="hovered-path"></path><path d="M0 0v-54.829c0-79.472 41.271-153.243 108.995-194.828a47.997 47.997 0 0 1 50.229 0 228.757 228.757 0 0 1 19.761 13.618" style="stroke-width:15;stroke-linecap:round;stroke-linejoin:round;stroke-miterlimit:10;stroke-dasharray:none;stroke-opacity:1" transform="translate(121.89 460.335)" fill="none" stroke="#000000" stroke-width="15" stroke-linecap="round" stroke-linejoin="round" stroke-miterlimit="10" stroke-dasharray="none" stroke-opacity="" data-original="#000000" class="hovered-path"></path><path d="M0 0a228.405 228.405 0 0 1 12.145 73.511v54.829" style="stroke-width:15;stroke-linecap:round;stroke-linejoin:round;stroke-miterlimit:10;stroke-dasharray:none;stroke-opacity:1" transform="translate(377.965 331.995)" fill="none" stroke="#000000" stroke-width="15" stroke-linecap="round" stroke-linejoin="round" stroke-miterlimit="10" stroke-dasharray="none" stroke-opacity="" data-original="#000000" class="hovered-path"></path><path d="m0 0-10.771 2.414c-23.579 5.285-44.88 18.585-59.983 37.447-14.341 17.911-22.564 40.183-23.355 63.074-.052 1.493 1.171 2.723 2.665 2.723h59.299" style="stroke-width:15;stroke-linecap:round;stroke-linejoin:round;stroke-miterlimit:10;stroke-dasharray:none;stroke-opacity:1" transform="translate(154.34 288.106)" fill="none" stroke="#000000" stroke-width="15" stroke-linecap="round" stroke-linejoin="round" stroke-miterlimit="10" stroke-dasharray="none" stroke-opacity="" data-original="#000000" class="hovered-path"></path><path d="M0 0h-62.646c-18.051 0-32.631-14.77-32.603-32.82.05-31.676 10.975-62.727 30.774-87.456 19.845-24.786 47.836-42.262 78.819-49.206l49.89-11.185" style="stroke-width:15;stroke-linecap:round;stroke-linejoin:round;stroke-miterlimit:10;stroke-dasharray:none;stroke-opacity:1" transform="translate(121.89 427.29)" fill="none" stroke="#000000" stroke-width="15" stroke-linecap="round" stroke-linejoin="round" stroke-miterlimit="10" stroke-dasharray="none" stroke-opacity="" data-original="#000000" class="hovered-path"></path><path d="M0 0h59.3c1.494 0 2.717-1.23 2.665-2.724-.791-22.89-9.015-45.162-23.356-63.073-4.373-5.462-9.279-10.439-14.596-14.909" style="stroke-width:15;stroke-linecap:round;stroke-linejoin:round;stroke-miterlimit:10;stroke-dasharray:none;stroke-opacity:1" transform="translate(389.805 393.764)" fill="none" stroke="#000000" stroke-width="15" stroke-linecap="round" stroke-linejoin="round" stroke-miterlimit="10" stroke-dasharray="none" stroke-opacity="" data-original="#000000" class="hovered-path"></path><path d="M0 0a139.584 139.584 0 0 1 17.927 18.555c19.8 24.729 30.724 55.78 30.774 87.456.028 18.051-14.552 32.82-32.603 32.82h-62.646" style="stroke-width:15;stroke-linecap:round;stroke-linejoin:round;stroke-miterlimit:10;stroke-dasharray:none;stroke-opacity:1" transform="translate(436.657 288.458)" fill="none" stroke="#000000" stroke-width="15" stroke-linecap="round" stroke-linejoin="round" stroke-miterlimit="10" stroke-dasharray="none" stroke-opacity="" data-original="#000000" class="hovered-path"></path><path d="M0 0v0a12.4 12.4 0 0 1 16.116-4.318c8.026 4.137 17.641-1.414 18.071-10.433a12.4 12.4 0 0 1 11.797-11.798c9.019-.43 14.571-10.046 10.433-18.071a12.4 12.4 0 0 1 4.318-16.115c7.596-4.882 7.596-15.986 0-20.867a12.4 12.4 0 0 1-4.318-16.116c4.138-8.025-1.414-17.641-10.433-18.07a12.401 12.401 0 0 1-11.797-11.798c-.43-9.019-10.045-14.571-18.071-10.434A12.4 12.4 0 0 1 0-142.338c-4.882-7.596-15.985-7.596-20.866 0a12.4 12.4 0 0 1-16.116 4.318c-8.026-4.137-17.642 1.415-18.071 10.434-.303 6.386-5.412 11.493-11.798 11.798-9.019.429-14.571 10.045-10.432 18.07a12.402 12.402 0 0 1-4.319 16.116c-7.596 4.881-7.596 15.985 0 20.867a12.401 12.401 0 0 1 4.319 16.115c-4.139 8.025 1.413 17.641 10.432 18.071a12.4 12.4 0 0 1 11.798 11.798c.429 9.019 10.045 14.57 18.071 10.433A12.401 12.401 0 0 1-20.866 0C-15.985 7.596-4.882 7.596 0 0Z" style="stroke-width:15;stroke-linecap:round;stroke-linejoin:round;stroke-miterlimit:10;stroke-dasharray:none;stroke-opacity:1" transform="translate(379.232 330.366)" fill="none" stroke="#000000" stroke-width="15" stroke-linecap="round" stroke-linejoin="round" stroke-miterlimit="10" stroke-dasharray="none" stroke-opacity="" data-original="#000000" class="hovered-path"></path><path d="M0 0c0-20.024-16.233-36.258-36.258-36.258-20.024 0-36.257 16.234-36.257 36.258s16.233 36.258 36.257 36.258C-16.233 36.258 0 20.024 0 0Z" style="stroke-width:15;stroke-linecap:round;stroke-linejoin:round;stroke-miterlimit:10;stroke-dasharray:none;stroke-opacity:1" transform="translate(405.057 259.197)" fill="none" stroke="#000000" stroke-width="15" stroke-linecap="round" stroke-linejoin="round" stroke-miterlimit="10" stroke-dasharray="none" stroke-opacity="" data-original="#000000" class="hovered-path"></path><path d="M0 0v-50.746c0-2.315 2.516-3.751 4.509-2.576L29.667-38.5a2.99 2.99 0 0 0 3.036 0L57.86-53.322c1.994-1.175 4.509.261 4.509 2.576V0" style="stroke-width:15;stroke-linecap:round;stroke-linejoin:round;stroke-miterlimit:10;stroke-dasharray:none;stroke-opacity:1" transform="translate(337.614 191)" fill="none" stroke="#000000" stroke-width="15" stroke-linecap="round" stroke-linejoin="round" stroke-miterlimit="10" stroke-dasharray="none" stroke-opacity="" data-original="#000000" class="hovered-path"></path></g></g></svg>