<svg width="56" height="56" xmlns="http://www.w3.org/2000/svg"><g fill="none" fill-rule="evenodd"><rect fill="#212121" width="56" height="56" rx="28"/><path d="M21.512 13.39c2.5-1.315 5.456-1.623 8.226-1.232 2.106.31 4.29 1.157 5.583 2.933 1.002 1.34 1.212 3.072 1.26 4.695v9.53a5.04 5.04 0 0 0 .762 2.68c.307.536.737.989 1.056 1.517.208.337.19.837-.159 1.073-1.12.954-2.23 1.916-3.338 2.883-.354.375-1.023.43-1.393.049-.749-.648-1.445-1.366-1.975-2.21-.157-.204-.251-.47-.459-.627-.958.915-1.948 1.849-3.162 2.42-.9.469-1.91.674-2.91.782-1.6.118-3.287.082-4.752-.654-1.471-.692-2.587-2.031-3.074-3.575-.64-2.062-.567-4.367.323-6.345.923-2.04 2.832-3.502 4.931-4.182 2.498-.82 5.145-.965 7.741-1.25-.05-1.399.254-3.03-.768-4.169-1.724-1.67-5.172-.932-5.875 1.43-.11.534-.317 1.205-.963 1.263-1.436-.226-2.892-.324-4.335-.508-.407-.035-.782-.406-.708-.831.329-2.385 1.85-4.56 3.99-5.672zm3.76 13.124a3.665 3.665 0 0 0-1.78 2.633c-.183 1.098-.088 2.331.601 3.246.654.885 1.896 1.175 2.92.86 1.27-.36 2.18-1.472 2.66-2.656.684-1.613.456-3.4.495-5.105-1.664.064-3.43.14-4.896 1.022z" fill="#FFF"/><path d="M39.625 36.374c1.506-1.017 3.414-1.227 5.184-1.054.472.073.973.138 1.378.41.276.39.163.911.146 1.36-.243 1.794-.957 3.601-2.303 4.854-.185.18-.547.422-.697.073.46-1.34 1.078-2.646 1.261-4.064.056-.391.013-.924-.441-1.046-1.574-.46-3.21.058-4.806.007.014-.215.067-.436.278-.54zm-30.374-.369c.166-.03.313.065.455.139 8.518 4.907 19.058 6.192 28.488 3.38a33.915 33.915 0 0 0 3.809-1.349c.275-.124.639-.23.892.003.31.234.183.736-.136.903-2.348 1.732-5.076 2.89-7.882 3.65a27.778 27.778 0 0 1-13.718.23 27.19 27.19 0 0 1-11.967-6.298c-.254-.151-.277-.619.06-.658z" fill="#F8981D"/></g></svg>