<svg width="56" height="56" viewBox="0 0 56 56" fill="none" xmlns="http://www.w3.org/2000/svg">
<g id="BITB" clip-path="url(#clip0_1467_13133)">
<circle id="bg" cx="28.001" cy="28" r="28" fill="black"/>
<path id="Vector" d="M24.4865 40.886V27.354H27.3919C32.7973 27.354 36.6149 29.258 36.6149 35.684C36.6149 41.124 34.3176 43.708 29.1824 43.708C26.7162 43.708 24.4865 43.606 24.4865 40.886ZM24.4865 26.028V14.774C24.4865 13.074 24.7568 12.972 26.9865 12.972C33.2027 12.972 35.973 14.332 35.973 19.024C35.973 23.274 33.6081 25.96 28.8108 26.062H24.4865V26.028ZM17.1216 16.712V39.322C17.1216 43.334 16.7162 43.708 13 43.742V45H29.1486C35.6689 45 43 43.844 43 35.99C43 30.278 37.7973 27.864 33.2365 26.946V26.844C37.223 26.096 41.1081 23.682 41.1081 18.956C41.1419 12.02 32.7297 11 27.2568 11H13V12.258C16.7162 12.292 17.1216 12.666 17.1216 16.712Z" fill="white"/>
</g>
<defs>
<clipPath id="clip0_1467_13133">
<rect width="56" height="56" fill="white"/>
</clipPath>
</defs>
</svg>
