<svg width="56" height="56" viewBox="0 0 56 56" fill="none" xmlns="http://www.w3.org/2000/svg">
<g id="BRRR" clip-path="url(#clip0_1467_13108)">
<circle id="bg" cx="28.001" cy="28" r="28" fill="#2956C9"/>
<path id="Vector" d="M17.2694 21.8175C17.1806 21.6812 17.0783 21.5537 16.964 21.437C16.3686 20.8337 14.1544 18.4817 14.1544 18.4817C13.7653 18.1011 13.2069 17.496 12.7691 16.9936C12.4445 16.6208 12.2133 16.179 12.094 15.7034C11.5844 13.5534 11.2192 11.373 11.0005 9.17636C10.9979 9.14336 11.0055 9.11035 11.0225 9.0817C11.0394 9.05305 11.0649 9.0301 11.0954 9.01588C11.126 9.00166 11.1602 8.99683 11.1937 9.00204C11.2271 9.00725 11.2581 9.02225 11.2826 9.04505C12.8781 10.4742 20.0148 16.8775 20.0148 16.8775L20.1451 16.9936C20.3183 17.1687 20.4603 17.3114 20.6179 17.4808C21.0168 17.9303 21.3501 18.4318 21.6083 18.9708C21.9759 19.7194 22.2867 20.4934 22.5383 21.2866L24.5404 27.5168C24.5676 27.6025 24.6104 27.7414 24.6338 27.827L24.9762 29.0392C24.9996 29.1248 25.0385 29.2656 25.0638 29.3513L25.8304 31.9925C25.8537 32.0782 25.8946 32.219 25.9199 32.3046L26.6475 34.7784L26.739 35.0886L27.3091 37.0258L27.4025 37.3379L27.6982 38.3217C27.7235 38.4073 27.7546 38.512 27.7644 38.5634C27.7741 38.6147 27.8013 38.649 27.8227 38.649C27.8441 38.649 27.8889 38.5805 27.922 38.4987L36.4887 16.8033C36.5079 16.7603 36.5391 16.7234 36.5786 16.6969C36.6182 16.6703 36.6645 16.6551 36.7125 16.653H44.8843C44.9031 16.6507 44.9222 16.6536 44.9395 16.6612C44.9567 16.6689 44.9715 16.6811 44.9822 16.6964C44.9928 16.7117 44.999 16.7297 44.9999 16.7482C45.0008 16.7667 44.9965 16.7851 44.9874 16.8014L32.1499 47.8497C32.1298 47.8924 32.0982 47.929 32.0584 47.9555C32.0186 47.982 31.9722 47.9974 31.9242 48H23.801C23.7533 47.9979 23.7073 47.9821 23.6685 47.9548C23.6298 47.9274 23.6001 47.8895 23.5831 47.8459L17.7131 30.6586C17.483 30.0033 17.2 29.367 16.8667 28.7556C16.5818 28.2302 16.2462 27.7325 15.8647 27.2694C15.1876 26.4417 14.2323 25.2428 13.6077 24.455C13.1885 23.9323 12.9198 23.3095 12.8294 22.651L12.2457 18.3675C12.249 18.3371 12.261 18.3082 12.2803 18.2841C12.2995 18.26 12.3253 18.2417 12.3547 18.2312C12.384 18.2207 12.4158 18.2184 12.4465 18.2247C12.4771 18.231 12.5053 18.2455 12.5279 18.2667L13.8898 19.6444L14.1136 19.8842L18.5438 24.5711C18.6061 24.6377 18.6295 24.6225 18.5964 24.5406C18.5886 24.5406 17.8648 22.7214 17.2694 21.8175Z" fill="white"/>
</g>
<defs>
<clipPath id="clip0_1467_13108">
<rect width="56" height="56" fill="white"/>
</clipPath>
</defs>
</svg>
