<?xml version="1.0" encoding="UTF-8"?>
<svg width="64px" height="64px" viewBox="0 0 64 64" version="1.1" xmlns="http://www.w3.org/2000/svg" xmlns:xlink="http://www.w3.org/1999/xlink">
    <!-- Generator: Sketch 51.2 (57519) - http://www.bohemiancoding.com/sketch -->
    <title>SPY</title>
    <desc>Created with Sketch.</desc>
    <defs></defs>
    <g id="SPY" stroke="none" stroke-width="1" fill="none" fill-rule="evenodd">
        <g id="ic">
            <rect id="Rectangle-112-Copy-6" fill="#FFFFFF" x="0" y="0" width="64" height="64" rx="32"></rect>
            <polygon id="Fill-82-Copy" fill="#B1D9F9" points="30.03264 6.0067 33.03954 6 33.03274 9.0068 33.03954 9 30.03264 9.0067 30.03954 6"></polygon>
            <path d="M63.1608,29.04004 C63.8527,29.04004 63.8528,29.04004 63.9164,29.73474 C63.9237,29.81494 63.8789,35.17314 63.8153,35.63974 C63.779,35.90664 63.7316,36.04784 63.4053,36.04744 C54.2907,36.03524 45.1761,36.03404 36.0614,36.03084 C36.0176,33.69564 36.023,31.36784 36.0286,29.04004 L63.1608,29.04004 Z" id="Fill-4" fill="#D11242"></path>
            <path d="M27.7197,63.75094 C21.9328,62.95464 16.7586,60.73224 12.0856,57.08144 L51.8966,57.08144 C51.2063,57.68624 50.4869,58.17844 49.7629,58.66144 C45.771,61.32444 41.3953,62.99664 36.6514,63.70244 C35.9276,63.81014 35.1952,63.85904 34.4676,63.94164 C34.3466,63.95534 28.4169,63.84684 27.7197,63.75094 Z" id="Fill-6" fill="#D11242"></path>
            <path d="M62.04384,43.04004 C61.69364,44.11754 61.24864,45.09804 60.77784,46.06514 C60.18024,47.29274 59.49004,48.46874 58.75934,49.62314 C58.55174,49.95114 58.33484,50.04844 57.96194,50.04814 C45.54634,50.03834 33.13094,50.04004 20.71544,50.04004 C15.81594,50.04004 10.91634,50.03694 6.01684,50.04684 C5.68474,50.04754 5.48504,49.96144 5.29544,49.66854 C4.04334,47.73454 2.98284,45.70514 2.15304,43.55534 C1.95404,43.03974 1.95124,43.04014 2.51234,43.04014 C22.17714,43.04004 41.84194,43.04004 61.50674,43.04004 L62.04384,43.04004 Z" id="Fill-8" fill="#D11242"></path>
            <path d="M36.0286,29.04004 C36.023,31.36784 36.0176,33.69564 36.012,36.02334 C35.8459,36.02894 35.6797,36.03934 35.5135,36.03934 C23.9557,36.04004 12.3978,36.03704 0.8401,36.05084 C0.3721,36.05134 0.2005,35.93954 0.1913,35.45744 C0.1761,34.66014 0.0895,33.86424 0.033,33.06774 C0.8265,33.05854 1.6225,33.00764 2.4127,33.05464 C2.9435,33.08604 3.0455,32.89824 3.0226,32.41864 C2.9847,31.62634 3.0143,30.83084 3.0155,30.03674 L3.0086,30.04344 L6.0153,30.03654 C6.0142,30.91504 6.0218,31.79374 6.007,32.67204 C6.0024,32.94644 6.0789,33.05214 6.3684,33.04564 C7.1305,33.02854 7.8935,33.02854 8.6556,33.04564 C8.9451,33.05214 9.0216,32.94634 9.017,32.67204 C9.0021,31.79374 9.0098,30.91504 9.0087,30.03654 L12.0153,30.03654 C12.0142,30.91504 12.0218,31.79374 12.007,32.67204 C12.0024,32.94644 12.0789,33.05214 12.3684,33.04564 C13.1305,33.02854 13.8935,33.02854 14.6556,33.04564 C14.9451,33.05214 15.0216,32.94634 15.017,32.67204 C15.0021,31.79374 15.0098,30.91504 15.0087,30.03654 L18.0153,30.03654 C18.0142,30.91504 18.0218,31.79374 18.007,32.67194 C18.0024,32.94634 18.0788,33.05214 18.3683,33.04564 C19.1305,33.02854 19.8934,33.02854 20.6555,33.04564 C20.9449,33.05214 21.0217,32.94664 21.017,32.67214 C21.0021,31.79394 21.0097,30.91524 21.0085,30.03674 L24.0155,30.03674 C24.0143,30.91524 24.0219,31.79384 24.007,32.67214 C24.0023,32.94654 24.079,33.05214 24.3684,33.04564 C25.1305,33.02854 25.8935,33.02854 26.6556,33.04564 C26.945,33.05214 27.0217,32.94654 27.017,32.67214 C27.0021,31.79384 27.0097,30.91524 27.0085,30.03674 L30.0154,30.03684 C30.0143,30.90154 30.0275,31.76674 30.0049,32.63084 C29.9961,32.96404 30.1075,33.05564 30.4292,33.04664 C31.1769,33.02564 31.9258,33.03094 32.6739,33.04454 C32.935,33.04934 33.0213,32.96224 33.0165,32.70164 C33.0029,31.95354 32.9975,31.20464 33.0186,30.45684 C33.0277,30.13474 32.9351,30.02424 32.6024,30.03294 C31.7383,30.05554 30.8732,30.04254 30.0085,30.04374 C30.0086,29.04134 30.0086,28.03894 30.0087,27.03654 C30.8872,27.03774 31.7658,27.03014 32.644,27.04504 C32.9184,27.04974 33.0241,26.97304 33.0176,26.68364 C33.0005,25.92154 33.0005,25.15854 33.0176,24.39644 C33.0241,24.10704 32.9185,24.03034 32.644,24.03504 C31.7658,24.04994 30.8872,24.04234 30.0087,24.04354 L30.0087,21.03654 C30.8872,21.03774 31.7658,21.03014 32.644,21.04504 C32.9184,21.04974 33.0241,20.97304 33.0176,20.68364 C33.0005,19.92154 33.0005,19.15854 33.0176,18.39644 C33.0241,18.10704 32.9184,18.03034 32.644,18.03504 C31.7658,18.04994 30.8872,18.04234 30.0087,18.04354 C30.0086,17.04124 30.0086,16.03894 30.0085,15.03674 C30.887,15.03784 31.7657,15.03024 32.6439,15.04504 C32.9182,15.04964 33.0241,14.97324 33.0176,14.68374 C33.0005,13.92154 33.0006,13.15864 33.0176,12.39654 C33.0241,12.10714 32.9186,12.03034 32.6441,12.03504 C31.7659,12.04994 30.8872,12.04234 30.0087,12.04354 L30.0087,9.03654 C30.8872,9.03774 31.7658,9.03014 32.644,9.04504 C32.9184,9.04974 33.0241,8.97304 33.0176,8.68364 C33.0005,7.92154 33.0005,7.15854 33.0176,6.39644 C33.0241,6.10704 32.9184,6.03034 32.644,6.03504 C31.7658,6.04994 30.8872,6.04234 30.0087,6.04354 L30.0154,3.03664 L30.0087,3.04354 C30.8028,3.04234 31.5983,3.01274 32.3906,3.05064 C32.87,3.07354 33.0581,2.97174 33.0265,2.44084 C32.9796,1.65064 33.0304,0.85474 33.0395,0.06114 C34.034,0.12204 35.0342,0.11934 36.0145,0.33314 L36.0286,8.04014 L36.0286,15.04004 L36.0286,22.04004 L36.0286,29.04004 Z" id="Fill-10" fill="#0082EB"></path>
            <path d="M36.0286,22.04004 L36.0286,15.04004 C43.5601,15.04004 51.0917,15.03994 58.6231,15.04044 C58.8834,15.04044 59.1238,15.00414 59.3046,15.30864 C60.5396,17.38894 61.5938,19.55064 62.3403,21.85634 C62.355,21.90154 62.3575,21.95054 62.3729,22.04004 L36.0286,22.04004 Z" id="Fill-12" fill="#D11242"></path>
            <path d="M36.0286,8.04014 L36.0145,0.33314 C37.7315,0.45944 39.3947,0.86194 41.0389,1.34294 C45.4445,2.63184 49.3815,4.78894 52.8638,7.77754 C52.9325,7.83654 53.0393,7.87354 53.0462,8.04014 L36.0286,8.04014 Z" id="Fill-14" fill="#D11242"></path>
            <path d="M3.01547,30.03672 C3.01427,30.83082 2.98467,31.62632 3.02257,32.41862 C3.04557,32.89822 2.94347,33.08612 2.41277,33.05462 C1.62257,33.00762 0.82657,33.05852 0.03307,33.06772 C0.03167,32.06472 -0.07163,31.05932 0.10467,30.06052 C1.07487,30.05262 2.04517,30.04462 3.01547,30.03672" id="Fill-16" fill="#B1D9F9"></path>
            <path d="M33.03954,0.06118 C33.03034,0.85468 32.97954,1.65068 33.02654,2.44078 C33.05814,2.97168 32.87004,3.07358 32.39054,3.05068 C31.59824,3.01278 30.80284,3.04238 30.00864,3.04348 C30.00644,2.07808 30.00414,1.11268 30.00184,0.14728 C31.00944,-0.05692 32.02634,0.06698 33.03954,0.06118" id="Fill-18" fill="#B1D9F9"></path>
            <path d="M17.99012,3.33125 C18.20682,3.08895 18.49932,3.03735 18.80112,3.00925 C19.53922,3.02065 20.27732,3.03205 21.01542,3.04345 L21.00862,3.03665 L21.01532,6.04355 C20.01302,6.04345 19.01082,6.04345 18.00852,6.04335 C18.00242,5.13935 17.99632,4.23535 17.99012,3.33125" id="Fill-20" fill="#0082EB"></path>
            <path d="M2.98119,18.82915 C3.00929,18.52735 3.06089,18.23495 3.30319,18.01815 C4.20719,18.02435 5.11129,18.03045 6.01529,18.03655 L6.01529,21.04355 L3.00859,21.03665 L3.01539,21.04345 C3.00399,20.30535 2.99259,19.56725 2.98119,18.82915" id="Fill-22" fill="#0082EB"></path>
            <path d="M9.00853,9.8605 C9.22963,9.5323 9.50473,9.2582 9.83243,9.0365 C10.56003,9.0388 11.28773,9.0411 12.01543,9.0435 L12.00853,9.0366 L12.01543,12.0434 L9.00853,12.0366 L9.01543,12.0435 C9.01313,11.3158 9.01083,10.5881 9.00853,9.8605" id="Fill-24" fill="#B1D9F9"></path>
            <path d="M3.01547,30.03672 C2.04517,30.04462 1.07487,30.05262 0.10467,30.06052 C0.02377,29.69262 0.13197,29.33292 0.16677,28.97262 C0.22897,28.32892 0.33157,27.68912 0.41727,27.04782 C1.28327,27.04402 2.14927,27.04032 3.01537,27.03662 L3.00857,30.04342 L3.01547,30.03672 Z" id="Fill-26" fill="#0082EB"></path>
            <path d="M30.00184,0.14732 C30.00414,1.11272 30.00644,2.07812 30.00864,3.04352 L30.01544,3.03662 L27.00854,3.04332 C27.01224,2.17732 27.01604,1.31132 27.01974,0.44522 C28.00804,0.28822 28.99584,0.12732 30.00184,0.14732" id="Fill-28" fill="#0082EB"></path>
            <path d="M12.01342,7.12744 C12.44342,6.70404 12.89972,6.31504 13.43952,6.03504 C13.96482,6.03784 14.49012,6.04064 15.01542,6.04344 L15.00862,6.03664 L15.01532,9.04354 C14.01312,9.04124 13.01082,9.03894 12.00862,9.03664 L12.01542,9.04344 C12.01472,8.40474 12.01412,7.76614 12.01342,7.12744" id="Fill-30" fill="#B1D9F9"></path>
            <path d="M6.00707,13.46763 C6.28697,12.92773 6.67607,12.47153 7.09937,12.04143 C7.73807,12.04213 8.37677,12.04273 9.01547,12.04343 L9.00857,12.03663 C9.01087,13.03883 9.01317,14.04113 9.01547,15.04333 C8.01317,15.04113 7.01087,15.03883 6.00857,15.03663 L6.01537,15.04343 C6.01267,14.51813 6.00987,13.99283 6.00707,13.46763" id="Fill-32" fill="#B1D9F9"></path>
            <path d="M27.01976,0.44527 C27.01596,1.31127 27.01226,2.17727 27.00856,3.04337 L27.01546,3.03667 L24.00856,3.03667 L24.01546,3.04337 C24.00716,2.38157 23.99886,1.71977 23.99056,1.05797 C24.99376,0.82147 25.99576,0.57887 27.01976,0.44527" id="Fill-34" fill="#B1D9F9"></path>
            <path d="M3.01532,27.03657 C2.14922,27.04037 1.28322,27.04407 0.41722,27.04777 C0.55072,26.02387 0.79362,25.02197 1.02962,24.01877 C1.69152,24.02697 2.35342,24.03527 3.01532,24.04347 L3.00862,24.03657 L3.00862,27.04347 L3.01532,27.03657 Z" id="Fill-36" fill="#B1D9F9"></path>
            <path d="M6.01532,18.03657 C5.11122,18.03047 4.20722,18.02427 3.30322,18.01817 C3.73862,16.96037 4.30122,15.97157 4.93042,15.01897 C5.29212,15.02707 5.65372,15.03527 6.01542,15.04347 L6.00862,15.03657 L6.00862,18.04347 L6.01532,18.03657 Z" id="Fill-38" fill="#B1D9F9"></path>
            <path d="M17.99012,3.33125 C17.99632,4.23535 18.00242,5.13935 18.00852,6.04335 L18.01542,6.03665 L15.00862,6.03665 L15.01542,6.04345 C15.00722,5.68185 14.99912,5.32015 14.99092,4.95855 C15.94332,4.32885 16.93242,3.76675 17.99012,3.33125" id="Fill-40" fill="#B1D9F9"></path>
            <path d="M3.01532,24.0435 C2.35342,24.0352 1.69152,24.027 1.02962,24.0187 C1.32352,23.0107 1.55402,21.982 2.00552,21.0254 C2.34222,21.0314 2.67882,21.0374 3.01542,21.0435 L3.00862,21.0366 L3.01532,24.0435 Z" id="Fill-42" fill="#0082EB"></path>
            <path d="M23.99052,1.05796 C23.99882,1.71976 24.00722,2.38156 24.01552,3.04336 L21.00862,3.03666 L21.01542,3.04346 C21.00932,2.70686 21.00332,2.37026 20.99732,2.03356 C21.95382,1.58196 22.98272,1.35226 23.99052,1.05796" id="Fill-44" fill="#0082EB"></path>
            <path d="M9.01542,12.04346 C8.37672,12.04276 7.73812,12.04216 7.09942,12.04146 C7.63952,11.23026 8.28722,10.51316 9.00852,9.86046 C9.01082,10.58816 9.01312,11.31576 9.01542,12.04346" id="Fill-46" fill="#0082EB"></path>
            <path d="M12.01342,7.12744 C12.01412,7.76614 12.01472,8.40474 12.01542,9.04344 C11.28772,9.04114 10.56002,9.03884 9.83242,9.03654 C10.48472,8.31484 11.20232,7.66764 12.01342,7.12744" id="Fill-48" fill="#0082EB"></path>
            <path d="M3.01542,21.04346 C2.67882,21.03746 2.34222,21.03136 2.00552,21.02536 C2.27422,20.26816 2.44232,19.46636 2.98122,18.82916 C2.99252,19.56726 3.00402,20.30536 3.01542,21.04346" id="Fill-50" fill="#B1D9F9"></path>
            <path d="M20.99735,2.0336 C21.00335,2.3702 21.00935,2.7068 21.01545,3.0435 C20.27735,3.032 19.53925,3.0207 18.80115,3.0092 C18.93625,2.7158 19.24085,2.6983 19.48905,2.5994 C19.98775,2.4006 20.46455,2.1416 20.99735,2.0336" id="Fill-52" fill="#B1D9F9"></path>
            <path d="M6.01542,15.04346 C5.65372,15.03526 5.29212,15.02706 4.93042,15.01896 C5.26532,14.48516 5.56692,13.92826 6.00712,13.46756 C6.00982,13.99286 6.01262,14.51816 6.01542,15.04346" id="Fill-54" fill="#0082EB"></path>
            <path d="M14.99091,4.95855 C14.99911,5.32015 15.00731,5.68185 15.01541,6.04345 C14.49011,6.04065 13.96481,6.03785 13.43951,6.03505 C13.90041,5.59515 14.45701,5.29325 14.99091,4.95855" id="Fill-56" fill="#0082EB"></path>
            <path d="M12.01532,30.03657 L9.00872,30.03657 L9.01542,30.04347 L9.00872,27.03657 C10.01102,27.03657 11.01322,27.03667 12.01542,27.03667 L12.00862,30.04347 L12.01532,30.03657 Z" id="Fill-58" fill="#B1D9F9"></path>
            <path d="M30.00868,18.0435 C30.88718,18.0424 31.76578,18.0499 32.64408,18.0351 C32.91848,18.0304 33.02408,18.1071 33.01758,18.3965 C33.00048,19.1585 33.00048,19.9215 33.01758,20.6836 C33.02408,20.973 32.91848,21.0497 32.64408,21.045 C31.76578,21.0301 30.88718,21.0377 30.00868,21.0366 L30.01538,21.0435 L30.01538,18.0366 L30.00868,18.0435 Z" id="Fill-60" fill="#B1D9F9"></path>
            <path d="M18.01532,30.03657 L15.00872,30.03657 L15.01542,30.04347 L15.00852,27.03667 C16.01082,27.03667 17.01312,27.03657 18.01532,27.03657 L18.00862,30.04347 L18.01532,30.03657 Z" id="Fill-62" fill="#B1D9F9"></path>
            <path d="M30.00853,15.03672 C30.00853,16.03892 30.00863,17.04122 30.00863,18.04352 L30.01543,18.03662 L27.00863,18.04352 C27.00863,17.04122 27.00853,16.03892 27.00853,15.03672 L30.01543,15.04342 L30.00853,15.03672 Z" id="Fill-64" fill="#B1D9F9"></path>
            <polygon id="Fill-66" fill="#B1D9F9" points="3.00858 30.04346 3.01528 27.03656 3.00858 27.04346 6.01528 27.03656 6.00858 30.04346 6.01528 30.03656"></polygon>
            <path d="M30.00868,24.0435 C30.88718,24.0424 31.76578,24.0499 32.64408,24.0351 C32.91858,24.0304 33.02408,24.1071 33.01758,24.3965 C33.00048,25.1585 33.00048,25.9215 33.01758,26.6836 C33.02408,26.973 32.91848,27.0497 32.64408,27.045 C31.76578,27.0302 30.88718,27.0377 30.00868,27.0366 L30.01538,27.0435 L30.01538,24.0366 L30.00868,24.0435 Z" id="Fill-68" fill="#B1D9F9"></path>
            <polygon id="Fill-70" fill="#B1D9F9" points="30.00868 21.03657 30.00868 24.04347 30.01538 24.03657 27.00868 24.04347 27.00868 21.03657 30.01538 21.04347"></polygon>
            <path d="M9.00868,30.03657 C9.00978,30.91507 9.00218,31.79377 9.01698,32.67197 C9.02158,32.94637 8.94508,33.05217 8.65558,33.04567 C7.89348,33.02857 7.13048,33.02857 6.36838,33.04567 C6.07898,33.05217 6.00238,32.94647 6.00698,32.67207 C6.02178,31.79377 6.01428,30.91507 6.01528,30.03657 L6.00858,30.04347 L9.01538,30.04347 L9.00868,30.03657 Z" id="Fill-72" fill="#B1D9F9"></path>
            <path d="M15.00868,30.03657 C15.00978,30.91507 15.00218,31.79377 15.01698,32.67197 C15.02158,32.94637 14.94508,33.05217 14.65558,33.04567 C13.89348,33.02857 13.13048,33.02857 12.36838,33.04567 C12.07898,33.05207 12.00238,32.94647 12.00698,32.67207 C12.02178,31.79377 12.01428,30.91507 12.01528,30.03657 L12.00858,30.04347 L15.01538,30.04347 L15.00868,30.03657 Z" id="Fill-76" fill="#B1D9F9"></path>
            <path d="M21.00853,30.03672 C21.00963,30.91522 21.00213,31.79392 21.01693,32.67212 C21.02163,32.94662 20.94483,33.05212 20.65553,33.04562 C19.89343,33.02852 19.13043,33.02852 18.36833,33.04562 C18.07883,33.05212 18.00233,32.94632 18.00703,32.67202 C18.02183,31.79372 18.01423,30.91512 18.01533,30.03662 L18.00853,30.04342 L21.01543,30.04342 L21.00853,30.03672 Z" id="Fill-78" fill="#B1D9F9"></path>
            <path d="M27.00853,30.03672 C27.00963,30.91522 27.00213,31.79382 27.01693,32.67212 C27.02163,32.94652 26.94503,33.05212 26.65553,33.04562 C25.89353,33.02852 25.13053,33.02852 24.36843,33.04562 C24.07903,33.05212 24.00233,32.94652 24.00703,32.67212 C24.02193,31.79382 24.01433,30.91522 24.01543,30.03672 L24.00853,30.04342 L27.01543,30.04342 L27.00853,30.03672 Z" id="Fill-80" fill="#B1D9F9"></path>
            <polygon id="Fill-82" fill="#B1D9F9" points="27.00853 3.04336 30.01543 3.03666 30.00863 6.04346 30.01543 6.03666 27.00853 6.04336 27.01543 3.03666"></polygon>
            <path d="M30.00848,30.0438 C30.87318,30.0426 31.73828,30.0556 32.60238,30.0329 C32.93518,30.0242 33.02768,30.1347 33.01868,30.4569 C32.99758,31.2046 33.00288,31.9535 33.01648,32.7016 C33.02128,32.9623 32.93508,33.0494 32.67388,33.0446 C31.92578,33.0309 31.17698,33.0256 30.42918,33.0466 C30.10748,33.0557 29.99608,32.964 30.00488,32.6308 C30.02748,31.7667 30.01428,30.9016 30.01538,30.0369 L30.00848,30.0438 Z" id="Fill-84" fill="#B1D9F9"></path>
            <polygon id="Fill-86" fill="#B1D9F9" points="24.01547 30.03672 21.00857 30.03672 21.01547 30.04342 21.00857 27.03672 24.01547 27.03672 24.00857 30.04342"></polygon>
            <path d="M30.00868,12.04351 C30.88718,12.04241 31.76588,12.04991 32.64408,12.03511 C32.91868,12.03041 33.02408,12.10721 33.01758,12.39651 C33.00058,13.15861 33.00048,13.92161 33.01758,14.68371 C33.02408,14.97321 32.91828,15.04961 32.64398,15.04501 C31.76568,15.03021 30.88708,15.03781 30.00858,15.03671 L30.01538,15.04341 L30.01538,12.03661 L30.00868,12.04351 Z" id="Fill-88" fill="#B1D9F9"></path>
            <path d="M30.00868,27.03657 C30.00868,28.03897 30.00858,29.04137 30.00848,30.04377 C30.00848,30.04377 30.01538,30.03687 30.01538,30.03687 L27.00858,30.03667 L27.01538,30.04347 L27.00868,27.03657 L30.01538,27.04347 L30.00868,27.03657 Z" id="Fill-90" fill="#B1D9F9"></path>
            <polygon id="Fill-92" fill="#B1D9F9" points="30.00868 9.03657 30.00868 12.04347 30.01538 12.03657 27.00868 12.04347 27.00868 9.03657 30.01538 9.04347"></polygon>
            <path d="M18.00853,6.04336 L21.01523,6.04346 C21.01523,6.04346 21.00853,6.03666 21.00853,6.03666 L21.01533,9.04346 C20.01303,9.04346 19.01073,9.04336 18.00853,9.04336 L18.01543,6.03666 L18.00853,6.04336 Z" id="Fill-94" fill="#B1D9F9"></path>
            <path d="M21.00858,3.03662 L24.01548,3.04332 L24.00858,3.03662 L24.01548,6.04332 L21.00858,6.03662 C21.00858,6.03662 21.01528,6.04342 21.01528,6.04352 C21.01308,5.04122 21.01078,4.03892 21.00858,3.03662" id="Fill-96" fill="#B1D9F9"></path>
            <polygon id="Fill-98" fill="#B1D9F9" points="3.01532 24.0435 3.00862 21.0366 6.01532 21.0435 6.00862 21.0366 6.01532 24.0435 3.00862 24.0366"></polygon>
            <path d="M6.01532,21.0435 L6.01532,18.0366 L6.00862,18.0435 C7.01082,18.0412 8.01312,18.0389 9.01532,18.0366 L9.01532,21.0435 C8.01312,21.0412 7.01082,21.0389 6.00862,21.0366 L6.01532,21.0435 Z" id="Fill-100" fill="#B1D9F9"></path>
            <path d="M12.00858,9.03662 C13.01078,9.03892 14.01308,9.04122 15.01528,9.04352 C15.01528,9.04352 15.00858,9.03662 15.00858,9.03662 L15.01548,12.04332 C14.01318,12.04112 13.01088,12.03882 12.00858,12.03662 L12.01548,12.04332 L12.00858,9.03662 Z" id="Fill-102" fill="#0081EB"></path>
            <path d="M9.01547,15.04336 C9.01317,14.04116 9.01087,13.03886 9.00857,12.03666 L12.01547,12.04336 L12.00857,12.03666 C12.01087,13.03886 12.01317,14.04116 12.01547,15.04336 L9.00857,15.03666 L9.01547,15.04336 Z" id="Fill-104" fill="#0081EB"></path>
            <path d="M18.01542,6.03662 L18.00852,9.04332 L18.01542,9.03662 L15.00862,9.03662 C15.00862,9.03662 15.01532,9.04352 15.01532,9.04352 L15.00862,6.03662 L18.01542,6.03662 Z" id="Fill-106" fill="#0081EB"></path>
            <path d="M9.01532,18.03657 C8.01312,18.03887 7.01082,18.04117 6.00862,18.04347 L6.00862,15.03657 C7.01092,15.03887 8.01322,15.04107 9.01542,15.04337 L9.00862,15.03657 L9.00862,18.04347 L9.01532,18.03657 Z" id="Fill-108" fill="#0081EB"></path>
            <path d="M24.01547,6.04336 L24.00857,3.03666 L27.01547,3.03666 L27.00857,6.04336 C27.00857,6.04336 27.01547,6.03666 27.01547,6.03666 L24.00857,6.03666 L24.01547,6.04336 Z" id="Fill-110" fill="#0081EB"></path>
            <path d="M3.00858,24.03662 L6.01528,24.04352 C6.01528,24.04352 6.00858,24.03662 6.00858,24.03662 L6.00858,27.04342 L6.01528,27.03662 L3.00858,27.04342 L3.00858,24.03662 Z" id="Fill-112" fill="#0081EB"></path>
            <polygon id="Fill-114" fill="#0081EB" points="15.01542 30.04346 12.00862 30.04346 12.01552 27.03676 12.00862 27.04346 15.01542 27.04346 15.00852 27.03676"></polygon>
            <path d="M12.01547,27.03672 C11.01327,27.03672 10.01097,27.03662 9.00867,27.03662 L9.01547,27.04342 L9.01547,24.03662 L9.00857,24.04342 L12.01547,24.03672 L12.00857,27.04342 L12.01547,27.03672 Z" id="Fill-116" fill="#0081EB"></path>
            <polygon id="Fill-118" fill="#0081EB" points="9.01542 30.04346 6.00862 30.04346 6.01532 27.03656 6.00862 27.04346 9.01542 27.04346 9.00872 27.03656"></polygon>
            <polygon id="Fill-120" fill="#0081EB" points="30.01542 21.04346 27.00872 21.03656 27.01542 21.04346 27.01542 18.03666 27.00872 18.04346 30.01542 18.03666"></polygon>
            <path d="M18.01532,27.03657 C17.01312,27.03657 16.01082,27.03667 15.00852,27.03667 L15.01542,27.04347 L15.00852,24.03667 L18.01542,24.03667 L18.00862,27.04347 L18.01532,27.03657 Z" id="Fill-122" fill="#0081EB"></path>
            <polygon id="Fill-124" fill="#0081EB" points="21.00853 27.03672 21.01543 30.04342 18.00853 30.04342 18.01533 27.03662 18.00853 27.04342 21.01543 27.04342"></polygon>
            <path d="M27.00853,15.03672 C27.00853,16.03892 27.00863,17.04122 27.00863,18.04352 L27.01543,18.03662 L24.00863,18.04352 C24.00863,17.04122 24.00853,16.03892 24.00853,15.03672 L27.01543,15.04342 L27.00853,15.03672 Z" id="Fill-126" fill="#0081EB"></path>
            <polygon id="Fill-128" fill="#0081EB" points="27.00868 12.04351 30.01538 12.03661 30.01538 15.04341 27.00858 15.03671 27.01538 15.04341 27.01538 12.03661"></polygon>
            <polygon id="Fill-130" fill="#0081EB" points="30.01542 27.04346 27.00872 27.03656 27.01542 27.04346 27.01542 24.03666 27.00872 24.04346 30.01542 24.03666"></polygon>
            <polygon id="Fill-132" fill="#0081EB" points="27.00868 21.03657 27.00868 24.04347 27.01538 24.03657 24.00858 24.03657 24.01538 24.04347 24.00868 21.03657 27.01538 21.04347"></polygon>
            <path d="M30.01542,9.04346 L27.00872,9.03656 L27.01542,9.04346 L27.01542,6.03666 C27.01542,6.03666 27.00852,6.04336 27.00852,6.04336 L30.01542,6.03666 L30.01542,9.04346 Z" id="Fill-134" fill="#0081EB"></path>
            <polygon id="Fill-136" fill="#0081EB" points="27.00868 27.03657 27.01538 30.04347 24.00858 30.04347 24.01548 27.03667 24.00858 27.04347 27.01538 27.04347"></polygon>
            <polygon id="Fill-138" fill="#0081EB" points="24.01547 27.03672 21.00857 27.03672 21.01547 27.04342 21.00857 24.03672 24.01547 24.04342 24.00857 24.03662 24.00857 27.04342"></polygon>
            <polygon id="Fill-140" fill="#0081EB" points="27.00868 9.03657 27.00868 12.04347 27.01538 12.03657 24.00868 12.04347 24.01538 9.03657 24.00858 9.04347 27.01538 9.04347"></polygon>
            <path d="M18.00853,9.04336 C19.01073,9.04336 20.01303,9.04346 21.01533,9.04346 C21.01523,9.04346 21.00853,9.03666 21.00853,9.03666 L21.01543,12.04336 L18.00853,12.04336 L18.01543,9.03666 L18.00853,9.04336 Z" id="Fill-142" fill="#0081EB"></path>
            <path d="M21.00858,6.03662 L24.01548,6.04332 L24.00858,6.03662 L24.00858,9.04342 L24.01538,9.03662 L21.00858,9.03662 C21.00858,9.03662 21.01528,9.04352 21.01528,9.04352 L21.00858,6.03662 Z" id="Fill-144" fill="#0081EB"></path>
            <path d="M6.00858,21.03662 C7.01078,21.03892 8.01308,21.04122 9.01528,21.04352 L9.00858,21.03662 L9.00858,24.04342 L9.01538,24.03662 L6.00858,24.03662 C6.00858,24.03662 6.01528,24.04352 6.01528,24.04352 L6.00858,21.03662 Z" id="Fill-146" fill="#0081EB"></path>
            <polygon id="Fill-148" fill="#0081EB" points="9.01532 21.0435 9.01532 18.0366 9.00862 18.0435 12.01532 18.0366 12.01532 21.0435 9.00862 21.0366"></polygon>
            <polygon id="Fill-150" fill="#B1D9F9" points="18.01542 9.03662 18.00852 12.04332 18.01542 12.03662 15.00862 12.03662 15.01542 12.04332 15.00862 9.03662"></polygon>
            <path d="M12.01547,15.04336 C12.01317,14.04116 12.01087,13.03886 12.00857,12.03666 C13.01087,12.03886 14.01317,12.04116 15.01547,12.04336 L15.00857,12.03666 C15.01087,13.03886 15.01317,14.04116 15.01547,15.04336 C14.01317,15.04116 13.01087,15.03886 12.00857,15.03666 L12.01547,15.04336 Z" id="Fill-152" fill="#B1D9F9"></path>
            <polygon id="Fill-154" fill="#B1D9F9" points="12.01532 18.03657 9.00862 18.04347 9.00862 15.03657 12.01542 15.04337 12.00862 15.03657 12.00862 18.04347"></polygon>
            <polygon id="Fill-156" fill="#B1D9F9" points="24.0086 9.0434 27.0154 9.0434 27.0154 6.0366 24.0086 6.0366"></polygon>
            <polygon id="Fill-158" fill="#B1D9F9" points="6.0086 27.0434 9.0154 27.0434 9.0154 24.0366 6.0086 24.0366"></polygon>
            <path d="M15.00853,24.03672 L15.01543,27.04342 L12.00863,27.04342 L12.01543,24.03672 C12.01543,24.03672 12.00863,24.04342 12.00863,24.04342 L15.01543,24.04342 L15.00853,24.03672 Z" id="Fill-159" fill="#B1D9F9"></path>
            <path d="M9.00858,21.03662 L12.01528,21.04352 L12.00858,21.03662 L12.00858,24.04342 C12.00858,24.04342 12.01548,24.03672 12.01548,24.03672 L9.00858,24.04342 L9.00858,21.03662 Z" id="Fill-160" fill="#B1D9F9"></path>
            <path d="M27.01542,21.04346 L24.00872,21.03656 C24.00872,21.03656 24.01542,21.04346 24.01542,21.04346 L24.01542,18.03666 L24.00872,18.04346 L27.01542,18.03666 L27.01542,21.04346 Z" id="Fill-161" fill="#B1D9F9"></path>
            <polygon id="Fill-162" fill="#B1D9F9" points="21.00853 24.03672 21.01543 27.04342 18.00853 27.04342 18.01543 24.03672 18.00853 24.04342 21.01543 24.04342"></polygon>
            <polygon id="Fill-163" fill="#B1D9F9" points="18.01547 24.03672 15.00857 24.03672 15.01547 24.04342 15.01547 21.03662 15.00857 21.04342 18.01547 21.03672 18.00857 24.04342"></polygon>
            <path d="M24.00853,15.03672 C24.00853,16.03892 24.00863,17.04122 24.00863,18.04352 L24.01543,18.03662 L21.00863,18.04352 L21.01543,15.03662 L21.00853,15.04342 L24.01543,15.04342 L24.00853,15.03672 Z" id="Fill-164" fill="#B1D9F9"></path>
            <polygon id="Fill-165" fill="#B1D9F9" points="24.00868 12.04351 27.01538 12.03661 27.01538 15.04341 24.00858 15.03671 24.01538 15.04341 24.01538 12.03661"></polygon>
            <polygon id="Fill-166" fill="#B1D9F9" points="24.0086 27.0434 27.0154 27.0434 27.0154 24.0366 24.0086 24.0366"></polygon>
            <path d="M24.01542,24.04346 L21.00852,24.03676 L21.01542,24.04346 L21.00872,21.03656 L24.01542,21.04346 C24.01542,21.04346 24.00872,21.03656 24.00872,21.03656 L24.01542,24.04346 Z" id="Fill-167" fill="#B1D9F9"></path>
            <polygon id="Fill-168" fill="#B1D9F9" points="21.00858 9.03662 24.01538 9.03662 24.00868 12.04352 24.01538 12.03662 21.00858 12.03662 21.01548 12.04332"></polygon>
            <path d="M18.00853,12.04336 L21.01543,12.04336 L21.00853,12.03666 L21.00853,15.04346 L21.01543,15.03666 L18.00853,15.04336 C18.01083,14.04116 18.01313,13.03886 18.01543,12.03666 L18.00853,12.04336 Z" id="Fill-169" fill="#B1D9F9"></path>
            <path d="M12.01532,21.0435 L12.01532,18.0366 L12.00862,18.0435 C13.01082,18.0412 14.01312,18.0389 15.01532,18.0366 L15.00862,21.0435 L15.01542,21.0366 L12.00862,21.0366 L12.01532,21.0435 Z" id="Fill-170" fill="#B1D9F9"></path>
            <path d="M18.01542,12.03662 C18.01312,13.03882 18.01082,14.04112 18.00852,15.04332 L18.01542,15.03662 L15.00862,15.03662 L15.01542,15.04332 C15.01322,14.04112 15.01092,13.03882 15.00862,12.03662 L18.01542,12.03662 Z" id="Fill-171" fill="#0081EB"></path>
            <path d="M15.01532,18.03657 C14.01312,18.03887 13.01082,18.04117 12.00862,18.04347 L12.00862,15.03657 C13.01092,15.03887 14.01322,15.04107 15.01542,15.04337 L15.00862,15.03657 L15.00862,18.04347 L15.01532,18.03657 Z" id="Fill-172" fill="#0081EB"></path>
            <polygon id="Fill-173" fill="#0081EB" points="12.0086 24.0434 15.0154 24.0434 15.0154 21.0366 12.0086 21.0366"></polygon>
            <polygon id="Fill-174" fill="#0081EB" points="24.01542 21.04346 21.00872 21.03656 21.01542 21.04346 21.01542 18.03666 21.00872 18.04346 24.01542 18.03666"></polygon>
            <path d="M21.00868,21.03657 L21.01538,24.04347 L18.00858,24.04347 L18.01548,21.03667 C18.01548,21.03677 18.00858,21.04347 18.00858,21.04347 L21.01538,21.04347 L21.00868,21.03657 Z" id="Fill-175" fill="#0081EB"></path>
            <path d="M15.00858,21.04346 L15.01528,18.03656 L15.00858,18.04346 L18.01538,18.04346 L18.00858,18.03666 L18.00858,21.04346 C18.00858,21.04346 18.01548,21.03676 18.01548,21.03676 L15.00858,21.04346 Z" id="Fill-176" fill="#0081EB"></path>
            <polygon id="Fill-177" fill="#0081EB" points="18.00853 15.04336 21.01543 15.03666 21.00863 18.04346 21.01543 18.03666 18.00853 18.03666 18.01543 18.04346 18.01543 15.03666"></polygon>
            <polygon id="Fill-178" fill="#0081EB" points="21.0086 15.0434 24.0154 15.0434 24.0154 12.0366 21.0086 12.0366"></polygon>
            <polygon id="Fill-179" fill="#B1D9F9" points="15.0086 18.0435 18.0154 18.0435 18.0154 15.0367 15.0086 15.0367"></polygon>
            <polygon id="Fill-180" fill="#B1D9F9" points="18.0086 21.0434 21.0154 21.0434 21.0154 18.0366 18.0086 18.0366"></polygon>
        </g>
    </g>
</svg>